<?xml version="1.0" encoding="UTF-8"?>
<!DOCTYPE svg PUBLIC "-//W3C//DTD SVG 1.1//EN" "http://www.w3.org/Graphics/SVG/1.1/DTD/svg11.dtd">
<!-- Creator: CorelDRAW -->
<svg xmlns="http://www.w3.org/2000/svg" xml:space="preserve" width="248px" height="234px" version="1.1" style="shape-rendering:geometricPrecision; text-rendering:geometricPrecision; image-rendering:optimizeQuality; fill-rule:evenodd; clip-rule:evenodd"
viewBox="0 0 104.65 98.68"
 xmlns:xlink="http://www.w3.org/1999/xlink"
 xmlns:xodm="http://www.corel.com/coreldraw/odm/2003">
 <defs>
  <style type="text/css">
   <![CDATA[
    .fil2 {fill:none;fill-rule:nonzero}
    .fil5 {fill:#CCCCCC}
    .fil1 {fill:#B66174;fill-rule:nonzero}
    .fil0 {fill:#783D50;fill-rule:nonzero}
    .fil3 {fill:gray;fill-rule:nonzero}
    .fil4 {fill:black;fill-opacity:0.250980}
   ]]>
  </style>
     <clipPath id="id0" style="clip-rule:nonzero">
      <path d="M2.63 35.39c-0.02,-0.35 -0.04,-0.86 -0.03,-1.52 0,-0.21 0,-0.48 0.01,-0.75l0.02 -0.33c0.06,-0.81 0.16,-1.51 0.28,-2.2 0.04,-0.29 0.12,-0.68 0.21,-1.07 0.17,-0.74 0.39,-1.44 0.64,-2.13 0.09,-0.28 0.23,-0.68 0.4,-1.07 0.37,-0.88 0.82,-1.76 1.33,-2.61l0.22 -0.35 7.51 -11.72c3.7,-5.76 10,-9.21 16.85,-9.21l44.5 0c6.85,0 13.15,3.45 16.85,9.21l7.47 11.65c0.63,0.97 1.17,2 1.61,3.07 0.08,0.17 0.29,0.76 0.29,0.76 0.2,0.55 0.51,1.42 0.75,2.47 0.05,0.23 0.11,0.55 0.16,0.82 0.17,0.87 0.28,1.72 0.32,2.55l0.02 0.62c0.02,0.85 0,1.62 -0.07,2.34l0 0c0.02,0.39 0.03,0.78 0.04,1.17 0.24,11.09 -2.6,22.71 -7.79,31.88 -9.53,16.83 -26.06,27.28 -43.15,27.28 -4.52,0 -8.97,-0.74 -13.24,-2.2 -5.72,-1.95 -11.28,-5.31 -16.08,-9.7 -12.33,-11.3 -19.39,-30.39 -19.12,-48.96z"/>
     </clipPath>
 </defs>
 <g id="Layer_x0020_1">
  <metadata id="CorelCorpID_0Corel-Layer"/>
  <g id="_2136698802368">
   <g>
    <path class="fil0" d="M0.04 34.66c-0.03,-0.36 -0.05,-0.9 -0.04,-1.59 0,-0.23 0,-0.51 0.01,-0.79l0.02 -0.35c0.07,-0.85 0.17,-1.59 0.3,-2.31 0.04,-0.3 0.12,-0.72 0.22,-1.13 0.18,-0.78 0.41,-1.51 0.67,-2.24 0.1,-0.3 0.25,-0.72 0.42,-1.12 0.39,-0.93 0.87,-1.86 1.4,-2.74l0.23 -0.38 7.91 -12.32c3.89,-6.07 10.52,-9.69 17.73,-9.69l46.83 0c7.2,0 13.84,3.62 17.73,9.69l7.85 12.25c0.66,1.02 1.24,2.11 1.7,3.22 0.08,0.19 0.3,0.81 0.3,0.81 0.22,0.57 0.54,1.5 0.8,2.6 0.05,0.24 0.11,0.58 0.16,0.85 0.18,0.92 0.29,1.82 0.34,2.7l0.02 0.64c0.02,0.89 0,1.71 -0.07,2.47l0 0c0.01,0.41 0.02,0.81 0.03,1.22 0.26,11.67 -2.73,23.89 -8.19,33.53 -10.03,17.71 -27.42,28.7 -45.4,28.7 -4.76,0 -9.45,-0.78 -13.94,-2.31 -6.02,-2.05 -11.87,-5.58 -16.92,-10.2 -12.97,-11.89 -20.4,-31.97 -20.11,-51.51z"/>
    <path class="fil1" d="M2.63 35.39c-0.02,-0.35 -0.04,-0.86 -0.03,-1.52 0,-0.21 0,-0.48 0.01,-0.75l0.02 -0.33c0.06,-0.81 0.16,-1.51 0.28,-2.2 0.04,-0.29 0.12,-0.68 0.21,-1.07 0.17,-0.74 0.39,-1.44 0.64,-2.13 0.09,-0.28 0.23,-0.68 0.4,-1.07 0.37,-0.88 0.82,-1.76 1.33,-2.61l0.22 -0.35 7.51 -11.72c3.7,-5.76 10,-9.21 16.85,-9.21l44.5 0c6.85,0 13.15,3.45 16.85,9.21l7.47 11.65c0.63,0.97 1.17,2 1.61,3.07 0.08,0.17 0.29,0.76 0.29,0.76 0.2,0.55 0.51,1.42 0.75,2.47 0.05,0.23 0.11,0.55 0.16,0.82 0.17,0.87 0.28,1.72 0.32,2.55l0.02 0.62c0.02,0.85 0,1.62 -0.07,2.34l0 0c0.02,0.39 0.03,0.78 0.04,1.17 0.24,11.09 -2.6,22.71 -7.79,31.88 -9.53,16.83 -26.06,27.28 -43.15,27.28 -4.52,0 -8.97,-0.74 -13.24,-2.2 -5.72,-1.95 -11.28,-5.31 -16.08,-9.7 -12.33,-11.3 -19.39,-30.39 -19.12,-48.96z"/>
    <g style="clip-path:url(#id0)">
     <g>
      <path id="_1" class="fil0" d="M88.01 24.7c11,0.23 21.94,-0.15 32.86,-0.73l-1.96 -2.42c-10.33,0.73 -20.64,1.67 -30.9,3.15z"/>
      <path class="fil0" d="M102.31 5.63c-2.12,0.11 -4.23,0.26 -6.37,0.46 -5.42,0.57 -10.8,1.33 -16.05,2.89 5.57,0.49 11.03,0.18 16.45,-0.31 3.04,-0.33 6.16,-0.69 9.19,-1.34 -1.02,-0.63 -2.1,-1.2 -3.22,-1.7z"/>
      <path class="fil0" d="M121.12 40.44c-5.58,-0.11 -10.88,-0.2 -16.38,0.05 -5.44,0.32 -10.87,0.82 -16.24,2.12 5.53,0.76 11,0.71 16.45,0.48 5.39,-0.34 11.05,-0.74 16.17,-2.65z"/>
      <path class="fil0" d="M1.19 27.2l0 -0.01 0 0 0.01 -0.01 0 0 0.01 -0.01 0 -0.01 0 0 0.01 -0.01 0 -0.01 0.01 0 0.01 -0.01 0 -0.01 0.01 -0.01 0 0 0.01 -0.01 0 -0.01 0.3 -0.39 1.74 -2.14 0 0 0.02 0 0.03 0 0.02 0 0.02 0 0.03 0 0.02 0 0.02 0 0.03 0 0.02 0 0.01 0 0.01 0 0.03 0 0.02 0 0.02 0 0.03 0 0.02 0 0.02 0 0.03 0 0.02 0 0.02 0 0.05 0 0.02 0c1.09,-0.01 2.18,0 3.27,0.02l0.02 0 0.06 0 0.05 0 0.04 0 0.07 0 0.01 0 0.17 0.01 0.05 0 0.05 0 0.09 0 0.08 0 0.02 0 0.09 0.01 0.09 0 0.02 0 0.08 0 0.09 0 0.06 0 0.04 0.01 0.09 0 0.09 0 0 0 0.1 0.01 0.09 0 0.04 0 0.05 0 0.17 0.01 0.02 0 0.1 0 0.09 0.01 0.01 0 0.08 0 0.1 0 0.05 0 0.51 0.03 0.1 0 0.18 0.01 0.1 0.01 0 0 0.09 0 0.1 0.01 0.47 0.02 0.02 0 0.07 0.01 0.09 0 0.06 0.01 0.22 0.01 0.01 0 0.18 0.01 0.04 0.01 0.06 0 0.09 0.01 0.19 0.01 0.09 0.01 0.02 0 0.08 0 0.09 0.01 0.1 0.01 0.09 0.01 0.08 0 0.02 0 0.09 0.01 0.09 0.01 0.03 0 0.07 0.01 0.09 0 0.06 0.01 0.04 0 0.09 0.01 0.09 0.01 0.01 0 0.09 0.01 0.09 0.01 0.04 0 0.06 0 0.09 0.01 0 0c1.37,0.13 2.75,0.3 4.12,0.52 -1.04,0.23 -2.08,0.42 -3.13,0.59l0 0c-0.91,0.15 -1.83,0.29 -2.74,0.4l-0.05 0.01 -0.14 0.01 -0.07 0.01 -0.07 0.01 -0.28 0.04 -0.14 0.01 -0.02 0 -0.12 0.02 -0.14 0.01 0 0 -0.25 0.03 -0.03 0 -0.14 0.02 -0.09 0.01 -0.05 0 -0.14 0.02 -0.06 0.01 -0.08 0 -0.14 0.02 -0.04 0 -0.1 0.01 -0.14 0.02 -0.02 0 -0.12 0.01 -0.13 0.01 -0.01 0 -0.14 0.02 -0.11 0.01 -0.03 0 -0.15 0.01 -0.08 0.01 -0.05 0 -0.14 0.02 -0.06 0 -0.09 0.01 -0.14 0.01 -0.03 0 -0.11 0.01 -0.14 0.01 0 0 -0.14 0.02 -0.12 0.01 -0.02 0 -0.14 0.01 -0.1 0 -0.04 0.01 -0.14 0.01 -0.07 0 -0.07 0.01 -0.14 0.01 -0.05 0 -0.09 0.01 -0.14 0.01 -0.03 0 -0.11 0.01 -0.14 0.01 0 0 -0.14 0.01 -0.12 0.01 -0.02 0 -0.14 0.01 -0.1 0 -0.04 0.01 -0.14 0 -0.07 0.01 -0.07 0 -0.07 0.01 -0.07 0 -0.05 0 -0.01 0.01 -0.07 0 -0.07 0 -0.06 0.01 -0.05 0 -0.02 0 -0.07 0 -0.07 0.01 -0.06 0 -0.03 0 -0.04 0.01 -0.07 0 -0.06 0 -0.07 0.01 -0.02 0 -0.05 0 -0.07 0 -0.06 0.01 -0.07 0 -0.01 0 -0.06 0 -0.06 0.01 -0.07 0 -0.06 0 -0.01 0 -0.07 0.01 -0.06 0 -0.07 0 -0.05 0.01 -0.02 0 -0.06 0 -0.07 0 -0.07 0.01 -0.04 0 -0.03 0 -0.06 0 -0.07 0.01 -0.07 0 -0.02 0 -0.04 0 -0.07 0.01 -0.07 0 -0.07 0 -0.01 0 -0.05 0 -0.07 0.01 -0.07 0 -0.06 0 -0.01 0 -0.06 0.01 -0.07 0 -0.07 0 -0.05 0 -0.01 0 -0.07 0.01 -0.07 0 -0.06 0 -0.05 0 -0.02 0.01 -0.07 0 -0.07 0 -0.06 0 -0.04 0 -0.03 0.01 -0.07 0 -0.06 0 -0.07 0 -0.02 0 -0.05 0.01 -0.07 0 -0.06 0 -0.07 0 -0.01 0 -0.06 0.01 -0.06 0 -0.07 0 -0.07 0 -0.01 0 -0.02 0 -0.01 0 -0.02 0.01 0 0z"/>
      <path class="fil0" d="M26.73 68.89l0.01 0 -0.12 0.01 -0.04 0 -0.02 0 -0.02 0 -0.16 0.01 -0.02 0 -0.02 0.01 -0.04 0 -0.04 0 -0.04 0 -0.04 0.01 -0.02 0 -0.02 0 -0.04 0 -0.04 0 -0.04 0 -0.04 0.01 -0.02 0 -0.02 0 -0.04 0 -0.04 0 -0.04 0.01 -0.04 0 -0.02 0 -0.02 0 -0.04 0 -0.04 0.01 -0.04 0 -0.04 0 -0.01 0 -0.03 0 -0.04 0.01 -0.04 0 -0.04 0 -0.04 0 -0.01 0 -0.03 0.01 -0.04 0 -0.04 0 -0.04 0 -0.04 0.01 -0.01 0 -0.03 0 -0.04 0 -0.04 0 -0.04 0.01 -0.04 0 -0.01 0 -0.03 0 -0.04 0 -0.04 0.01 -0.04 0 -0.04 0 -0.01 0 -0.03 0 -0.04 0.01 -0.04 0 -0.04 0 -0.04 0 0 0 -0.04 0.01 -0.04 0 -0.04 0 -0.04 0 -0.04 0.01 0 0 -0.04 0 -0.04 0 -0.04 0 -0.04 0.01 -0.04 0 -12.68 0.54 -0.03 0 -0.03 0 -0.02 0 -0.03 0.01 -0.03 0 -0.02 0 -0.03 0 -0.03 0 -0.02 0 -0.03 0 -0.03 0 -0.02 0 -0.08 0.01 -0.03 0 -0.1 0 -0.03 0 -0.95 0.04 -0.03 0 -0.03 0.01 -0.02 0 -0.03 0 -0.03 0 -0.02 0 -0.03 0 0 0 -2.44 -2.11c0.83,0.01 1.66,0.02 2.49,0.02l0 0 0.07 0 0 0.01 0.76 0 0 0 0.07 0 0 0 0.06 0.01 0.07 0 0 0 0.06 0 0 0 0.06 0 0 0 0.07 0 0.06 0 0 0 0.07 0 0 0 0.06 0 0.06 0 0.07 0 0.06 0 12.7 0.19 0.02 0 0.02 0 0.03 0 0.02 0 0.02 0 0.02 0 0.02 0 0.02 0 0.02 0 0.01 0 0.01 0 0.02 0.01 0.02 0 0.03 0 0.02 0 0.02 0 0.02 0 0.06 0 0 0 0.02 0 0.07 0 0.02 0.01 0.04 0 0.02 0 0.02 0 0.01 0 0.01 0 0.04 0 0.03 0 0.02 0 0.08 0 0.02 0 0 0 0.11 0.01 0.02 0c3.93,0.13 7.85,0.21 11.78,0.42 -3.37,0.29 -6.75,0.46 -10.13,0.66z"/>
      <path class="fil0" d="M95.07 60.55l0.01 0c-3.42,0.03 -6.86,0.01 -10.3,-0.08 5.57,-0.98 11.19,-1.67 16.83,-2.19l-2.57 2.21 -0.06 0.01 -0.06 0 -0.06 0 -0.04 0 -0.03 0 -0.06 0 -0.06 0 -0.25 0.01 -0.04 0 -0.02 0 -0.06 0 -0.75 0.01 -0.06 0 0 0 -0.06 0 -0.06 0 -0.06 0 -0.04 0.01 -0.02 0 -0.07 0 -0.06 0 -0.06 0 -0.02 0 -0.04 0 -0.07 0 -0.06 0 -0.05 0 -0.01 0 -0.06 0 -0.06 0 -0.07 0 -0.02 0 -0.04 0 -0.06 0.01 -0.06 0 -0.06 0 0 0 -0.07 0 -0.06 0 -0.06 0 -0.03 0 -0.03 0 -0.06 0 -0.07 0 -0.18 0 -0.06 0 -0.05 0 -0.01 0.01 -0.07 0 -0.37 0 0 0 -0.19 0z"/>
      <path class="fil0" d="M-2.87 58.73l0 0 -2.02 -1.74 0 0 0 0c2.63,-0.29 5.26,-0.54 7.89,-0.75l0.06 0 1.14 -0.09 0.08 0 1.53 -0.12 0.1 0 0.29 -0.02 0.12 -0.01 0.16 -0.01 0.1 -0.01 0.19 -0.01 0.06 -0.01 0.22 -0.01 0.04 0 0.25 -0.02 0 0 0.26 -0.02 0.02 0 0.23 -0.01 0.06 -0.01 0.2 -0.01 0.08 0 0.17 -0.02 0.12 0 0.14 -0.01 0.14 -0.01 0.12 -0.01 0.17 -0.01 0.08 0 0.2 -0.01 0.06 -0.01 0.23 -0.01 0.02 0 0.26 -0.02 0 0 0.25 -0.01 0.04 -0.01 0.47 -0.02 0.1 -0.01 0.16 -0.01c0.8,-0.04 1.6,-0.08 2.4,-0.13 10.17,-0.43 20.37,-0.54 30.57,0.28 -9.88,1.2 -19.74,1.78 -29.62,2.28l0 0 -0.45 0.02 -0.01 0 -0.01 0 -0.01 0 -0.01 0 -0.02 0 -0.01 0 -0.01 0 -0.01 0 -0.01 0.01 -0.01 0 -0.02 0 -0.01 0 -0.01 0 -0.01 0 -0.01 0 -0.02 0 -0.01 0 -0.01 0 -0.01 0 -0.01 0 -0.01 0 -0.02 0 -0.01 0 -0.01 0 -0.01 0 -0.01 0.01 -0.26 0.01 -0.26 0.01 -0.25 0.01 -0.26 0.01 -0.25 0.01 0 0 -0.26 0.01 0 0 -0.25 0.01 0 0 -0.26 0.01 0 0 -0.26 0.01 -0.25 0.01 0 0 -0.26 0.01 0 0 -0.25 0.01 -0.26 0.01 0 0 -0.26 0.01 0 0 -0.25 0.01 0 0 -0.51 0.02 -0.26 0.01 0 0 -0.25 0.01 -0.01 0 -0.25 0.01 0 0 -1.02 0.04 0 0 -0.26 0.01 0 0 -0.26 0.01 0 0 -0.25 0.01 0 0 -0.51 0.02 0 0 -0.26 0.01 0 0 -0.26 0.01 0 0 -0.51 0.02 0 0 -0.51 0.01 0 0 -0.26 0.01 0 0 -0.25 0.01 0 0 -0.51 0.02 -0.01 0 -0.51 0.01 0 0 -0.25 0.01 0 0 -0.26 0.01 0 0 -0.51 0.02 0 0 -0.26 0 0 0 -0.77 0.03 0 0c-1.28,0.03 -2.56,0.06 -3.84,0.09z"/>
      <path class="fil0" d="M75.82 75.59l0 0c3.97,-0.47 7.96,-0.83 11.96,-1.11l0.13 -0.01 0.18 -0.01 0.29 -0.02 0.01 -0.01c0.62,-0.04 1.24,-0.08 1.85,-0.12l0.03 0 0.28 -0.02 0.2 -0.01 0.11 -0.01 0.3 -0.02 0.06 0 0.25 -0.02 0.22 -0.01 0.09 0 0.31 -0.02 0.07 -0.01 0.23 -0.01 0.25 -0.01 0.06 -0.01 0.31 -0.02 0.1 0 0.21 -0.01 0.26 -0.02 0.05 0 0.3 -0.02 0.13 0 0.18 -0.01 0.29 -0.02 0.02 0 0.31 -0.02 0.14 0 0.17 -0.01 0.3 -0.02 0 0 0 0 -3.16 2.73 0 0c-1.34,0.05 -2.67,0.11 -4.01,0.15l-0.18 0.01 -0.97 0.03 -0.28 0.01 -0.01 0 -0.28 0.01 -0.14 0.01 -0.15 0 -0.27 0.01 -0.01 0 -0.29 0.01 -0.12 0 -0.17 0.01 -0.25 0.01 -0.03 0 -0.29 0.01 -0.1 0 -0.19 0.01 -0.23 0 -0.05 0 -0.29 0.01 -0.08 0.01 -0.21 0 -0.21 0.01 -0.07 0 -0.29 0.01 -0.06 0 -0.23 0 -0.19 0.01 -0.09 0 -0.29 0.01 -0.04 0 -0.25 0.01 -0.17 0 -0.11 0 -0.29 0.01 -0.02 0 -0.27 0.01 -0.15 0 -0.14 0 -0.28 0.01 0 0 -0.29 0.01 -0.13 0 -0.16 0 -0.26 0.01 -0.02 0 -0.29 0 -0.11 0.01 -0.18 0 -0.24 0 -0.05 0 -0.28 0.01 -0.09 0 -0.2 0 -0.23 0.01 -0.06 0 -0.29 0 -0.07 0 -0.21 0.01 -0.21 0 -0.08 0 -0.29 0 -0.05 0 -0.24 0.01 -0.18 0 -0.1 0 -0.29 0 -0.03 0 -0.26 0 -0.16 0.01 -0.13 0 -0.28 0 -0.01 0 -0.28 0 -0.14 0 -0.15 0 -0.28 0 -0.01 0 -0.28 0.01c-2.86,0.01 -5.71,-0.02 -8.58,-0.1 3.47,-0.61 6.95,-1.11 10.45,-1.52z"/>
      <path class="fil0" d="M73.88 92.57l-0.04 0.04 -11.23 0.34 -0.14 0 -0.04 0 -0.11 0.01 -0.07 0 -0.08 0 -0.1 0 -0.04 0 -0.14 0 -0.01 0 -0.14 0 -0.03 0 -0.12 0 -0.06 0 -0.08 0 -0.1 0 -0.05 0.01 -0.13 0 -0.01 0 -0.15 0 -0.02 0 -0.12 0 -0.05 0 -0.1 0 -0.08 0 -0.07 0 -0.11 0.01 -0.03 0 -0.15 0 0 0 -0.14 0 -0.04 0 -0.11 0 -0.07 0 -0.07 0 -0.11 0.01 -0.04 0 -0.14 0 0 0 -0.15 0 -0.03 0 -0.11 0 -0.07 0 -0.08 0 -0.1 0.01 -0.04 0 -0.14 0 -0.01 0 -0.15 0 -0.02 0 -0.12 0 -0.06 0 -0.09 0 -0.09 0.01 -0.05 0 -0.13 0 -0.02 0 -0.14 0 -0.02 0 -0.13 0 -0.05 0 -0.1 0 -0.08 0.01 -0.06 0 -0.12 0 -0.03 0 -0.14 0 -0.01 0 -0.14 0 -0.04 0 -0.1 0 -0.08 0.01 -0.07 0 -0.11 0 -0.03 0 -0.15 0 0 0 -0.14 0 -0.03 0 -0.12 0 -0.06 0 -0.09 0.01 -0.09 0 -0.05 0 -0.29 0 -0.02 0 -0.13 0 -0.05 0 -0.09 0 -0.09 0 -0.06 0 -0.12 0.01 -0.02 0 -0.15 0 -0.01 0 -0.14 0 -0.04 0 -0.36 0 -0.03 0 -0.15 0 0 0 -0.14 0 -0.04 0 -0.11 0 -0.25 0 -0.04 0 -0.33 0 -0.03 0 -0.04 0 -0.03 0 -0.03 0 -0.04 0 0 0 -0.03 0 -0.04 0 -0.03 0 -0.1 0 -0.04 0 -0.03 0 -0.04 0 -0.03 0 -0.02 0 -0.01 0 -0.04 0 -0.03 0 -0.04 0 -0.03 0 -0.03 0 0 0 -0.04 0 -0.03 0 -0.04 0 -0.03 0 -0.04 0 0 0 -0.03 0 -0.03 0 -0.04 0 -0.03 0 -0.07 0 -0.04 0 -0.03 0 -0.03 0 -0.04 0 -0.02 0 -0.01 0 -0.04 0 -0.03 0 -0.03 0 -0.04 0 -0.03 0 0 0 -0.04 0 -0.03 0 -0.04 0 -0.03 -0.01 -0.03 0 -0.01 0 -0.03 0 -0.03 0 -0.04 0 -0.03 0 -0.04 0 -0.01 0 -0.02 0 -0.03 0 -0.04 0 -0.03 0 -0.04 0 -0.02 0 -0.01 0 -0.03 0 -0.04 0 -0.03 0 -0.04 0 -0.03 0c3.79,-0.53 7.58,-0.9 11.38,-1.36l11.4 -1.08 0.04 0 0.04 0 0.04 -0.01 0.04 0 0.04 0 0 0 0.04 -0.01 0 0 0.05 0 0.04 -0.01 0.08 0 0.04 -0.01 0.04 0 0.04 0 0 0 0.08 -0.01 0.05 -0.01 0.08 0 0 0 0.04 -0.01 0.04 0 0 0 0.04 0 0.04 -0.01 0 0 0.09 -0.01 0 0 0.04 0 0 0 0.04 0 0.04 -0.01 0.04 0 0 0 0.04 -0.01 0 0 0.04 0 0 0 0.08 -0.01 0.05 0 0.04 0 0 0 0.04 -0.01 0.04 0 0.08 -0.01 0 0 0.04 0 0 0 0.04 -0.01 0 0 0.04 0 0.05 0 0.04 -0.01 0.04 0 0.04 0 0.04 -0.01 0.04 0 0.04 -0.01 0.04 0 0.05 0 0.04 -0.01 0 0 0.04 0 0.04 0 0.04 -0.01 0 0 0.04 0 0.04 0 0 0 0.04 -0.01 0 0 0.04 0 0.05 -0.01 0 0 0.04 0 0 0 0.04 0 0 0 0.04 -0.01 0 0 0.04 0 0 0 0.04 0 0 0 -1.38 1.19 -0.02 0.02 -0.02 0.02 -0.02 0.01 0 0 -0.02 0.02 0 0 -0.02 0.02 -0.02 0.01 -0.04 0.04 -0.02 0.01 -0.02 0.02 -0.02 0.02 0 0 -0.02 0.01 0 0 -0.02 0.02 0 0 -0.02 0.01 -0.02 0.02 0 0 -0.02 0.02 -0.02 0.01 -0.02 0.02 -0.02 0.02 -0.02 0.01 -0.02 0.02 -0.02 0.02 -0.02 0.01 0 0 -0.02 0.02 0 0 -0.02 0.02 0 0 -0.02 0.01 0 0 -0.02 0.02 0 0 -0.02 0.01 0 0.01 -0.02 0.01 0 0 -0.02 0.02 0 0 -0.02 0.01 0 0 -0.02 0.02 0 0 -0.02 0.02 0 0 -0.02 0.01 0 0 -0.02 0.02 0 0 -0.02 0.01 0 0.01 -0.02 0.01 0 0 -0.02 0.02 -0.02 0.01 0 0 -0.02 0.02 0 0 -0.02 0.02 0 0 -0.02 0.01 0 0 -0.02 0.02 0 0 -0.02 0.01 -0.02 0.02 0 0 -0.02 0.02 0 0 -0.02 0.01 -0.01 0 -0.01 0.02 -0.01 0 -0.02 0.01 0 0 -0.02 0.02 0 0 -0.02 0.02 0 0 -0.02 0.01 0 0 -0.02 0.02 0 0 -0.02 0.02 0 0 -0.02 0.01 0 0 -0.02 0.02 -0.02 0.01 0 0 -0.02 0.02 0 0 -0.03 0.02 -0.02 0.01 -0.02 0.02 0 0 -0.02 0.01 0 0z"/>
      <path class="fil0" d="M-3.7 44.46l0 0 0 0 -0.02 -0.03 0 0 -0.01 -0.03 0 0 -0.01 -0.03 0 0 -0.01 -0.03 0 0 -0.01 -0.04 0 0 -0.01 -0.03 -0.01 0 -0.01 -0.03 0 0 -0.01 -0.03 0 0 -0.01 -0.03 0 0 -0.01 -0.03 0 0 -0.01 -0.04 0 0 -0.01 -0.03 0 0 -0.02 -0.03 0 0 -0.01 -0.03 0 0 -0.01 -0.03 0 0 -0.01 -0.03 0 0 -0.01 -0.04 0 0 -0.01 -0.03 0 0 -0.01 -0.03 0 0 -0.01 -0.03 0 0 -0.01 -0.03 0 0 -0.01 -0.04 0 0 -0.01 -0.03 -0.01 0 -0.01 -0.03 0 0 -0.02 -0.06 0 -0.01 -0.01 -0.03 0 0 -0.01 -0.03 0 0 -0.02 -0.06 0 0 -0.03 -0.1 0 0 -0.01 -0.03 0 0 -0.01 -0.04 0 0 -0.01 -0.03 0 0 -0.03 -0.1 0 0 -0.02 -0.06 0 0 -0.01 -0.03 0 0 -0.01 -0.04 0 0 -0.03 -0.09 0 0 0 -0.04 -0.01 0 0 -0.03 0 0 -0.01 -0.03 0 0 -0.01 -0.04 0 0 -0.03 -0.09 0 0 -0.03 -0.14 -0.01 0 0 -0.03 0 0 -0.03 -0.1 0 0 -0.02 -0.07 0 0 -0.01 -0.03 0.01 0 0.2 -0.02 0.13 -0.01 0.66 -0.06 0.04 0 0.61 -0.05 0.01 0 0.2 -0.02 0.41 -0.04 0.05 0 0.16 -0.02 0.41 -0.03 0.09 -0.01 0.53 -0.04 0.13 -0.01 0.08 -0.01 0.2 -0.02 0.62 -0.05 0.1 0 0.31 -0.03 0.02 0 0.19 -0.02 0.14 -0.01 0.07 0 0.2 -0.02 0.06 0 0.15 -0.02 0.18 -0.01 0.02 0 0.21 -0.02 0.1 -0.01 0.11 0 0.2 -0.02 0.02 0 0.19 -0.02 0.14 -0.01 0.07 0 0.2 -0.02 0.07 0 0.14 -0.01 0.19 -0.02 0.01 0 0.21 -0.02 0.11 0 0.1 -0.01 0.2 -0.02 0.03 0 0.18 -0.01 0.15 -0.01 0.06 -0.01 0.2 -0.01 0.07 -0.01 0.14 -0.01 0.19 -0.01 0.01 -0.01 0.21 -0.01 0.11 -0.01 0.1 -0.01 0.2 -0.01 0.03 0 0.18 -0.02 0.16 -0.01 0.46 -0.03 0.2 -0.02 0.01 0 0.2 -0.01 0.42 -0.03 0.03 0c3.2,-0.23 6.4,-0.45 9.61,-0.66 7.63,-0.45 15.26,-0.89 22.91,-1.14 7.65,-0.27 15.3,-0.5 22.98,-0.44 -7.57,1.01 -15.17,1.74 -22.78,2.43 -7.6,0.71 -15.22,1.23 -22.85,1.73 -2.3,0.14 -4.6,0.28 -6.91,0.41l-0.21 0.01 -0.03 0 -0.19 0.01 -0.13 0.01 -0.09 0 -0.21 0.01 -0.03 0.01 -0.19 0.01 -0.22 0.01 -0.22 0.01 -0.02 0 -0.19 0.01 -0.13 0.01 -0.09 0 -0.22 0.02 -0.02 0 -0.19 0.01 -0.13 0 -0.09 0.01 -0.22 0.01 -0.02 0 -0.19 0.01 -0.13 0.01 -0.09 0 -0.22 0.02 -0.02 0 -0.2 0.01 -0.12 0 -0.09 0.01 -0.22 0.01 -0.02 0 -0.2 0.01 -0.12 0.01 -0.09 0 -0.22 0.01 -0.02 0.01 -0.2 0.01 -0.12 0 -0.09 0.01 -0.22 0.01 -0.02 0 -0.2 0.01 -0.12 0 -0.1 0.01 -0.21 0.01 -0.02 0 -0.2 0.01 -0.12 0.01 -0.1 0 -0.23 0.01 -0.2 0.01 -0.12 0.01 -0.1 0 -0.43 0.02 -0.12 0.01 -0.1 0 -0.22 0.01 -0.01 0.01 -0.2 0.01 -0.12 0 -0.1 0 -0.22 0.02 -0.01 0 -0.21 0.01 -0.43 0.01 -0.01 0.01 -0.21 0 -0.11 0.01 -0.1 0 -0.22 0.01 -0.01 0 -0.21 0.01 -0.11 0.01 -0.11 0 -0.21 0.01 -0.01 0 -0.21 0.01 -0.11 0.01 -0.11 0 -0.21 0.01 -0.01 0 -0.21 0.01 -0.12 0 -0.1 0.01 -0.22 0.01 0 0 -0.21 0 -0.12 0.01 -0.65 0.02 -0.1 0.01 -0.87 0.03z"/>
      <path class="fil0" d="M21.45 85.82l0 -0.01 -2.31 -1.99 0 0 0.19 0.01 0 0 0.19 0.01 0 0 0.19 0.01 0 0 0.19 0.01 0 0 0.19 0.01 0.01 0 0.57 0.03 0 0 0.19 0.01 0 0 0.19 0.02 0 0 0.57 0.03 0.01 0 0.57 0.04 0 0 0.57 0.04 0 0 0.19 0.02 0 0 0.19 0.01 0.01 0 0.57 0.04 0 0 0.19 0.02 0 0 0.19 0.01 0 0 0.38 0.04 0 0 0.39 0.03 0 0 0.19 0.01 0 0 0.19 0.02 0 0 0.38 0.04 0 0 0.58 0.05 0 0 0.19 0.02 0.19 0.01 0.19 0.02 0 0 0.19 0.02 0 0 0.19 0.02 0 0 0.19 0.02 0.19 0.02 0 0 0.19 0.02 0.2 0.02 0.19 0.02 0 0 0.19 0.02 0 0 0.19 0.02 0.19 0.02 0.19 0.03 0.19 0.02 0.19 0.02 0.19 0.02 0.2 0.02 0.19 0.03 0.19 0.02 0.19 0.02 0.19 0.03 0.19 0.02 0.19 0.03 0.2 0.02 0.19 0.02 0.19 0.03 -0.16 0.02 -0.15 0.02 -0.16 0.02 0 0 -0.15 0.02 0 0 -0.16 0.02 0 0 -0.15 0.02 0 0 -0.16 0.02 0 0 -0.15 0.02 0 0 -0.16 0.02 0 0 -0.15 0.02 -0.16 0.02 0 0 -0.15 0.01 0 0 -0.16 0.02 0 0 -0.15 0.02 0 0 -0.16 0.02 0 0 -0.15 0.01 -0.01 0 -0.15 0.02 0 0 -0.15 0.02 -0.01 0 -0.15 0.02 0 0 -0.15 0.01 -0.01 0 -0.15 0.02 0 0 -0.15 0.01 -0.01 0 -0.15 0.02 0 0 -0.15 0.01 -0.01 0.01 -0.15 0.01 0 0 -0.16 0.01 0 0.01 -0.15 0.01 0 0 -0.16 0.01 0 0.01 -0.15 0.01 0 0 -0.16 0.01 0 0 -0.15 0.02 0 0 -0.16 0.01 0 0 -0.15 0.02 0 0 -0.16 0.01 0 0 -0.15 0.01 0 0 -0.16 0.02 0 0 -0.15 0.01 0 0 -0.16 0.01 0 0 -0.15 0.01 0 0 -0.16 0.02 0 0 -0.15 0.01 0 0 -0.16 0.01 0 0 -0.15 0.01 0 0 -0.16 0.01 0 0 -0.15 0.02 -0.01 0 -0.15 0.01 0 0 -0.15 0.01 -0.01 0 -0.15 0.01 0 0 -0.15 0.01 -0.01 0c-0.77,0.06 -1.55,0.1 -2.32,0.15z"/>
      <path class="fil0" d="M4.86 9.63l25.47 -0.8 12.74 -0.41c4.25,-0.2 8.5,-0.3 12.76,-0.54 -4.25,-0.35 -8.5,-0.5 -12.76,-0.73l-12.77 -0.32c-8.34,-0.15 -16.67,-0.02 -25,0.2 -1.37,0.8 -2.65,1.7 -3.81,2.7l3.37 -0.1z"/>
     </g>
    </g>
    <path class="fil2" d="M2.63 35.39c-0.02,-0.35 -0.04,-0.86 -0.03,-1.52 0,-0.21 0,-0.48 0.01,-0.75l0.02 -0.33c0.06,-0.81 0.16,-1.51 0.28,-2.2 0.04,-0.29 0.12,-0.68 0.21,-1.07 0.17,-0.74 0.39,-1.44 0.64,-2.13 0.09,-0.28 0.23,-0.68 0.4,-1.07 0.37,-0.88 0.82,-1.76 1.33,-2.61l0.22 -0.35 7.51 -11.72c3.7,-5.76 10,-9.21 16.85,-9.21l44.5 0c6.85,0 13.15,3.45 16.85,9.21l7.47 11.65c0.63,0.97 1.17,2 1.61,3.07 0.08,0.17 0.29,0.76 0.29,0.76 0.2,0.55 0.51,1.42 0.75,2.47 0.05,0.23 0.11,0.55 0.16,0.82 0.17,0.87 0.28,1.72 0.32,2.55l0.02 0.62c0.02,0.85 0,1.62 -0.07,2.34l0 0c0.02,0.39 0.03,0.78 0.04,1.17 0.24,11.09 -2.6,22.71 -7.79,31.88 -9.53,16.83 -26.06,27.28 -43.15,27.28 -4.52,0 -8.97,-0.74 -13.24,-2.2 -5.72,-1.95 -11.28,-5.31 -16.08,-9.7 -12.33,-11.3 -19.39,-30.39 -19.12,-48.96z"/>
    <path class="fil0" d="M11.21 37.55c-0.02,-0.3 -0.03,-0.73 -0.03,-1.28 0,-0.19 0,-0.42 0.01,-0.64l0.02 -0.28c0.05,-0.68 0.13,-1.28 0.23,-1.86 0.03,-0.24 0.09,-0.58 0.17,-0.9 0.15,-0.63 0.33,-1.22 0.53,-1.8 0.08,-0.24 0.19,-0.58 0.33,-0.91 0.31,-0.75 0.68,-1.49 1.1,-2.2l0.18 -0.3 6.22 -9.91c3.06,-4.87 8.27,-7.78 13.94,-7.78l36.82 0c5.67,0 10.89,2.91 13.94,7.78l6.18 9.85c0.52,0.82 0.97,1.69 1.34,2.59 0.06,0.15 0.24,0.65 0.24,0.65 0.16,0.46 0.42,1.2 0.62,2.09 0.04,0.19 0.09,0.46 0.13,0.68 0.14,0.74 0.23,1.46 0.26,2.17l0.02 0.52c0.02,0.71 0,1.37 -0.06,1.98l0 0c0.02,0.33 0.03,0.65 0.03,0.98 0.2,9.38 -2.14,19.2 -6.44,26.95 -7.89,14.23 -21.56,23.06 -35.7,23.06 -3.74,0 -7.43,-0.62 -10.96,-1.85 -4.73,-1.65 -9.33,-4.49 -13.3,-8.21 -10.21,-9.55 -16.05,-25.69 -15.82,-41.38z"/>
    <path class="fil3" d="M13.4 38.08c-0.02,-0.28 -0.03,-0.7 -0.03,-1.22 0,-0.18 0,-0.4 0.01,-0.62l0.02 -0.26c0.04,-0.65 0.12,-1.22 0.22,-1.77 0.03,-0.24 0.08,-0.56 0.16,-0.87 0.13,-0.6 0.31,-1.16 0.5,-1.72 0.07,-0.23 0.18,-0.55 0.31,-0.86 0.29,-0.71 0.64,-1.42 1.05,-2.11l0.16 -0.28 5.89 -9.46c2.9,-4.65 7.84,-7.43 13.2,-7.43l34.86 0c5.37,0 10.31,2.78 13.2,7.43l5.85 9.4c0.49,0.79 0.92,1.62 1.27,2.48 0.05,0.14 0.22,0.61 0.22,0.61 0.16,0.44 0.4,1.15 0.59,2 0.04,0.18 0.09,0.44 0.13,0.66 0.13,0.7 0.21,1.39 0.25,2.06l0.01 0.5c0.02,0.68 0,1.3 -0.05,1.89l0 0c0.01,0.31 0.02,0.63 0.03,0.94 0.19,8.95 -2.04,18.33 -6.11,25.73 -7.46,13.59 -20.41,22.03 -33.8,22.03 -3.54,0 -7.03,-0.6 -10.37,-1.78 -4.48,-1.57 -8.84,-4.28 -12.6,-7.83 -9.66,-9.12 -15.19,-24.53 -14.97,-39.52z"/>
    <path class="fil4" d="M92.28 8.02c-4.79,32.75 -34.17,60.58 -75.4,74.85 1.05,1.16 2.14,2.26 3.27,3.3 5.05,4.62 10.9,8.15 16.92,10.2 4.49,1.53 9.18,2.31 13.94,2.31 17.98,0 35.37,-10.99 45.4,-28.7 5.46,-9.64 8.45,-21.86 8.19,-33.53 -0.01,-0.41 -0.02,-0.81 -0.03,-1.22 0.07,-0.76 0.09,-1.58 0.07,-2.47l-0.02 -0.64c-0.05,-0.88 -0.16,-1.78 -0.34,-2.7 -0.05,-0.27 -0.11,-0.61 -0.16,-0.85 -0.26,-1.1 -0.58,-2.03 -0.8,-2.6 0,0 -0.22,-0.62 -0.3,-0.81 -0.46,-1.11 -1.04,-2.2 -1.7,-3.22l-7.85 -12.25c-0.38,-0.58 -0.77,-1.14 -1.19,-1.67z"/>
   </g>
   <path class="fil5" d="M24.74 24.1c2.77,-4.45 7.49,-7.11 12.63,-7.11l30.16 0c-1.76,-0.96 -3.74,-1.49 -5.81,-1.49l-27.56 0c-4.24,0 -8.14,2.2 -10.44,5.88l-4.65 7.48 -0.13 0.22c-0.32,0.54 -0.6,1.1 -0.83,1.67 -0.1,0.25 -0.19,0.5 -0.25,0.68 -0.15,0.44 -0.28,0.88 -0.39,1.36 -0.06,0.25 -0.1,0.5 -0.13,0.68 -0.08,0.44 -0.14,0.89 -0.17,1.41l-0.02 0.2c0,0.18 -0.01,0.35 0,0.49 -0.01,0.42 0,0.74 0.02,0.96 -0.01,0.46 -0.01,0.91 0,1.36 0.13,-0.57 0.29,-1.1 0.47,-1.62 0.07,-0.22 0.18,-0.53 0.3,-0.83 0.28,-0.68 0.62,-1.36 1,-2.01l0.16 -0.28 5.64 -9.05z"/>
  </g>
 </g>
</svg>
