<?xml version="1.0" encoding="UTF-8"?>
<!DOCTYPE svg PUBLIC "-//W3C//DTD SVG 1.1//EN" "http://www.w3.org/Graphics/SVG/1.1/DTD/svg11.dtd">
<!-- Creator: CorelDRAW -->
<svg xmlns="http://www.w3.org/2000/svg" xml:space="preserve" width="116px" height="173px" version="1.1" style="shape-rendering:geometricPrecision; text-rendering:geometricPrecision; image-rendering:optimizeQuality; fill-rule:evenodd; clip-rule:evenodd"
viewBox="0 0 115.375 171.84"
 xmlns:xlink="http://www.w3.org/1999/xlink"
 xmlns:xodm="http://www.corel.com/coreldraw/odm/2003">
 <defs>
  <style type="text/css">
   <![CDATA[
    .fil0 {fill:#3D1B11}
    .fil3 {fill:#6C3717}
    .fil8 {fill:#90969C}
    .fil1 {fill:#995925}
    .fil5 {fill:#AFB7BC}
    .fil7 {fill:#CDD8DD}
    .fil9 {fill:#373435;fill-rule:nonzero}
    .fil6 {fill:#35343A;fill-rule:nonzero}
    .fil4 {fill:#545454;fill-rule:nonzero}
    .fil2 {fill:#6C3717;fill-rule:nonzero}
   ]]>
  </style>
 </defs>
 <g id="Layer_x0020_1">
  <metadata id="CorelCorpID_0Corel-Layer"/>
  <g id="_1928881547728">
   <path class="fil0" d="M57.638 160.438c-45.087,-36.535 -49.123,-91.491 -48.816,-137.851 16.271,-9.166 32.544,-13.727 48.816,-13.684 16.273,-0.043 32.543,4.518 48.815,13.684 0.263,46.36 -3.727,101.316 -48.815,137.851l0 0z"/>
   <path class="fil1" d="M95.532 17.149c3.291,1.447 7.632,3.597 10.921,5.438 0.79,25.044 -1.667,57.675 -10.656,82.982 -0.791,-27.499 -0.615,-60.569 -0.265,-88.42l0 0zm-13.947 -4.956c3.553,0.965 7.15,2.149 10.702,3.596 0.527,31.799 1.052,64.343 1.315,95.659 -3.288,8.068 -7.368,15.963 -12.412,23.42 0.746,-40.131 0.615,-83.159 0.395,-122.675l0 0zm-13.815 -2.72c3.465,0.395 6.93,1.01 10.439,1.843 0.438,17.456 0.788,34.999 0.832,52.587 0,25.526 -0.174,50.132 -0.439,74.561 -3.42,4.692 -7.278,9.255 -11.622,13.553 0.088,-2.809 0.175,-5.614 0.264,-8.29 0.964,-44.516 1.316,-89.517 0.526,-134.254l0 0zm-48.948 94.298c-7.894,-23.377 -9.781,-48.289 -10,-71.58 0.045,-3.332 0.089,-6.533 0.132,-9.691 4.166,-2.324 8.289,-4.342 12.457,-6.097 -0.088,14.386 -0.527,30.22 -1.491,48.596 -0.572,13.508 -0.922,26.36 -1.098,38.772l0 0zm16.93 33.465c-5.658,-7.851 -10.131,-16.184 -13.684,-24.78 0.263,-12.368 0.57,-24.737 0.921,-37.194 0.746,-21.228 1.271,-40.701 1.491,-60.043 4.562,-1.754 9.124,-3.158 13.685,-4.168 0.482,20.835 0.262,43.291 -1.184,70.044 -0.922,19.781 -1.229,38.246 -1.229,56.141l0 0zm15.22 17.412c-4.474,-4.211 -8.465,-8.596 -12.061,-13.157 0.789,-43.772 1.929,-87.325 1.754,-130.965 3.814,-0.746 7.674,-1.227 11.533,-1.447 0.704,21.534 1.01,43.86 0.352,68.246 -0.745,26.227 -1.184,51.84 -1.578,77.323l0 0zm6.666 5.79c-1.447,-1.185 -2.851,-2.369 -4.211,-3.553 0.22,-5.747 0.439,-10.965 0.527,-15.307 1.008,-42.192 1.536,-88.289 0.746,-132.631 0.966,-0.044 1.929,-0.044 2.938,-0.044 2.499,0 5.001,0.087 7.501,0.307 0.788,25.044 1.271,51.008 1.007,79.78 -0.086,6.535 -0.306,33.729 -0.745,64.562 -2.456,2.369 -5.045,4.648 -7.763,6.886l0 0z"/>
   <path class="fil2" d="M102.347 20.402l0.759 0.389 -0.031 0.701c-0.087,1.315 -0.174,2.631 -0.174,3.99 -0.045,1.843 0,3.773 0.131,5.834 0.088,1.973 0.22,4.123 0.396,6.315 0.219,2.499 0.437,5.087 0.657,7.674 0.132,1.93 0.308,3.773 0.439,5.66 0.175,2.106 0.351,4.122 0.482,6.184 0.05,1.153 0.101,2.306 0.142,3.491 -0.21,2.091 -0.445,4.186 -0.707,6.278 0.017,-1.199 0.018,-2.387 -0.004,-3.541 -0.044,-2.149 -0.132,-4.167 -0.22,-6.184 -0.132,-2.019 -0.308,-4.036 -0.483,-6.184 -0.131,-1.798 -0.263,-3.685 -0.439,-5.615 -0.22,-2.544 -0.439,-5.132 -0.657,-7.676 -0.131,-2.191 -0.307,-4.341 -0.395,-6.402 -0.132,-2.018 -0.176,-3.991 -0.132,-5.834 0.044,-1.402 0.087,-2.719 0.176,-4.035 0.022,-0.351 0.042,-0.699 0.06,-1.045zm3.404 1.797c0.239,0.13 0.473,0.26 0.702,0.388l0.011 0.384 -0.055 0.494c-0.218,1.622 -0.394,3.202 -0.481,4.693 -0.089,1.491 -0.132,2.938 0,4.473 0.083,1.464 0.287,2.967 0.609,4.511 -0.019,1.03 -0.044,2.066 -0.075,3.109 -0.255,-0.92 -0.479,-1.82 -0.666,-2.708 -0.352,-1.666 -0.571,-3.289 -0.658,-4.867 -0.132,-1.536 -0.087,-3.027 0,-4.563 0.087,-1.578 0.263,-3.114 0.481,-4.736l0.132 -1.178zm-7.02 74.057c-0.175,0.628 -0.353,1.254 -0.535,1.876 -0.15,-1.065 -0.307,-2.14 -0.47,-3.219 -0.394,-2.458 -0.79,-4.914 -1.228,-7.37 -0.392,-2.406 -0.799,-4.811 -1.166,-7.186 -0.02,-2.092 -0.038,-4.198 -0.052,-6.31l0.077 0.69c0.482,4.122 1.185,8.421 1.93,12.675 0.439,2.499 0.833,4.957 1.227,7.369 0.075,0.492 0.147,0.984 0.217,1.475zm-3.485 -43.787c0.006,-2.018 0.013,-4.032 0.023,-6.038 0.012,1.004 0.158,1.937 0.352,3.13l0.087 0.57c0.131,0.965 0.307,2.106 0.438,3.378 0.176,1.272 0.309,2.675 0.396,4.122 0.043,1.009 0.087,2.106 0.174,3.202 0.088,2.017 0.177,4.21 0.396,6.447 0.175,1.711 0.439,3.465 0.745,5.131 0.263,1.667 0.571,3.203 0.833,4.474 0.264,1.272 0.483,2.281 0.702,2.982 0.175,0.57 0.308,0.879 0.395,0.923l0.132 -0.22c0.131,-0.22 0.306,-0.57 0.438,-1.053 0.087,-0.351 0.176,-0.79 0.263,-1.271 0.133,-0.921 0.176,-1.931 0.176,-2.984 0,-1.096 -0.043,-2.235 -0.088,-3.377l0 -0.745c-0.088,-1.973 -0.175,-3.949 -0.132,-6.666 0,-0.659 0,-1.361 0.044,-2.106 0.044,-2.588 0.088,-5.571 -0.132,-8.245 -0.22,-2.589 -0.657,-4.869 -1.096,-6.975 -0.13,-0.657 -0.263,-1.315 -0.395,-1.885 -0.351,-1.93 -0.612,-3.728 -0.832,-5.306 -0.132,-0.66 -0.219,-1.273 -0.264,-1.756 -0.175,-0.92 -0.308,-1.71 -0.438,-2.28 -0.131,-0.438 -0.264,-0.79 -0.351,-0.922l-0.045 0.045c-0.131,0.131 -0.263,0.439 -0.393,0.877 -0.132,0.483 -0.176,1.14 -0.264,1.886 -0.088,0.569 -0.131,1.228 -0.264,1.93 -0.087,0.613 -0.176,1.227 -0.307,1.885 -0.218,1.272 -0.437,2.588 -0.526,3.683 -0.023,0.26 -0.037,0.508 -0.042,0.751 0.01,-1.992 0.022,-3.976 0.035,-5.951 0.022,-0.155 0.039,-0.307 0.051,-0.456 0.132,-0.745 0.175,-1.359 0.264,-1.931 0.087,-0.789 0.131,-1.447 0.306,-2.017 0.132,-0.526 0.352,-0.964 0.571,-1.227 0.131,-0.088 0.218,-0.176 0.35,-0.22 0.132,-0.044 0.264,-0.088 0.439,-0.044 0.132,0.044 0.219,0.088 0.306,0.176 0.264,0.263 0.44,0.701 0.616,1.359 0.176,0.615 0.305,1.403 0.437,2.326 0.088,0.613 0.177,1.182 0.264,1.797 0.219,1.535 0.482,3.334 0.877,5.219 0.132,0.702 0.219,1.316 0.352,1.93 0.437,2.149 0.919,4.429 1.139,7.061 0.219,2.676 0.176,5.659 0.132,8.334 -0.045,0.701 -0.045,1.403 -0.045,2.062 -0.043,2.674 0.045,4.648 0.132,6.623l0 0.744c0.044,1.141 0.088,2.281 0.088,3.421 0,1.097 -0.044,2.15 -0.175,3.071 -0.088,0.526 -0.176,1.009 -0.308,1.404 -0.13,0.525 -0.306,0.964 -0.526,1.272 -0.263,0.394 -0.57,0.614 -0.92,0.569l-0.089 -0.044c-0.35,-0.087 -0.657,-0.569 -0.921,-1.447 -0.218,-0.703 -0.437,-1.754 -0.745,-3.027 -0.264,-1.315 -0.569,-2.894 -0.834,-4.517 -0.307,-1.666 -0.569,-3.465 -0.745,-5.176 -0.22,-2.279 -0.307,-4.474 -0.395,-6.49 -0.044,-1.097 -0.13,-2.15 -0.175,-3.159 -0.087,-1.446 -0.22,-2.849 -0.35,-4.122 -0.056,-0.385 -0.107,-0.762 -0.156,-1.127zm-11.764 -39.741l0.798 0.238 0.025 0.849c0.132,3.991 0.132,8.816 0.174,13.686 0,6.052 0,12.191 0.264,16.929 0.176,3.815 0.483,6.798 0.79,9.474 0.35,3.289 0.658,6.184 0.615,9.911 -0.045,4.562 -0.615,10.307 -1.186,15.613 -0.219,2.415 -0.483,4.694 -0.657,6.8 -0.483,6.184 -0.396,10.043 -0.22,18.026l0.044 1.623c0.089,5.262 0.22,12.192 0.35,19.122 0.014,1.562 0.03,3.117 0.048,4.644 -0.255,0.423 -0.513,0.845 -0.774,1.266 -0.023,-1.948 -0.046,-3.929 -0.063,-5.91 -0.087,-6.93 -0.262,-13.86 -0.351,-19.078l-0.043 -1.667c-0.176,-7.983 -0.264,-11.885 0.219,-18.07 0.175,-2.062 0.438,-4.386 0.703,-6.842 0.525,-5.307 1.096,-11.009 1.182,-15.572 0,-3.595 -0.305,-6.49 -0.657,-9.778 -0.306,-2.72 -0.614,-5.659 -0.79,-9.519 -0.219,-4.736 -0.263,-10.877 -0.263,-16.972 -0.044,-4.825 -0.044,-9.65 -0.175,-13.686 -0.01,-0.369 -0.021,-0.731 -0.033,-1.087zm2.473 0.76c0.278,0.089 0.555,0.18 0.833,0.272l0.017 0.144c0.263,2.806 0.22,6.535 0.175,9.342l0 0.042c-0.044,1.404 -0.044,2.588 -0.044,3.51 0.044,0.921 0.089,1.535 0.219,1.841l0 0.045 0.088 -0.045c0.176,-0.174 0.396,-0.526 0.57,-1.008 0.263,-0.613 0.483,-1.403 0.614,-2.236 0.176,-0.834 0.263,-1.755 0.263,-2.676 0.045,-1.272 -0.131,-2.587 -0.263,-3.816 -0.043,-0.57 -0.087,-1.097 -0.131,-1.623 -0.045,-0.701 -0.088,-1.359 -0.132,-2.016 -0.016,-0.358 -0.026,-0.703 -0.04,-1.048 0.266,0.093 0.531,0.187 0.795,0.282l0.035 0.721c0.043,0.614 0.043,1.273 0.131,2.017 0.043,0.527 0.088,1.053 0.132,1.58 0.131,1.271 0.307,2.587 0.263,3.947 0,0.921 -0.132,1.885 -0.263,2.762 -0.176,0.923 -0.395,1.756 -0.658,2.414 -0.263,0.57 -0.527,1.008 -0.746,1.227 -0.174,0.176 -0.35,0.263 -0.482,0.307 -0.263,0.089 -0.438,0.044 -0.614,-0.131 -0.131,-0.087 -0.22,-0.22 -0.307,-0.395 -0.176,-0.438 -0.219,-1.141 -0.262,-2.105 0,-0.966 0,-2.15 0.043,-3.554l0 -0.042c0.043,-2.807 0.087,-6.493 -0.176,-9.298l-0.06 -0.46zm4.768 1.681c0.272,0.105 0.545,0.211 0.817,0.319 0.146,2.085 0.196,4.08 0.132,5.872 -0.175,3.727 -0.833,6.622 -1.446,9.297 -0.264,1.097 -0.527,2.193 -0.702,3.246 -0.351,1.842 -0.527,3.685 -0.659,5.615 -0.086,1.885 -0.043,3.859 0.044,5.832 0.088,1.842 0.264,3.772 0.439,5.702 0.221,2.192 0.394,4.43 0.527,6.755 0.132,3.114 0.132,6.404 0.087,9.78 0,1.271 -0.044,2.588 -0.044,4.211 0,2.455 0.044,4.869 0.089,7.237 0.087,2.543 0.174,5.087 0.263,7.455 0.044,0.965 0.087,1.975 0.176,2.896 0.131,3.332 0.306,6.404 0.262,9.649 -0.044,2.106 -0.175,4.298 -0.351,6.49 -0.176,2.237 -0.439,4.474 -0.701,6.667 -0.044,0.526 -0.176,1.359 -0.263,2.193 -0.386,2.831 -0.742,5.58 -0.782,7.933 -0.253,0.492 -0.509,0.981 -0.769,1.47 -0.129,-2.71 0.295,-6.018 0.761,-9.491 0.087,-0.614 0.176,-1.271 0.262,-2.192 0.308,-2.195 0.528,-4.43 0.704,-6.622 0.173,-2.194 0.306,-4.387 0.349,-6.448 0.044,-3.245 -0.131,-6.272 -0.262,-9.606 -0.044,-0.921 -0.132,-1.886 -0.176,-2.939 -0.087,-2.324 -0.176,-4.867 -0.219,-7.455 -0.088,-2.413 -0.133,-4.869 -0.133,-7.237 0,-1.228 0.045,-2.72 0.045,-4.211 0.044,-3.376 0.044,-6.622 -0.088,-9.737 -0.131,-2.324 -0.306,-4.517 -0.526,-6.709 -0.175,-1.975 -0.351,-3.906 -0.439,-5.747 -0.088,-2.017 -0.132,-3.991 -0.044,-5.921 0.132,-1.93 0.308,-3.859 0.659,-5.701 0.219,-1.096 0.482,-2.193 0.702,-3.291 0.613,-2.63 1.271,-5.482 1.447,-9.121 0.066,-1.9 0.006,-4.002 -0.161,-6.191zm1.896 20.908l0.068 4.273c-0.296,1.912 -0.484,3.795 -0.4,5.659 0.035,1.478 0.279,2.956 0.56,4.579l0.079 5.219c-0.204,-1.468 -0.456,-2.775 -0.682,-4.009 -0.352,-2.062 -0.703,-3.902 -0.747,-5.745 -0.13,-2.983 0.395,-5.966 0.965,-9.035l0.157 -0.941zm-22.841 -26.35c0.263,0.036 0.526,0.073 0.789,0.112 0.028,0.482 0.06,0.971 0.096,1.477 0.133,1.798 0.352,3.772 0.661,6.271l0.218 1.843c0.614,4.737 1.36,10.57 1.36,14.911 0,3.247 -0.396,5.703 -0.834,8.291 -0.263,1.315 -0.483,2.718 -0.659,4.298 -0.306,2.324 -0.481,4.999 -0.57,7.719 -0.131,2.807 -0.176,5.613 -0.219,8.244 -0.044,5.089 -0.044,9.388 -0.044,12.941 0,1.84 0,3.465 0,4.956 0.044,1.621 0.044,3.332 0.132,5.438 0.044,2.105 0.175,4.516 0.395,7.104 0.221,2.545 0.526,5.22 1.053,7.72 0.57,2.895 1.403,5.658 2.237,8.29l0.13 0.483 0.045 -0.264c0.35,-1.71 0.569,-3.245 0.658,-4.869 0.044,-1.579 0,-3.202 -0.176,-5.043 -0.176,-2.194 -0.57,-4.781 -1.009,-7.588 -0.262,-1.798 -0.569,-3.685 -0.834,-5.746 -0.349,-2.762 -0.701,-5.701 -0.92,-8.685 -0.219,-2.587 -0.351,-5.175 -0.395,-7.763 0,-2.763 0.089,-5.437 0.22,-7.982 0.131,-2.544 0.35,-5 0.57,-7.279l0.131 -1.449c0.351,-3.903 0.659,-7.411 0.659,-11.974 0,-4.165 -0.265,-9.21 -0.527,-13.682l-0.132 -2.809c-0.131,-2.016 -0.22,-3.859 -0.307,-5.613 -0.087,-2.676 -0.219,-5.131 -0.394,-7.675 -0.027,-0.442 -0.056,-0.887 -0.086,-1.336 0.267,0.044 0.536,0.09 0.804,0.137 0.025,0.385 0.049,0.77 0.072,1.155 0.176,2.499 0.262,4.999 0.394,7.719 0.087,1.71 0.176,3.552 0.307,5.569l0.132 2.808c0.262,4.517 0.525,9.562 0.525,13.727 0,4.563 -0.305,8.115 -0.701,12.061l-0.132 1.449c-0.175,2.237 -0.394,4.648 -0.525,7.236 -0.176,2.545 -0.22,5.219 -0.22,7.938 0.044,2.544 0.176,5.132 0.396,7.72 0.218,2.983 0.568,5.877 0.919,8.597 0.263,1.973 0.571,3.946 0.835,5.789 0.438,2.808 0.789,5.352 1.008,7.631 0.174,1.842 0.219,3.509 0.174,5.131 -0.087,1.667 -0.305,3.246 -0.657,4.957 -0.087,0.527 -0.22,1.097 -0.351,1.667 0.351,1.184 0.703,2.368 0.965,3.508 0.527,2.15 0.833,4.255 0.965,6.448 0.131,2.15 0,4.473 -0.35,7.017 -0.263,2.15 -0.746,4.43 -1.184,6.843 -0.603,3.053 -1.243,6.289 -1.581,9.406 -0.297,0.354 -0.597,0.708 -0.9,1.06l0.024 -0.247c0.307,-3.464 1.01,-7.017 1.667,-10.395 0.482,-2.369 0.921,-4.693 1.228,-6.755 0.307,-2.544 0.439,-4.779 0.307,-6.885 -0.088,-2.149 -0.438,-4.167 -0.921,-6.271 -0.176,-0.703 -0.394,-1.448 -0.57,-2.149 -0.659,2.718 -1.36,6.008 -1.754,10.35 -0.22,2.718 -0.352,5.79 -0.396,8.859 -0.044,4.122 0.087,8.29 0.176,11.492 0.03,0.777 0.059,1.492 0.089,2.174 -0.243,0.282 -0.488,0.563 -0.735,0.843 -0.048,-0.91 -0.096,-1.907 -0.144,-3.017 -0.087,-3.202 -0.176,-7.326 -0.176,-11.492 0.045,-3.114 0.176,-6.228 0.396,-8.903 0.394,-4.649 1.184,-8.071 1.843,-10.92l0.218 -0.922c-0.176,-0.614 -0.35,-1.228 -0.527,-1.842 -0.833,-2.631 -1.665,-5.395 -2.28,-8.334 -0.527,-2.588 -0.834,-5.264 -1.052,-7.852 -0.22,-2.542 -0.308,-4.999 -0.396,-7.103 -0.087,-2.106 -0.087,-3.816 -0.132,-5.482 0,-1.8 0,-3.291 0,-4.956 0,-3.465 0,-7.633 0.045,-12.984 0.044,-2.588 0.087,-5.438 0.22,-8.201 0.131,-2.807 0.263,-5.483 0.569,-7.806 0.176,-1.58 0.439,-2.984 0.659,-4.343 0.437,-2.543 0.833,-4.957 0.833,-8.159 0,-4.341 -0.746,-10.131 -1.316,-14.824l-0.264 -1.842c-0.306,-2.456 -0.526,-4.474 -0.657,-6.315 -0.04,-0.558 -0.072,-1.099 -0.097,-1.633zm7.049 1.272c0.278,0.061 0.557,0.125 0.835,0.189l0.019 0.128c0.222,1.491 0.442,3.016 0.641,4.588 0.211,8.78 0.396,17.581 0.526,26.399 -0.238,2.753 -0.526,5.448 -0.815,8.048 -0.263,2.675 -0.57,5.263 -0.746,7.675 -0.22,2.764 -0.263,5.306 -0.176,7.675 0.089,2.324 0.308,4.474 0.703,6.492 0.306,1.535 0.744,3.026 1.183,4.56l0.03 0.101 -0.008 2.852c-0.25,-0.954 -0.511,-1.855 -0.766,-2.733 -0.439,-1.578 -0.877,-3.026 -1.186,-4.649 -0.439,-2.017 -0.657,-4.21 -0.744,-6.623 -0.089,-2.369 -0.044,-4.956 0.175,-7.718 0.174,-2.413 0.482,-5.001 0.745,-7.72 0.395,-3.509 0.79,-7.237 1.054,-11.054 0.174,-3.421 0.261,-6.885 0.174,-10.35 -0.044,-3.421 -0.262,-6.798 -0.614,-10.043 -0.263,-2.544 -0.614,-5.001 -0.966,-7.369l-0.064 -0.448zm1.872 118.131l-0.063 6.154c-0.189,1.288 -0.377,2.588 -0.556,3.891 -0.314,0.423 -0.631,0.846 -0.952,1.268 0.294,-2.29 0.615,-4.581 0.949,-6.848 0.201,-1.501 0.415,-2.992 0.622,-4.465zm-11.382 11.159l0.09 -4.384c0.281,-1.188 0.563,-2.276 0.845,-3.361 0.833,-3.115 1.579,-5.879 1.403,-8.554 -0.175,-2.192 -0.92,-4.342 -1.798,-6.71l-0.112 -0.335 0.036 -2.366c0.271,0.839 0.552,1.648 0.823,2.438 0.876,2.413 1.667,4.649 1.841,6.93 0.175,2.806 -0.57,5.614 -1.404,8.815 -0.35,1.141 -0.657,2.369 -0.965,3.641 -0.289,1.244 -0.544,2.546 -0.759,3.886zm-51.378 -46.078c-0.197,-0.737 -0.388,-1.474 -0.575,-2.212 0.19,-1.893 0.396,-3.891 0.608,-5.947 0.218,-2.061 0.438,-4.166 0.657,-6.272 0.483,-4.43 0.878,-8.816 1.316,-13.377 0.308,-3.158 0.658,-6.359 0.965,-9.693l0.088 -1.096c0.833,-7.983 1.666,-16.71 1.492,-24.342 -0.129,-4.963 -0.716,-9.468 -1.275,-13.918l0.764 -0.338c0.512,4.14 1.057,8.317 1.251,12.852 -0.097,4.748 -0.233,9.665 -0.413,14.784 -0.283,3.719 -0.656,7.455 -1.03,11.05l-0.087 1.095c-0.352,3.421 -0.659,6.58 -0.965,9.693 -0.439,4.607 -0.878,9.036 -1.316,13.334 -0.219,2.148 -0.439,4.254 -0.659,6.317 -0.295,2.83 -0.577,5.564 -0.821,8.07zm-4.446 -22.124c-0.331,-2.327 -0.623,-4.656 -0.881,-6.983l0.009 -0.587c0,-2.062 0.087,-4.035 0.22,-5.922 0.218,-3.332 0.614,-6.315 1.008,-8.903l0.219 -1.491c0.175,-1.447 0.351,-2.807 0.44,-4.122 0.087,-1.273 0.087,-2.544 -0.045,-3.86 -0.132,-1.184 -0.351,-2.457 -0.614,-3.772 -0.307,-1.579 -0.614,-3.246 -0.745,-5 -0.263,-2.895 -0.045,-6.052 0.131,-9.21l0.038 -1.001 0.82 -0.434 -0.025 0.338 -0.043 1.14c-0.176,3.115 -0.396,6.229 -0.133,9.079 0.133,1.755 0.439,3.378 0.746,4.957 0.264,1.315 0.482,2.588 0.614,3.814 0.133,1.362 0.133,2.676 0.044,3.993 -0.088,1.358 -0.263,2.72 -0.438,4.21l-0.22 1.446c-0.395,2.633 -0.789,5.571 -1.053,8.861 -0.13,1.885 -0.175,3.86 -0.219,5.877 0,2.236 0.044,4.561 0.089,6.754l0.038 0.816zm-2.085 -21.454c-0.08,-1.393 -0.152,-2.784 -0.214,-4.172 0.053,-0.536 0.091,-1.047 0.111,-1.549 0.043,-1.096 0.043,-2.149 0.043,-3.201 0,-0.747 -0.043,-1.581 -0.043,-2.369 -0.044,-1.491 -0.088,-2.982 -0.088,-4.431 0,-1.095 0.044,-2.104 0.088,-3.157 0.043,-1.141 0.088,-2.281 0.088,-3.509 0,-1.14 0,-2.369 -0.045,-3.684 0,-0.727 -0.011,-1.488 -0.016,-2.271l0.778 -0.428c0.013,0.934 0.028,1.84 0.028,2.699 0.044,1.315 0.044,2.544 0.044,3.684 0,1.272 -0.044,2.412 -0.088,3.509 -0.043,1.053 -0.087,2.106 -0.087,3.157 0,1.449 0.044,2.94 0.087,4.431 0,0.788 0.044,1.579 0.044,2.369 0,1.095 0,2.105 -0.044,3.245 -0.043,1.097 -0.175,2.279 -0.35,3.641 -0.095,0.648 -0.207,1.338 -0.336,2.036zm5.173 -31.099c0.256,-0.127 0.513,-0.253 0.769,-0.378l0.096 1.414c0.131,2.237 0.176,3.991 0.263,5.702 0.043,1.623 0.131,3.201 0.218,5 0.089,1.008 0.133,2.061 0.221,3.158 0.218,2.938 0.438,6.096 0.438,8.508 0,1.535 -0.087,2.808 -0.176,3.948 -0.087,1.228 -0.176,2.325 -0.087,3.421 0.087,1.097 0.306,2.236 0.614,2.893 0.043,0.089 0.043,0.133 0.088,0.22l0.042 -0.044c0.265,-0.525 0.483,-1.842 0.703,-3.64 0.22,-1.973 0.394,-4.431 0.483,-6.93 0.043,-2.456 0.043,-4.955 0,-7.543 -0.089,-2.587 -0.176,-5.263 -0.351,-8.027 -0.171,-2.986 -0.383,-6.098 -0.597,-9.012l0.767 -0.354 0.005 0.069c0.219,2.938 0.439,6.141 0.614,9.253 0.176,2.764 0.263,5.439 0.35,8.071 0.045,2.588 0.045,5.087 0,7.543 -0.087,2.588 -0.263,5.045 -0.481,7.018 -0.22,1.885 -0.483,3.291 -0.79,3.904 -0.133,0.22 -0.263,0.395 -0.438,0.482 -0.265,0.132 -0.483,0.087 -0.746,-0.132 -0.132,-0.13 -0.263,-0.306 -0.396,-0.569 -0.306,-0.703 -0.568,-1.975 -0.657,-3.158 -0.087,-1.14 0,-2.237 0.089,-3.508 0.087,-1.142 0.174,-2.37 0.174,-3.905 0,-2.412 -0.219,-5.525 -0.439,-8.464 -0.087,-1.053 -0.131,-2.106 -0.218,-3.115 -0.089,-1.797 -0.176,-3.377 -0.22,-5.044 -0.087,-1.667 -0.131,-3.464 -0.263,-5.702l-0.075 -1.079zm19.499 115.317c-0.313,-0.458 -0.622,-0.917 -0.926,-1.378l-0.033 -0.361c-0.351,-3.727 -0.746,-7.412 -0.966,-11.314 -0.174,-2.72 -0.306,-5.527 -0.394,-8.596 -0.044,-3.027 -0.044,-6.228 -0.044,-9.738 0.044,-3.641 0.132,-7.587 0.307,-11.447 0.131,-3.552 0.307,-7.062 0.527,-10.174 0.132,-1.887 0.306,-3.773 0.481,-5.528 0.352,-3.991 0.659,-7.586 0.615,-11.447 -0.043,-2.763 -0.263,-5.701 -0.571,-8.684 -0.306,-2.984 -0.745,-6.009 -1.139,-9.036l-0.044 -0.481c-0.833,-5.878 -1.623,-11.623 -1.667,-16.887 -0.043,-3.289 0.175,-6.359 0.438,-9.693 0.176,-2.272 0.351,-4.63 0.438,-7.164 0.267,-0.082 0.534,-0.163 0.801,-0.242l-0.01 0.214c-0.089,2.674 -0.263,5 -0.439,7.237 -0.262,3.333 -0.482,6.403 -0.438,9.604 0.044,5.263 0.833,10.966 1.622,16.842l0.089 0.483c0.394,3.027 0.833,6.054 1.139,9.079 0.306,2.983 0.526,5.921 0.571,8.728 0.044,3.904 -0.265,7.501 -0.658,11.535 -0.132,1.71 -0.308,3.464 -0.439,5.483 -0.219,3.158 -0.394,6.622 -0.57,10.175 -0.132,3.86 -0.219,7.762 -0.263,11.403 -0.044,3.51 0,6.711 0.044,9.738 0.087,2.982 0.219,5.832 0.395,8.552 0.218,3.946 0.569,7.587 0.963,11.315l0.171 1.782zm-4.205 -6.635c-0.262,-0.446 -0.52,-0.893 -0.775,-1.341 0.04,-4.347 0.091,-8.735 0.249,-13.192 0.175,-7.105 0.525,-14.341 0.79,-20.876 0.131,-2.633 0.262,-5.132 0.349,-7.456 0.176,-4.036 0.308,-7.545 0.352,-10.702 0,-3.159 -0.044,-5.965 -0.219,-8.684 -0.176,-3.115 -0.57,-6.141 -0.966,-9.386 -0.262,-2.237 -0.525,-4.65 -0.789,-7.325 -0.35,-3.288 -0.614,-6.929 -0.789,-10.922 -0.176,-3.726 -0.307,-7.762 -0.307,-12.017 -0.044,-3.377 0,-6.842 0,-10.306l0.015 -1.999c0.264,-0.092 0.528,-0.182 0.792,-0.271l-0.017 2.27c0,3.464 -0.044,6.929 0,10.306 0,4.211 0.13,8.246 0.306,12.017 0.176,3.948 0.439,7.589 0.789,10.879 0.219,2.587 0.528,4.999 0.79,7.281 0.395,3.245 0.789,6.228 0.965,9.428 0.175,2.72 0.22,5.57 0.22,8.729 -0.045,3.201 -0.176,6.666 -0.352,10.745 -0.086,2.325 -0.218,4.825 -0.351,7.456 -0.263,6.536 -0.613,13.772 -0.788,20.833 -0.174,4.916 -0.219,9.79 -0.264,14.533zm-3.595 -6.579c-0.284,-0.56 -0.563,-1.121 -0.837,-1.683 -0.011,-0.444 -0.021,-0.896 -0.041,-1.358 0,-2.369 -0.045,-4.913 0,-7.807 0.087,-2.895 0.174,-6.097 0.439,-9.737 0.131,-2.369 0.349,-4.869 0.569,-7.412 0.439,-5.614 0.922,-11.624 1.009,-16.973 0.088,-4.958 -0.176,-9.431 -0.395,-13.861 -0.131,-2.631 -0.306,-5.264 -0.35,-8.025 -0.132,-3.421 -0.088,-7.061 -0.088,-10.745 0,-4.255 0,-8.509 -0.131,-12.677 -0.133,-3.597 -0.352,-7.105 -0.703,-10.393 -0.186,-2.077 -0.398,-4.079 -0.627,-5.993l0.746 -0.278c0.248,1.964 0.479,4.027 0.671,6.182 0.307,3.333 0.57,6.842 0.701,10.439 0.132,4.167 0.132,8.465 0.132,12.72 0,3.64 -0.043,7.279 0.088,10.745 0.044,2.719 0.219,5.35 0.35,7.981 0.22,4.474 0.483,8.904 0.396,13.905 -0.089,5.394 -0.57,11.402 -1.01,17.017 -0.219,2.587 -0.438,5.131 -0.57,7.412 -0.263,3.639 -0.35,6.842 -0.439,9.737 -0.044,2.85 0,5.394 0,7.763 0.045,0.963 0.045,1.929 0.089,2.894l0.001 0.147zm8.602 -109.791l0.782 -0.202c0.052,1.496 0.134,2.886 0.264,4.277 0.131,1.885 0.439,3.815 0.921,6.14 0.219,1.227 0.57,2.587 0.877,4.079 0.216,0.927 0.442,1.891 0.667,2.886 0.003,1.244 0.003,2.496 0,3.755 -0.439,-2.283 -0.943,-4.454 -1.412,-6.466 -0.352,-1.447 -0.659,-2.807 -0.922,-4.078 -0.483,-2.369 -0.745,-4.342 -0.921,-6.272 -0.124,-1.337 -0.205,-2.673 -0.256,-4.119zm3.487 25.651c-0.016,2.019 -0.039,4.061 -0.07,6.125 -0.087,-1.436 -0.209,-2.781 -0.397,-4.06 -0.22,-1.491 -0.439,-2.853 -0.701,-4.079 -0.265,-1.142 -0.485,-2.194 -0.704,-3.115 -0.262,-1.052 -0.525,-1.929 -0.789,-2.676 -0.218,-0.657 -0.394,-1.227 -0.57,-1.623 -0.176,-0.263 -0.263,-0.438 -0.352,-0.481 0,0 -0.086,0.087 -0.173,0.307 -0.176,0.263 -0.308,0.744 -0.396,1.403l-0.045 0.131c-0.13,0.746 -0.174,1.667 -0.13,2.807 0,1.053 0.087,2.281 0.219,3.685 0.176,1.227 0.352,2.631 0.57,4.036 0.264,1.884 0.57,3.814 0.745,5.7 0.176,2.063 0.263,3.993 0.307,5.789 0,0.966 0.045,1.843 0.089,2.72 0.087,1.14 0.176,2.193 0.306,3.114 0.133,0.966 0.308,1.843 0.527,2.588 0.176,0.614 0.351,1.097 0.483,1.403 0.262,-0.877 0.438,-3.245 0.614,-6.052l0.087 -1.096c0.05,-0.716 0.101,-1.454 0.148,-2.202 -0.08,3.287 -0.18,6.635 -0.3,10.054 -0.037,0.062 -0.074,0.118 -0.111,0.174 -0.22,0.132 -0.438,0.175 -0.658,0.043 -0.132,-0.043 -0.263,-0.176 -0.352,-0.351 -0.219,-0.35 -0.481,-1.008 -0.657,-1.753 -0.22,-0.79 -0.396,-1.667 -0.569,-2.719 -0.132,-0.922 -0.22,-1.975 -0.308,-3.159 -0.044,-0.834 -0.044,-1.754 -0.087,-2.764 -0.044,-1.754 -0.133,-3.683 -0.309,-5.745 -0.173,-1.798 -0.481,-3.728 -0.744,-5.614 -0.219,-1.448 -0.395,-2.85 -0.527,-4.122 -0.175,-1.404 -0.263,-2.632 -0.263,-3.729 -0.044,-1.183 0.043,-2.148 0.132,-2.938l0.044 -0.132c0.132,-0.745 0.306,-1.271 0.481,-1.665 0.308,-0.483 0.659,-0.747 1.01,-0.659 0.351,0.043 0.657,0.35 0.92,0.877 0.176,0.439 0.396,1.009 0.658,1.754 0.219,0.746 0.484,1.623 0.747,2.718 0.219,0.879 0.482,1.93 0.701,3.116 0.144,0.693 0.287,1.426 0.424,2.19zm12.088 116.663c-0.24,-0.228 -0.479,-0.457 -0.716,-0.686l0.089 -0.669c0.466,-3.121 0.889,-6.12 1.311,-8.881l-0.095 5.961c-0.144,0.997 -0.287,2.014 -0.426,3.053l-0.163 1.222zm-4.206 -4.204c-0.228,-0.239 -0.455,-0.479 -0.681,-0.72 0.171,-1.609 0.364,-3.299 0.576,-5.158l0.044 -0.394c0.615,-5.351 1.361,-12.193 1.317,-20.484 -0.045,-6.534 -0.657,-13.947 -1.185,-20.964 -0.176,-2.061 -0.306,-4.078 -0.482,-6.097 -0.395,-5.965 -0.701,-11.271 -0.92,-16.052 -0.089,-2.017 -0.176,-3.947 -0.308,-5.834 -0.133,-2.412 -0.264,-4.736 -0.395,-6.929 -0.219,-3.333 -0.439,-6.447 -0.57,-9.517 -0.132,-3.815 -0.176,-7.544 -0.218,-11.272 0,-1.272 -0.045,-2.499 -0.045,-3.729 0,-1.754 -0.044,-3.509 -0.088,-5.218 -0.043,-3.29 -0.132,-6.535 -0.132,-9.43 0,-2.193 0.045,-4.343 0.132,-6.624 0.044,-2.235 0.175,-4.561 0.306,-7.236l0.089 -1.667c0.045,-0.859 0.091,-1.747 0.136,-2.661 0.265,-0.042 0.531,-0.081 0.797,-0.121 -0.048,0.973 -0.097,1.917 -0.145,2.826l-0.087 1.667c-0.131,2.676 -0.262,5 -0.306,7.236 -0.088,2.193 -0.132,4.298 -0.132,6.58 0,3.07 0.087,6.228 0.132,9.43 0.044,1.709 0.044,3.464 0.088,5.175 0,1.273 0.043,2.5 0.043,3.772 0.044,3.728 0.089,7.457 0.219,11.228 0.132,3.07 0.351,6.183 0.527,9.517 0.176,2.193 0.306,4.474 0.438,6.93 0.088,1.842 0.22,3.816 0.307,5.877 0.22,4.737 0.482,10 0.921,16.008 0.132,1.93 0.307,3.993 0.483,6.096 0.526,6.975 1.14,14.432 1.184,21.009 0.043,8.335 -0.745,15.22 -1.36,20.571l-0.043 0.394c-0.241,2.131 -0.455,4.019 -0.642,5.791zm-3.814 -4.198c-0.247,-0.286 -0.494,-0.573 -0.738,-0.861l0.018 -0.424c0.439,-9.036 0.79,-16.975 0.921,-25.263 0.043,-5.175 0.043,-10.482 -0.131,-15.746 -0.131,-5.175 -0.351,-10.307 -0.703,-15.22 -0.262,-3.99 -0.613,-7.763 -0.92,-11.404 -0.235,-2.418 -0.452,-4.777 -0.635,-7.075 0.083,-5.383 0.157,-10.764 0.22,-16.145 -0.02,2.51 -0.006,5.09 0.064,7.782 0.176,4.827 0.614,9.914 1.097,15.395 0.35,3.684 0.701,7.501 0.964,11.403 0.351,4.914 0.57,10.045 0.702,15.264 0.175,5.264 0.175,10.571 0.133,15.79 -0.133,8.289 -0.484,16.228 -0.922,25.263 -0.025,0.412 -0.048,0.826 -0.07,1.241zm5.947 -136.376l0.789 -0.077 0 2.888c0,2.499 0,5.351 0,8.728 -0.044,3.07 -0.044,6.227 -0.131,9.167 -0.132,4.956 -0.308,9.297 -0.527,13.114l-0.087 2.279c-0.089,2.195 -0.176,4.211 -0.219,6.185 0,1.974 0.043,3.904 0.219,5.965 0.176,2.193 0.482,4.474 0.79,6.667 0.263,2.016 0.568,3.946 0.701,5.746 0.176,1.885 0.22,3.595 0.22,5.175 0,1.621 -0.089,3.07 -0.133,4.474l0 0.174c-0.131,2.72 -0.263,5.264 0,8.333 0.133,1.667 0.396,3.51 0.746,5.834 0.307,2.105 0.658,4.605 1.008,7.72 0.05,0.382 0.098,0.775 0.147,1.177 -0.043,1.969 -0.086,3.935 -0.127,5.898 -0.252,-2.511 -0.522,-4.897 -0.764,-6.987 -0.396,-3.159 -0.747,-5.614 -1.053,-7.677 -0.352,-2.368 -0.614,-4.211 -0.745,-5.876 -0.265,-3.114 -0.132,-5.702 0,-8.465l0 -0.176c0.044,-1.402 0.131,-2.851 0.131,-4.429 0,-1.535 -0.044,-3.245 -0.22,-5.132 -0.131,-1.754 -0.395,-3.684 -0.701,-5.657 -0.308,-2.238 -0.615,-4.562 -0.79,-6.755 -0.176,-2.061 -0.219,-3.992 -0.219,-6.009 0.043,-2.016 0.132,-4.035 0.219,-6.228l0.089 -2.281c0.218,-3.815 0.393,-8.158 0.525,-13.069 0.087,-2.94 0.087,-6.097 0.132,-9.167 0,-2.808 0,-5.964 0,-8.728l0 -2.811zm9.254 151.056l-0.46 -0.378c0.037,-2.114 -0.081,-4.249 -0.197,-6.596 -0.133,-2.15 -0.265,-4.518 -0.308,-7.149 -0.044,-4.43 0.175,-9.736 0.439,-15.131 0.045,-1.71 0.132,-3.421 0.176,-5.132 0.13,-2.719 0.218,-5.439 0.306,-8.158 0.132,-4.298 0.264,-8.596 0.483,-12.72 0.131,-2.763 0.306,-5.482 0.438,-8.069 0.263,-3.815 0.483,-7.456 0.572,-10.527 0.086,-2.587 0.043,-4.824 -0.045,-6.885 -0.088,-2.019 -0.22,-3.817 -0.351,-5.527 -0.176,-1.797 -0.308,-3.553 -0.483,-5.35 -0.131,-1.625 -0.263,-3.29 -0.439,-5.308 -0.175,-2.061 -0.351,-4.429 -0.481,-7.061 -0.131,-2.588 -0.22,-5.438 -0.176,-8.378 0,-2.893 0.176,-5.92 0.306,-8.816 0.131,-3.025 0.308,-5.92 0.308,-8.464 0,-3.947 -0.35,-6.929 -0.834,-10.789 -0.087,-0.921 -0.219,-1.931 -0.351,-3.071 -0.255,-2.412 -0.542,-5.16 -0.807,-8.014 0.263,-0.005 0.528,-0.008 0.795,-0.01 0.264,2.857 0.548,5.577 0.802,7.937 0.131,1.053 0.263,2.105 0.351,3.071 0.483,3.902 0.833,6.885 0.833,10.876 0,2.5 -0.176,5.439 -0.307,8.508 -0.131,2.895 -0.307,5.922 -0.307,8.772 -0.043,2.94 0.044,5.746 0.176,8.334 0.131,2.544 0.306,4.956 0.482,7.062 0.176,1.929 0.307,3.639 0.439,5.264 0.175,1.797 0.307,3.508 0.481,5.349 0.133,1.711 0.265,3.509 0.352,5.57 0.088,2.062 0.133,4.343 0.044,6.974 -0.087,3.114 -0.307,6.71 -0.57,10.57 -0.132,2.588 -0.307,5.307 -0.439,7.982 -0.22,4.211 -0.351,8.466 -0.483,12.764 -0.088,2.675 -0.175,5.438 -0.306,8.158 -0.043,1.711 -0.132,3.421 -0.219,5.131 -0.22,5.395 -0.44,10.658 -0.396,15.088 0.044,2.588 0.176,4.912 0.307,7.105 0.119,2.374 0.239,4.571 0.196,6.749l-0.327 0.269zm1.638 -151.522c0.263,0.005 0.526,0.01 0.789,0.016 0.14,0.976 0.284,1.948 0.424,2.911 0.352,2.105 0.657,4.166 0.877,6.139 0.308,2.412 0.438,4.694 0.481,6.93 0.045,2.236 0.045,4.474 0,6.754 0,2.15 -0.085,4.386 -0.129,6.666 -0.044,2.589 -0.089,5.219 -0.132,7.895 -0.044,2.501 -0.044,5.001 0,7.588 0,2.544 0.088,5.132 0.261,7.852 0.133,2.06 0.309,4.166 0.528,6.358 0.264,3.509 0.614,7.15 0.702,10.965 0.176,5.044 0.043,10.307 -0.088,14.913l-0.089 2.764c-0.087,2.588 -0.13,4.823 -0.13,7.017 0,2.193 0,4.342 0.043,6.711 0.044,1.271 0.044,2.631 0.087,4.033 0.045,3.817 0.133,7.984 0.133,12.193 0,2.282 -0.044,4.87 -0.044,7.37 -0.044,3.376 -0.089,6.578 -0.044,9.209 0.044,1.58 0.088,2.983 0.132,4.299 0.087,2.497 0.173,4.868 0.093,8.148 -0.27,0.247 -0.54,0.492 -0.813,0.738l0.018 -0.553c0.088,-3.376 0,-5.789 -0.088,-8.289 -0.044,-1.36 -0.087,-2.72 -0.131,-4.298 -0.044,-2.676 0,-5.878 0.044,-9.299 0,-2.279 0.043,-4.692 0.043,-7.325 0,-4.385 -0.087,-8.464 -0.131,-12.193 -0.045,-1.402 -0.045,-2.762 -0.089,-4.033 -0.043,-2.369 -0.043,-4.518 -0.043,-6.711 0,-2.194 0.043,-4.429 0.132,-7.017l0.088 -2.764c0.132,-4.606 0.263,-9.869 0.087,-14.913 -0.087,-3.728 -0.395,-7.412 -0.701,-10.92 -0.22,-2.15 -0.396,-4.255 -0.527,-6.359 -0.175,-2.676 -0.218,-5.308 -0.263,-7.896 -0.044,-2.587 -0.044,-5.087 0,-7.631 0.045,-2.675 0.088,-5.306 0.131,-7.894 0.088,-2.282 0.132,-4.474 0.132,-6.624 0.044,-2.28 0.087,-4.474 0,-6.709 -0.044,-2.238 -0.175,-4.474 -0.483,-6.888 -0.22,-1.973 -0.526,-4.034 -0.832,-6.139 -0.159,-0.997 -0.318,-2.003 -0.468,-3.014zm2.607 0.079c0.265,0.012 0.53,0.025 0.796,0.04 0.053,0.944 0.124,1.964 0.221,3.115 0.089,1.315 0.22,2.718 0.396,4.253 0.438,4.43 1.01,10 1.184,16.492 0.087,4.648 0,9.693 -0.089,14.649 -0.085,4.341 -0.174,8.596 -0.129,12.324 0.087,4.868 0.438,8.904 0.745,12.587 0.219,2.237 0.394,4.385 0.481,6.492 0.176,3.729 0.132,7.412 0.089,11.096 -0.044,1.798 -0.089,3.641 -0.089,5.615 0,2.807 0.089,5.613 0.309,8.332 0.044,0.683 0.102,1.359 0.172,2.026l-0.049 4.814c-0.439,-2.106 -0.725,-4.413 -0.913,-6.752 -0.22,-2.764 -0.307,-5.613 -0.307,-8.42 0,-1.798 0.044,-3.729 0.087,-5.615 0.044,-3.684 0.087,-7.367 -0.087,-11.053 -0.089,-2.061 -0.265,-4.166 -0.483,-6.447 -0.307,-3.685 -0.659,-7.72 -0.745,-12.675 -0.044,-3.728 0.042,-7.983 0.131,-12.368 0.087,-4.912 0.175,-9.957 0.087,-14.561 -0.176,-6.448 -0.745,-12.018 -1.184,-16.491 -0.174,-1.58 -0.306,-2.983 -0.394,-4.211 -0.101,-1.198 -0.176,-2.256 -0.229,-3.242zm-45.693 48.899c0.133,0.089 0.264,0.176 0.396,0.308 0.263,0.262 0.481,0.569 0.701,1.008 0.132,0.351 0.263,0.79 0.307,1.272 0.043,0.527 0,1.096 -0.087,1.71 -0.044,0.658 -0.175,1.316 -0.351,2.019l-0.219 1.052c-0.264,1.096 -0.527,2.413 -0.877,4.472 -0.176,1.053 -0.395,2.194 -0.571,3.335 -0.307,1.929 -0.57,3.77 -0.79,4.648 -0.087,0.352 -0.175,0.571 -0.219,0.703 -0.262,0.35 -0.482,0.35 -0.745,0.043 -0.044,-0.086 -0.089,-0.218 -0.132,-0.351 -0.087,-0.35 -0.087,-1.008 -0.087,-1.754 0.043,-0.614 0.087,-1.229 0.13,-1.93 0.045,-1.053 0.089,-2.279 0.133,-3.728 0,-1.008 0,-2.148 0,-3.334 -0.044,-1.621 -0.044,-3.245 0,-4.561 0.043,-1.139 0.132,-2.105 0.263,-2.806 0.131,-0.833 0.351,-1.405 0.57,-1.754 0.044,-0.089 0.131,-0.176 0.176,-0.263 0.219,-0.22 0.482,-0.308 0.745,-0.308 0.219,0 0.439,0.088 0.657,0.219zm-0.174 0.877c-0.089,-0.087 -0.176,-0.176 -0.264,-0.219 -0.087,-0.044 -0.175,-0.088 -0.219,-0.088 -0.044,0 -0.131,0.044 -0.176,0.088 -0.044,0.043 -0.044,0.088 -0.087,0.132 -0.175,0.263 -0.307,0.745 -0.438,1.447 -0.133,0.702 -0.22,1.58 -0.263,2.675 -0.045,1.36 -0.045,2.983 0,4.561 0,1.186 0,2.326 0,3.334 -0.045,1.492 -0.089,2.719 -0.176,3.772l0 0.702c0.087,-0.702 0.219,-1.447 0.35,-2.237 0.176,-1.184 0.352,-2.412 0.527,-3.332 0.352,-2.019 0.657,-3.377 0.92,-4.518 0.044,-0.352 0.133,-0.658 0.22,-1.053 0.132,-0.703 0.263,-1.315 0.35,-1.93 0.045,-0.57 0.089,-1.096 0.045,-1.535 -0.045,-0.439 -0.132,-0.746 -0.263,-1.053 -0.132,-0.307 -0.308,-0.57 -0.526,-0.746z"/>
   <path class="fil3" d="M57.682 20.57c-0.942,0.035 -1.876,0.084 -2.803,0.148 -0.034,-2.643 -0.071,-5.281 -0.114,-7.913 1.02,0.337 1.992,0.762 2.917,1.273 2.243,-1.235 4.756,-1.961 7.54,-2.182 0.094,3.087 0.184,6.189 0.267,9.309 -2.543,-0.325 -5.145,-0.537 -7.807,-0.635zm-5.143 0.339c-4.096,0.392 -8.05,1.07 -11.858,2.035 0.004,-3.37 0.002,-6.74 -0.008,-10.111 4.332,-1.069 8.207,-1.288 11.624,-0.657 0.089,2.895 0.17,5.805 0.242,8.733zm-14.175 2.662c-4.952,1.429 -9.652,3.36 -14.097,5.794 0.06,-3.266 0.113,-6.517 0.158,-9.761 4.994,-2.768 9.592,-4.799 13.793,-6.09 0.067,3.306 0.117,6.655 0.146,10.057zm-17.161 7.576c-0.416,0.257 -0.829,0.517 -1.24,0.783 -0.155,6.682 -0.001,14.148 0.471,22.4 -0.152,3.462 -0.323,7.015 -0.514,10.669 -0.342,8.069 -0.604,15.905 -0.798,23.552 -7.113,-4.228 -9.554,-24.545 -7.273,-61.007 3.31,-2.317 6.482,-4.377 9.518,-6.182 -0.037,3.184 -0.091,6.442 -0.164,9.785zm1.613 50.37c0.285,2.512 0.591,5.077 0.919,7.693 -0.384,0.084 -0.759,0.135 -1.125,0.159 0.066,-2.615 0.135,-5.232 0.206,-7.852zm44.995 -69.683c3.173,0.092 6.659,0.769 10.462,2.034 0.082,3.381 0.162,6.765 0.236,10.152 -3.395,-1.061 -6.912,-1.881 -10.553,-2.461 -0.043,-3.243 -0.091,-6.484 -0.145,-9.725zm13.79 3.258c3.362,1.349 6.949,3.115 10.762,5.299l0.16 9.777c-3.466,-2.009 -7.089,-3.703 -10.871,-5.084 -0.015,-3.352 -0.033,-6.683 -0.051,-9.992zm13.87 7.141c2.598,1.59 5.294,3.359 8.089,5.311 2.331,37.869 -0.367,58.323 -8.121,61.425 -0.202,-13.317 -0.236,-27.351 -0.177,-41.089 0.22,-5.738 0.268,-11.054 0.14,-15.95l-0.031 -0.02c0.03,-3.272 0.064,-6.503 0.1,-9.677zm-2.092 67.148c-0.548,0.013 -1.117,-0.042 -1.707,-0.171 0.577,-4.673 1.089,-9.181 1.536,-13.524 0.061,4.577 0.118,9.144 0.171,13.695z"/>
   <path class="fil4" d="M57.682 151.095c18.421,-16.535 28.771,-36.667 34.562,-57.763 6.008,-21.885 7.148,-44.999 7.191,-66.534 -6.447,-3.333 -12.849,-5.877 -19.253,-7.676 -7.544,-2.104 -15.043,-3.157 -22.5,-3.157 -7.456,0 -14.957,1.053 -22.5,3.157 -6.359,1.799 -12.763,4.343 -19.21,7.676 0,21.535 1.184,44.649 7.149,66.534 5.789,21.096 16.183,41.228 34.561,57.763l0 0zm0 -149.428c8.859,0 17.631,1.184 26.403,3.641 8.684,2.455 17.369,6.096 26.008,10.964l3.597 2.017 0.044 4.167c0.132,23.728 -0.833,49.694 -7.675,74.605 -6.973,25.482 -19.956,49.648 -43.859,68.991l-4.518 3.684 -4.518 -3.684c-23.859,-19.343 -36.885,-43.509 -43.859,-68.991 -6.799,-24.911 -7.763,-50.877 -7.631,-74.605l0 -4.167 3.64 -2.017c8.641,-4.868 17.324,-8.509 26.008,-10.964 8.772,-2.457 17.544,-3.641 26.36,-3.641l0 0z"/>
   <path class="fil5" d="M57.682 164.385c-19.123,-16.535 -31.492,-40.043 -35.22,-68.947 7.721,23.464 19.475,41.272 35.22,53.421 15.79,-12.149 27.544,-29.957 35.263,-53.421 -3.728,28.904 -16.141,52.412 -35.263,68.947l0 0z"/>
   <path class="fil6" d="M57.682 169.736l-4.518 -3.684c-23.859,-19.343 -36.885,-43.509 -43.859,-68.991 -1.096,-4.035 -2.061,-8.115 -2.851,-12.237 0.089,-0.088 0.176,-0.132 0.307,-0.219 3.771,10.657 8.027,20.569 12.852,29.78l-0.527 -2.894c7.719,18.815 20.57,36.008 38.596,51.579 18.027,-15.571 30.921,-32.764 38.64,-51.579l-0.57 2.894c4.824,-9.211 9.123,-19.123 12.894,-29.78 0.089,0.087 0.22,0.131 0.307,0.219 -0.833,4.122 -1.799,8.202 -2.894,12.237 -6.973,25.482 -19.956,49.648 -43.859,68.991l-4.518 3.684z"/>
   <path class="fil7" d="M12.595 79.079c-1.711,-31.141 -4.211,-47.369 -2.851,-56.886 14.692,-7.588 30.657,-13.027 47.938,-16.404 17.324,3.377 33.289,8.816 47.937,16.404 1.362,9.517 -1.095,25.745 -2.849,56.886 6.052,-14.781 10.569,-33.07 10.525,-61.01 -15.175,-9.912 -33.727,-15.35 -55.613,-16.402 -21.886,1.052 -40.395,6.49 -55.57,16.402 -0.087,27.94 4.431,46.229 10.483,61.01l0 0z"/>
   <path class="fil6" d="M8.822 22.587c2.588,24.256 2.193,45.79 14.212,70.439 -5.922,-21.798 -7.062,-44.825 -7.062,-66.228 6.447,-3.333 12.851,-5.877 19.21,-7.676 7.543,-2.104 15.044,-3.157 22.5,-3.157 7.457,0 14.956,1.053 22.5,3.157 6.404,1.799 12.806,4.343 19.253,7.676 -0.043,21.403 -1.183,44.43 -7.105,66.228 12.063,-24.649 11.668,-46.183 14.255,-70.439l-25.263 -10.526 -23.64 -0.218 -23.64 0.218 -25.22 10.526z"/>
   <path class="fil8" d="M54.918 154.167c-18.069,-16.23 -29.429,-36.448 -35.788,-59.739 -6.01,-21.929 -7.281,-44.998 -7.325,-67.63l0 -2.5 2.237 -1.184c6.404,-3.29 13.114,-6.053 20.043,-7.983 7.675,-2.149 15.615,-3.288 23.597,-3.288 8.026,0 15.921,1.139 23.64,3.288 6.929,1.93 13.597,4.693 20,7.983l2.238 1.184 0 2.5c0,22.632 -1.317,45.701 -7.281,67.63 -6.404,23.291 -17.764,43.509 -35.834,59.739l-2.763 2.499 -2.764 -2.499zm-49.078 -133.466l-0.044 1.799c-0.131,24.648 0.965,49.605 7.544,73.463 7.324,26.799 20.745,49.299 42.455,66.887l1.887 1.535 1.93 -1.535c21.71,-17.588 35.132,-40.088 42.455,-66.887 6.535,-23.858 7.676,-48.815 7.501,-73.463l0 -1.799 -1.534 -0.833c-7.939,-4.473 -16.317,-8.114 -25.089,-10.569 -8.245,-2.281 -16.711,-3.51 -25.263,-3.51 -8.553,0 -17.017,1.229 -25.264,3.51 -8.772,2.455 -17.148,6.096 -25.087,10.569l-1.491 0.833z"/>
   <path class="fil9" d="M81.146 124.735c-5.701,9.913 -13.025,19.211 -22.324,27.589l-1.14 1.009 -1.097 -1.009c-9.342,-8.378 -16.623,-17.676 -22.324,-27.589 -5.701,-9.868 -9.781,-20.305 -12.719,-30.964 -3.026,-11.051 -4.825,-22.411 -5.877,-33.683 -1.053,-11.273 -1.36,-22.5 -1.36,-33.29l0 -1.008 0.921 -0.439c3.245,-1.711 6.491,-3.202 9.782,-4.518 3.244,-1.271 6.533,-2.411 9.735,-3.289 3.86,-1.096 7.676,-1.886 11.492,-2.413 3.815,-0.57 7.631,-0.833 11.447,-0.833 3.816,0 7.632,0.263 11.447,0.833 3.86,0.527 7.675,1.317 11.492,2.413 3.245,0.878 6.49,2.018 9.78,3.289 3.29,1.316 6.535,2.807 9.78,4.518l0.877 0.439 0 1.008c0,10.79 -0.262,22.017 -1.315,33.29 -1.053,11.272 -2.85,22.632 -5.876,33.683 -2.939,10.659 -7.018,21.096 -12.721,30.964l0 0zm-23.464 24.124c8.552,-7.895 15.307,-16.535 20.615,-25.746 5.525,-9.606 9.516,-19.78 12.367,-30.219 2.983,-10.833 4.738,-22.017 5.791,-33.114 1.008,-10.789 1.314,-21.579 1.314,-31.974 -2.894,-1.447 -5.745,-2.762 -8.596,-3.902 -3.114,-1.228 -6.273,-2.326 -9.429,-3.203 -3.685,-1.008 -7.37,-1.798 -11.053,-2.323 -3.684,-0.527 -7.369,-0.746 -11.009,-0.746 -3.641,0 -7.28,0.219 -10.964,0.746 -3.685,0.525 -7.369,1.315 -11.098,2.323 -3.113,0.877 -6.271,1.975 -9.43,3.203 -2.807,1.14 -5.7,2.455 -8.596,3.902 0.043,10.395 0.351,21.185 1.36,31.974 1.009,11.097 2.807,22.281 5.745,33.114 2.896,10.439 6.886,20.613 12.413,30.219 5.307,9.211 12.017,17.851 20.57,25.746l0 0zm12.981 -144.648c-4.298,-0.614 -8.64,-0.922 -12.981,-0.878 -4.299,-0.044 -8.64,0.264 -12.982,0.878 -4.299,0.614 -8.641,1.491 -12.939,2.719 -4.254,1.183 -8.553,2.676 -12.807,4.474 -4.298,1.797 -8.596,3.903 -12.807,6.271l-2.807 1.58 0 3.245c-0.088,11.754 0.132,24.123 1.184,36.667 1.096,12.499 3.027,25.131 6.404,37.456 3.421,12.586 8.376,24.867 15.394,36.359 7.018,11.491 16.097,22.236 27.895,31.798l3.465 2.806 3.464 -2.806c11.799,-9.562 20.922,-20.307 27.939,-31.798 7.017,-11.492 11.931,-23.773 15.396,-36.359 3.377,-12.325 5.306,-24.957 6.359,-37.456 1.096,-12.544 1.316,-24.913 1.227,-36.667l0 -3.245 -2.807 -1.58c-4.254,-2.368 -8.507,-4.474 -12.805,-6.271 -4.299,-1.798 -8.553,-3.291 -12.852,-4.474 -4.298,-1.228 -8.597,-2.105 -12.94,-2.719l0 0zm-12.981 -4.211c4.518,0 8.992,0.307 13.465,0.921 4.474,0.614 8.903,1.579 13.376,2.807 4.431,1.228 8.816,2.807 13.203,4.605 4.385,1.842 8.771,4.035 13.157,6.492l4.474 2.5 0 5.131c0.088,11.93 -0.132,24.43 -1.185,36.973 -1.095,12.676 -3.069,25.482 -6.534,38.071 -3.509,12.895 -8.552,25.438 -15.746,37.236 -7.193,11.799 -16.535,22.807 -28.639,32.632l-5.571 4.472 -5.526 -4.472c-12.106,-9.825 -21.448,-20.833 -28.641,-32.632 -7.192,-11.798 -12.237,-24.341 -15.789,-37.236 -3.421,-12.589 -5.394,-25.395 -6.491,-38.071 -1.097,-12.543 -1.271,-25.043 -1.229,-36.973l0.045 -5.131 4.473 -2.5c4.343,-2.457 8.728,-4.65 13.113,-6.492 4.388,-1.798 8.818,-3.377 13.247,-4.605 4.43,-1.228 8.904,-2.193 13.377,-2.807 4.429,-0.614 8.947,-0.921 13.421,-0.921l0 0z"/>
  </g>
 </g>
</svg>
