<?xml version="1.0" encoding="UTF-8"?>
<!DOCTYPE svg PUBLIC "-//W3C//DTD SVG 1.1//EN" "http://www.w3.org/Graphics/SVG/1.1/DTD/svg11.dtd">
<!-- Creator: CorelDRAW -->
<svg xmlns="http://www.w3.org/2000/svg" xml:space="preserve" width="690px" height="335px" version="1.1" style="shape-rendering:geometricPrecision; text-rendering:geometricPrecision; image-rendering:optimizeQuality; fill-rule:evenodd; clip-rule:evenodd"
viewBox="0 0 325.65 158.16"
 xmlns:xlink="http://www.w3.org/1999/xlink"
 xmlns:xodm="http://www.corel.com/coreldraw/odm/2003">
 <defs>
  <style type="text/css">
   <![CDATA[
    .fil1 {fill:#F4F4F4;fill-rule:nonzero}
    .fil0 {fill:black;fill-rule:nonzero;fill-opacity:0.200000}
   ]]>
  </style>
 </defs>
 <g id="Layer_x0020_1">
  <metadata id="CorelCorpID_0Corel-Layer"/>
  <g id="_2510670458496">
   <path class="fil0" d="M36.27 14.62c-2,5.65 -7.56,2.35 -7.21,1.65 2.35,-3.64 7.69,-3.01 7.21,-1.65zm72.25 115.25l-11.28 -20.31c0,0 -12.15,-3.12 -16.67,-9.02 -1.21,-0.18 -9.72,1.39 -17.53,-10.07 -7.81,-11.46 -10.41,-13.19 -9.72,-13.54 0.7,-0.35 8.74,8.65 10.76,13.02 2.03,4.36 10.07,10.07 17.19,8.68 0,0 3.82,6.59 19.09,10.59 6.08,1.21 -1.39,-3.82 -1.39,-3.82 0,0 4,1.91 4.52,0.52 0.3,-0.81 -0.64,-1.8 -1.47,-2.48 2.33,1.6 7.55,4.81 8.76,2.13 1.56,-3.47 -19.12,-26.75 -22.57,-31.07 -1.39,-1.74 -11.97,-26.39 -17.18,-31.94 -5.21,-5.56 -20.31,-11.28 -20.66,-16.66 -0.29,-4.44 9.81,-12.29 15.6,-15.6 -3.88,1 -7.7,2.26 -11.42,3.77 -2.65,1.09 -5.22,2.35 -7.79,3.62 -2.34,1.16 -4.73,2.19 -7.35,2.46 -0.49,0.05 -0.48,-0.72 0,-0.77 2.85,-0.29 5.42,-1.57 7.94,-2.84 2.38,-1.2 4.79,-2.32 7.26,-3.31 5.17,-2.09 10.53,-3.68 15.99,-4.78 0.04,-0.01 0.08,0 0.12,0 2.86,-0.53 4.52,0 5.69,-0.52 1.39,-0.61 -5.9,-4.6 -11.46,-5.12 -5.55,-0.52 -20.31,3.82 -22.56,3.99 -2.26,0.17 -11.46,2.08 -11.46,2.08 -4.69,-0.69 -9.37,-1.73 -9.37,0 0,1.74 2.43,2.09 2.43,2.09 0,0 -5.04,2.6 -5.04,3.82 0,0.88 1.85,0.48 2.85,0.19 -1.33,0.46 -2.7,1.31 -2.85,3.1 -0.04,0.52 0.09,0.9 0.31,1.18 -1.54,1.63 -3.7,4.84 -6.21,11.15 -1.39,3.64 -10.94,11.63 -9.03,11.63 1.91,0 5.04,-2.61 5.04,-2.61 0,0 -6.25,5.56 -3.99,6.95 2.25,1.39 3.99,0 3.99,0 0,0 -1.91,1.73 -1.22,2.6 0.7,0.87 2.09,0 2.09,0 2.6,1.74 5.55,-1.91 5.55,-1.91 0,0 -4.34,6.25 -6.25,7.29 -1.91,1.05 -3.64,0.7 -2.78,2.09 0.87,1.38 4.52,0 4.52,0 0,0 -1.57,3.29 -2.43,5.2 -0.87,1.91 0,3.48 0.69,3.82 0.52,0.26 2.7,0.81 4.41,-0.46 0.49,5.57 1.52,13.34 3.71,19.56 3.86,10.93 16.7,15.97 17.75,19.09 1.04,3.13 3.29,10.94 4.34,10.59 1.04,-0.35 0.86,-3.64 0.86,-3.64 0,0 2.82,3.48 6.81,6.38 0.52,2.64 0.97,6.93 -0.58,10.23 -2.41,5.11 -6.17,8.82 -6.17,8.82 0,0 -14.76,6.13 -16.44,6.92 -1.68,0.79 -2.86,6.11 -1.97,7.2 0.59,-0.2 1.38,-2.86 2.07,-3.16 0.69,-0.29 2.17,-0.49 2.66,-1.58 0.5,-1.08 3.16,-2.27 3.16,-2.27 0,0 -2.47,1.98 -2.96,4.35 -0.49,2.36 0.59,4.83 1.09,4.73 0.49,-0.1 0.39,-2.56 0.88,-2.96 0.5,-0.39 2.27,-0.59 2.67,-1.58 0.39,-0.98 -0.1,-0.89 0.49,-2.27 0.59,-1.38 10.16,-7.99 10.36,-6.9 0.2,1.08 -5.23,7.1 -6.12,8.58 -0.88,1.48 -0.29,6.32 0.5,6.02 0.79,-0.3 0.89,-2.47 1.48,-3.06 0.59,-0.59 3.06,-1.18 3.45,-2.47 0.4,-1.28 -0.2,-2.46 0.2,-3.55 0.39,-1.08 3.06,-5.82 3.65,-6.61 0.59,-0.79 3.95,-2.46 4.83,-2.27 0.89,0.2 1.98,1.75 2.57,0.88 0.59,-0.88 1.77,-0.48 2.37,-0.78 0.59,-0.29 -1.09,-2.17 -2.86,-2.27 -1.78,-0.1 -7.5,2.96 -7.41,2.07 0.1,-0.88 3.75,-6.11 4.15,-7.4 0.28,-0.91 0.46,-5.5 1.01,-8.73 0,0 0,0.01 0.01,0.01 5.55,2.95 9.37,3.12 10.06,4.51 0.7,1.39 2.26,3.82 3.48,2.6 1.21,-1.21 0.87,-3.29 0.87,-3.29 0,0 5.65,0.94 8.44,1.03 0.33,2.55 0.37,5.82 -0.87,8.46 -2.41,5.11 -6.16,8.82 -6.16,8.82 0,0 -14.77,6.13 -16.45,6.92 -1.67,0.79 -2.86,6.12 -1.97,7.2 0.59,-0.2 1.38,-2.86 2.07,-3.16 0.69,-0.29 2.17,-0.49 2.67,-1.57 0.49,-1.09 3.15,-2.27 3.15,-2.27 0,0 -2.46,1.97 -2.96,4.34 -0.49,2.36 0.6,4.83 1.09,4.73 0.49,-0.09 0.39,-2.56 0.89,-2.96 0.49,-0.39 2.27,-0.59 2.66,-1.57 0.4,-0.99 -0.1,-0.89 0.49,-2.27 0.6,-1.39 10.17,-8 10.36,-6.91 0.2,1.08 -5.22,7.1 -6.11,8.58 -0.89,1.48 -0.3,6.32 0.49,6.02 0.79,-0.29 0.89,-2.46 1.48,-3.06 0.59,-0.59 3.06,-1.18 3.45,-2.46 0.4,-1.29 -0.19,-2.47 0.2,-3.56 0.4,-1.08 3.06,-5.82 3.65,-6.61 0.59,-0.79 3.95,-2.46 4.84,-2.27 0.88,0.2 1.97,1.75 2.56,0.88 0.59,-0.88 1.78,-0.48 2.37,-0.78 0.59,-0.29 -1.09,-2.17 -2.86,-2.27 -1.78,-0.1 -7.5,2.96 -7.4,2.08 0.1,-0.89 3.75,-6.12 4.14,-7.4 0.27,-0.89 0.45,-5.2 0.96,-8.4 2.34,0.75 5.49,1.98 10.69,0.71l0 0.52c0,0 7.46,2.95 10.58,4.86 3.13,1.91 6.43,6.95 11.46,7.29 -0.87,0.35 7.64,4 9.03,3.3 1.39,-0.69 -9.03,-11.11 -9.03,-11.11z"/>
   <path class="fil0" d="M134.75 51.14c-0.15,0.51 -0.29,0.85 -0.39,1.06 -1.77,3.87 -3.66,6.82 -5.66,8.84 -1.53,1.56 -2.74,2.76 -3.64,3.59 -0.92,0.86 -1.53,1.38 -1.86,1.59l-9.78 6.16c-1.66,-0.44 -3.62,-1.23 -5.85,-2.35 -2.24,-1.13 -4.48,-2.57 -6.71,-4.32 -2.25,-1.76 -4.32,-3.8 -6.22,-6.15 -1.9,-2.34 -3.34,-4.94 -4.34,-7.8 -0.76,-2.24 -1.35,-4.36 -1.77,-6.4 -0.43,-2.04 -0.63,-4.07 -0.6,-6.12 0,-2.52 0.35,-5.1 1.04,-7.72 0.68,-2.63 1.63,-5.16 2.84,-7.59 1.21,-2.44 2.65,-4.67 4.33,-6.69 1.66,-2.04 3.47,-3.73 5.44,-5.08l9.73 -6.28c0.81,0.24 1.81,0.59 2.98,1.05 1.17,0.47 2.47,1.1 3.89,1.89 1.44,0.78 2.95,1.75 4.56,2.89 1.58,1.14 3.2,2.49 4.83,4.07 0.92,0.93 1.74,1.89 2.5,2.88l-8.73 4.3c-1.31,-1.67 -2.66,-3.09 -4.02,-4.27 -1.38,-1.17 -2.85,-2.19 -4.39,-3.01 -1.55,-0.84 -3.21,-1.51 -4.97,-2.05 -1.77,-0.54 -3.73,-1.01 -5.86,-1.38l-0.05 0.04c-2.51,1.46 -4.43,5.34 -5.73,11.63 -0.88,4.22 -1.32,8.01 -1.32,11.36 0,1.86 0.18,3.82 0.57,5.89 0.37,2.08 1,4.15 1.86,6.21 0.87,2.07 2,4.09 3.4,6.05 1.4,1.98 3.13,3.81 5.18,5.47 2.05,1.68 4.45,3.13 7.2,4.39 2.74,1.25 5.9,2.21 9.47,2.86 2.72,-2.41 4.08,-6.19 4.08,-11.35 0,-2.37 -0.3,-4.6 -0.88,-6.68l8.87 3.02zm10.36 21.24c0.44,-3.44 0.76,-6.57 0.97,-9.39 0.22,-2.81 0.33,-5.35 0.33,-7.64 0,-1.84 -0.01,-3.56 -0.05,-5.17 -0.03,-1.61 -0.1,-3.13 -0.2,-4.58 -0.08,-1.45 -0.21,-2.84 -0.35,-4.19 -0.15,-1.34 -0.32,-2.69 -0.53,-4.06l-0.17 -0.54c1.39,-0.17 2.78,-0.49 4.16,-0.98 1.37,-0.49 2.77,-1.13 4.2,-1.93l0.25 -0.14c-0.23,0.67 -0.47,1.39 -0.72,2.17 -0.25,0.78 -0.49,1.61 -0.75,2.47l7.47 -4.64c0.92,0.25 2.06,0.69 3.41,1.32 1.35,0.62 2.73,1.45 4.11,2.46 1.39,1.01 2.7,2.2 3.91,3.58 1.22,1.39 2.13,2.94 2.75,4.66l-6.18 2.53c-0.93,-1.71 -2,-3.14 -3.22,-4.32 -1.2,-1.17 -2.43,-2.12 -3.72,-2.87 -1.27,-0.74 -2.53,-1.27 -3.75,-1.6 -1.22,-0.34 -2.33,-0.5 -3.31,-0.5 -0.48,0 -0.96,0.04 -1.43,0.11l-0.04 0c-0.09,0.84 -0.15,2.18 -0.19,4.01 -0.03,1.84 -0.05,4.18 -0.05,7.06l0 1.19c0,6.4 0.49,11.94 1.44,16.61l0.27 1.23c-0.89,0.12 -1.76,0.29 -2.64,0.51 -0.86,0.23 -1.67,0.5 -2.43,0.81 -0.76,0.31 -1.46,0.61 -2.07,0.94 -0.61,0.32 -1.1,0.62 -1.47,0.89zm37.81 -33.59l-0.03 0.03c-0.66,1.23 -1.36,3.29 -2.12,6.18 -0.54,2.07 -0.82,4 -0.82,5.8 0,0.71 0.06,1.44 0.18,2.22 0.29,2.01 1.13,4.04 2.51,6.11 1.44,2.16 3.41,3.81 5.92,4.96 2.34,1.06 5.7,2.1 10.07,3.1l0.03 -0.04c0.54,-1.22 1.19,-3.48 1.94,-6.76 0.45,-1.98 0.69,-3.78 0.69,-5.38 0,-0.88 -0.06,-1.64 -0.18,-2.3 -0.34,-2 -1.18,-4.04 -2.52,-6.11 -1.09,-1.68 -3.06,-3.32 -5.91,-4.91 -2.22,-1.26 -5.48,-2.23 -9.76,-2.9zm8.33 33.73c-1.37,-0.34 -2.99,-1.01 -4.85,-1.99 -1.84,-0.97 -3.55,-2.21 -5.12,-3.71 -2,-1.94 -3.4,-4.05 -4.2,-6.32 -0.98,-2.32 -1.47,-4.71 -1.47,-7.17 0,-0.07 0,-0.12 0,-0.14 0,-2.44 0.56,-4.95 1.68,-7.55 0.89,-2.07 2.01,-3.83 3.37,-5.29 0.64,-0.68 1.33,-1.29 2.05,-1.84l7.24 -4.75c1.12,0.29 2.74,0.99 4.89,2.09 1.59,0.82 3.29,2.04 5.08,3.68 2.03,1.96 3.45,4.13 4.27,6.52 0.91,2.55 1.38,4.92 1.4,7.1l0 0.14c0,3.15 -0.5,5.63 -1.5,7.49 -1.54,2.84 -2.85,4.73 -3.89,5.66 -0.57,0.5 -0.95,0.91 -1.16,1.23l-7.79 4.85zm21.15 -35.61c0.95,-0.09 1.88,-0.26 2.75,-0.5 0.87,-0.23 1.69,-0.51 2.42,-0.82 0.75,-0.31 1.4,-0.61 1.99,-0.94 0.58,-0.32 1.06,-0.62 1.44,-0.89 -0.88,6 -1.33,11.77 -1.33,17.33 0.05,0.98 0.1,1.85 0.12,2.63 0.03,0.77 0.09,1.47 0.16,2.1 0.07,0.63 0.18,1.2 0.34,1.71 0.16,0.52 0.37,1 0.65,1.45 0.89,1.33 2.04,2.48 3.48,3.48 1.44,0.99 2.96,1.8 4.57,2.46 1.6,0.64 3.19,1.13 4.76,1.46 1.57,0.33 2.92,0.49 4.06,0.49 1.6,0 3.08,-0.23 4.45,-0.71 -1.78,-1.85 -3.07,-3.84 -3.86,-6 -0.81,-2.16 -1.24,-4.48 -1.31,-6.99 -0.12,-3.33 -0.27,-6.23 -0.48,-8.73 -0.21,-2.49 -0.46,-4.59 -0.78,-6.31l-0.28 -1.22c0.96,-0.09 1.88,-0.26 2.75,-0.5 0.88,-0.23 1.69,-0.51 2.43,-0.82 0.74,-0.31 1.4,-0.61 1.98,-0.94 0.58,-0.32 1.06,-0.62 1.45,-0.89 -0.89,6 -1.33,11.77 -1.33,17.33 0.04,0.98 0.09,1.85 0.13,2.63 0.02,0.77 0.08,1.47 0.15,2.1 0.07,0.63 0.17,1.2 0.34,1.71 0.16,0.52 0.37,1 0.65,1.45 0.66,0.98 1.42,1.85 2.27,2.64 0.85,0.76 1.91,1.46 3.17,2.09 1.25,0.63 2.74,1.22 4.47,1.75 1.71,0.54 3.78,1.05 6.18,1.55l0.02 0c0.09,-0.84 0.16,-2.18 0.2,-4.01 0.03,-1.84 0.05,-4.18 0.05,-7.06l0 -1.19c-0.05,-3.2 -0.17,-6.17 -0.37,-8.94 -0.18,-2.77 -0.54,-5.33 -1.07,-7.68l-0.27 -1.22c0.96,-0.09 1.87,-0.26 2.74,-0.5 0.89,-0.23 1.69,-0.51 2.43,-0.82 0.74,-0.31 1.41,-0.61 1.98,-0.94 0.58,-0.32 1.07,-0.62 1.46,-0.89 -0.43,3.44 -0.76,6.57 -0.98,9.39 -0.21,2.81 -0.33,5.35 -0.33,7.63 0,1.87 0.02,3.6 0.06,5.19 0.04,1.6 0.09,3.12 0.17,4.57 0.08,1.45 0.19,2.84 0.34,4.19 0.15,1.34 0.34,2.69 0.56,4.06l0.18 0.54c-1.39,0.17 -2.78,0.49 -4.15,0.98 -1.38,0.49 -2.87,1.18 -4.46,2.07 0.22,-0.67 0.47,-1.39 0.71,-2.17 0.25,-0.78 0.51,-1.61 0.75,-2.47l-7.48 4.64c-0.62,-0.17 -1.33,-0.4 -2.14,-0.73 -0.81,-0.31 -1.65,-0.71 -2.54,-1.19 -0.87,-0.47 -1.77,-1.03 -2.68,-1.65 -0.91,-0.63 -1.78,-1.34 -2.6,-2.13l-13.22 5.7c-0.96,-0.26 -2.12,-0.7 -3.49,-1.36 -1.36,-0.64 -2.74,-1.48 -4.13,-2.49 -1.39,-1.02 -2.68,-2.2 -3.85,-3.57 -1.19,-1.36 -2.09,-2.9 -2.71,-4.62 -0.88,-2.18 -1.36,-4.58 -1.43,-7.17 -0.12,-3.33 -0.27,-6.23 -0.48,-8.73 -0.21,-2.49 -0.47,-4.59 -0.78,-6.31l-0.28 -1.22zm72.85 3.5c-0.86,-0.82 -1.94,-1.6 -3.26,-2.35 -1.31,-0.73 -2.79,-1.43 -4.45,-2.09 1.16,-1.23 2.28,-3.29 3.38,-6.18l0.3 -0.92c0.43,-1.64 0.65,-3.44 0.65,-5.43 0,-0.43 -0.01,-0.87 -0.03,-1.32 -0.03,-0.46 -0.06,-0.91 -0.11,-1.37 2.52,2.01 5.09,3.46 7.7,4.37 -0.77,1.01 -1.42,2 -1.95,2.99 -0.54,0.99 -0.99,2.01 -1.36,3.06 -0.38,1.07 -0.66,2.14 -0.87,3.21 -0.19,1.08 -0.3,2.11 -0.3,3.09 0,1 0.11,1.98 0.3,2.94zm26.96 32.18c-1.8,-0.76 -3.46,-1.44 -4.99,-2.06 -0.93,-0.36 -1.87,-0.81 -2.79,-1.35 -0.92,-0.53 -1.79,-1.12 -2.61,-1.72 -0.83,-0.62 -1.56,-1.26 -2.23,-1.93 -0.66,-0.66 -1.18,-1.31 -1.57,-1.98l6.12 -3.83c0.05,0.47 0.34,1.02 0.89,1.63 0.55,0.6 1.42,1.23 2.63,1.9 1.21,0.66 2.78,1.33 4.7,2 1.94,0.68 4.31,1.31 7.14,1.9 1.16,-1.98 1.75,-3.84 1.75,-5.59 0,-2.37 -1.37,-3.93 -4.11,-4.68l-0.85 -0.24c-0.52,-0.08 -1.14,-0.18 -1.83,-0.27 -0.7,-0.09 -1.47,-0.2 -2.31,-0.3 -2.19,-0.28 -4.14,-0.66 -5.85,-1.13 -1.72,-0.48 -3.16,-1.09 -4.34,-1.84 -1.19,-0.73 -2.11,-1.6 -2.77,-2.62 -0.67,-1.01 -1.03,-2.19 -1.1,-3.53 0.05,-0.71 0.15,-1.37 0.33,-1.95 0.17,-0.59 0.45,-1.25 0.85,-1.95 0.41,-0.71 0.94,-1.43 1.63,-2.19 0.68,-0.74 1.56,-1.54 2.64,-2.35l7.25 -4.75c1.68,0.68 3.15,1.3 4.37,1.84 1.24,0.55 2.32,1.1 3.25,1.66 0.93,0.56 1.77,1.14 2.5,1.77 0.73,0.63 1.44,1.35 2.15,2.17l-5.98 3.62c-0.79,-0.96 -1.93,-1.97 -3.41,-3.04 -1.57,-1.09 -4.86,-2.08 -9.94,-2.99l-0.03 0.03c-0.53,0.56 -0.96,1.27 -1.31,2.14 -0.34,0.85 -0.51,1.78 -0.51,2.81 0,0.98 0.34,1.78 0.99,2.42 0.67,0.64 1.52,1.17 2.57,1.57 1.05,0.41 2.21,0.73 3.51,0.96 1.28,0.22 2.55,0.42 3.77,0.58 6.89,0.73 10.97,2.66 12.24,5.8 0.46,1.07 0.69,2.2 0.69,3.38 0,0.52 -0.06,1.06 -0.17,1.6 -0.12,0.53 -0.33,1.12 -0.64,1.75 -0.33,0.64 -0.77,1.34 -1.36,2.08 -0.58,0.76 -1.34,1.6 -2.27,2.53 -0.23,0.22 -0.75,0.62 -1.54,1.16l-7.46 4.99z"/>
   <path class="fil0" d="M158.12 147.69c0.65,-4.48 1.13,-8.7 1.46,-12.69 0.31,-3.98 0.47,-7.74 0.47,-11.27 0,-4.32 -0.16,-8.33 -0.5,-12.07 -0.33,-3.75 -0.72,-7.19 -1.16,-10.32l-0.27 -1.5c1.78,-0.19 3.57,-0.61 5.33,-1.24 1.77,-0.63 3.58,-1.46 5.43,-2.49l0.3 -0.18c-0.68,4.45 -1.17,8.43 -1.52,11.95 -0.33,3.54 -0.49,6.67 -0.49,9.41 0,0.39 0,0.75 0,1.11 0,0.34 0.01,0.67 0.04,1 0.29,6.14 0.54,11.04 0.77,14.69 0.21,3.65 0.43,6.13 0.63,7.41l2.02 1.01c2.9,0.76 5.6,1.13 8.08,1.13 2.61,0 5.04,-0.38 7.25,-1.18 2.23,-0.79 4.29,-1.96 6.16,-3.5 1.14,-1.68 1.99,-3.31 2.53,-4.9 0.54,-1.59 0.81,-3.17 0.81,-4.76 0,-3.3 -0.86,-6.05 -2.55,-8.24 -1.71,-2.2 -4.16,-3.64 -7.38,-4.34 -0.74,-0.15 -1.45,-0.23 -2.16,-0.23 -3.5,0 -8.23,1.53 -14.18,4.57l6.47 -11.19c6.06,-2.75 9.1,-7.12 9.1,-13.14 0,-2.1 -0.77,-3.84 -2.35,-5.22 -1.55,-1.36 -3.89,-2.05 -7.01,-2.05 -1.45,0.03 -3.08,0.21 -4.86,0.56 -1.78,0.33 -3.64,0.84 -5.56,1.49 -1.92,0.68 -3.86,1.53 -5.84,2.55 -1.98,1.02 -3.89,2.23 -5.73,3.64l2.9 -11.5c2.1,-0.86 3.74,-1.5 4.91,-1.95 1.17,-0.46 1.92,-0.75 2.23,-0.85 2.12,-0.68 4.21,-1.2 6.29,-1.56 2.09,-0.37 4.12,-0.55 6.14,-0.55 2.06,0 3.84,0.19 5.37,0.57 1.52,0.37 2.8,0.91 3.81,1.57 2.21,1.5 3.84,3.16 4.93,5 1.08,1.84 1.62,3.82 1.62,5.91 -0.03,1.65 -0.38,3.21 -1.04,4.72 -0.65,1.51 -1.49,2.89 -2.51,4.15 -1.03,1.26 -2.16,2.35 -3.4,3.31 -1.24,0.94 -2.47,1.65 -3.67,2.13 0.49,-0.06 0.99,-0.12 1.5,-0.17 0.49,-0.04 0.97,-0.06 1.44,-0.06 2.26,0 4.31,0.3 6.17,0.89 1.85,0.58 3.52,1.34 4.97,2.32 1.47,0.96 2.74,2.08 3.82,3.35 1.07,1.27 1.97,2.59 2.66,3.97 0.71,1.38 1.23,2.75 1.59,4.13 0.34,1.37 0.52,2.65 0.52,3.85 0,1.5 -0.13,2.86 -0.4,4.09 -0.26,1.23 -0.51,2.17 -0.73,2.85 -0.86,2.54 -1.98,4.71 -3.37,6.5 -1.4,1.78 -2.94,3.23 -4.66,4.34 -1.71,1.11 -3.55,1.91 -5.53,2.41 -1.97,0.49 -3.98,0.75 -6.03,0.75 -1.23,0 -2.23,-0.03 -3,-0.09 -0.75,-0.06 -1.18,-0.11 -1.27,-0.14l-9.48 -4.04c-1.23,0.15 -2.41,0.37 -3.53,0.69 -1.13,0.31 -2.18,0.66 -3.12,1.05 -0.96,0.37 -1.81,0.78 -2.58,1.19 -0.76,0.42 -1.37,0.8 -1.84,1.16zm69.8 0.14c-1.34,-0.32 -2.96,-0.99 -4.85,-2.01 -1.89,-1 -3.59,-2.25 -5.12,-3.7 -2,-1.94 -3.4,-4.04 -4.19,-6.32 -0.77,-1.89 -1.26,-4.28 -1.47,-7.17l0 -0.14c0,-2.44 0.56,-4.96 1.67,-7.56 0.85,-1.98 1.97,-3.75 3.38,-5.29 0.59,-0.64 1.28,-1.26 2.05,-1.86l7.17 -4.71c1.2,0.41 3.26,1.37 6.18,2.87 2.11,1.1 4.16,2.73 6.14,4.91 1.45,2.29 2.18,4.38 2.18,6.32 0,0.05 0,0.1 0,0.17 -0.34,2.78 -1.62,5.01 -3.82,6.69 -3.76,2.86 -8.43,4.32 -14.03,4.37 7.06,-2.42 11.23,-5.2 12.52,-8.36 0.27,-0.67 0.41,-1.31 0.41,-1.95 0,-0.02 0,-0.05 0,-0.07 0,-0.02 0,-0.05 0,-0.07 0,-0.96 -0.39,-1.89 -1.19,-2.8 -1.26,-1.47 -3.05,-2.8 -5.4,-3.95 -3.99,-1.98 -7.25,-3.09 -9.75,-3.35 -0.87,1.42 -1.65,3.56 -2.36,6.43 -0.54,2.24 -0.81,4.17 -0.81,5.82 0,0.77 0.05,1.51 0.17,2.21 0.31,2.03 1.15,4.07 2.52,6.12 1.41,2.1 3.38,3.76 5.91,4.96 2.18,1.05 5.54,2.08 10.06,3.11l0.04 -0.03c0.36,-0.58 0.54,-1.57 0.54,-2.98 0,-0.88 -0.15,-2.05 -0.44,-3.48l4.84 1.91c-0.61,1.39 -1.61,2.64 -3,3.76 -1.05,0.84 -1.57,1.27 -1.57,1.3l-7.78 4.85zm20.78 -28.85c0.59,-1.36 1.6,-2.62 3.01,-3.75l1.61 -1.31 7.78 -4.85c1.3,0.34 2.91,1.01 4.82,1.99 1.82,0.93 3.52,2.18 5.12,3.72 2,1.97 3.41,4.06 4.23,6.33 0.88,2.18 1.36,4.58 1.43,7.17 0.17,6.47 0.59,11.48 1.26,15.04l0.28 1.22c-1.55,0.19 -2.94,0.5 -4.16,0.96 -1.98,0.73 -3.46,1.45 -4.44,2.19 0.86,-6.16 1.29,-12.27 1.29,-18.35 0,-0.29 0,-0.61 0,-0.92 0,-2.6 -0.41,-4.59 -1.22,-5.95 -1.44,-2.12 -3.42,-3.78 -5.95,-4.95 -2.27,-1.08 -5.64,-2.1 -10.11,-3.08 -0.36,0.57 -0.54,1.56 -0.54,2.97 0,0.89 0.15,2.05 0.44,3.49l-4.85 -1.92zm13.73 28.71c-1.3,-0.46 -3.36,-1.41 -6.18,-2.87 -2.12,-1.1 -4.17,-2.73 -6.15,-4.91 -1.46,-2.28 -2.18,-4.38 -2.18,-6.32 0,-0.04 0,-0.1 0,-0.17 0.34,-2.75 1.62,-4.98 3.82,-6.68 3.73,-2.87 8.41,-4.33 14.04,-4.37 -6.95,2.54 -10.96,5.38 -12.06,8.53 -0.22,0.65 -0.33,1.29 -0.33,1.9 0,1.05 0.36,1.98 1.09,2.8 1.95,1.98 3.6,3.3 4.94,3.96 4.12,2.03 7.51,3.16 10.18,3.42l-7.17 4.71zm24.33 0c0.51,-3.44 0.88,-7.07 1.11,-10.87 0.25,-3.8 0.36,-7.83 0.36,-12.09 -0.02,-6.01 -0.14,-11.06 -0.36,-15.14 -0.21,-4.07 -0.51,-7.18 -0.9,-9.33l-0.21 -1.15c1.37,-0.17 2.74,-0.49 4.14,-0.98 1.39,-0.49 2.88,-1.18 4.47,-2.07 -1.03,6.47 -1.54,14.31 -1.54,23.51l0 1.19c0,1.05 0,2.06 0,3.03 0,0.97 0.01,1.9 0.03,2.82 0.31,-0.28 0.81,-0.76 1.53,-1.46 0.71,-0.7 1.54,-1.53 2.49,-2.49 0.95,-0.97 1.97,-2.03 3.06,-3.19 1.09,-1.14 2.17,-2.3 3.22,-3.47 1.06,-1.18 2.06,-2.32 3,-3.44 0.93,-1.12 1.71,-2.12 2.35,-3.01l0.34 -0.48c0.79,0.75 1.58,1.38 2.38,1.88 0.78,0.5 1.43,0.84 1.96,1.03 -2.23,1.62 -5.27,4.24 -9.12,7.89l-3.42 3.38c3.03,7.25 8.26,14.42 15.68,21.54 -1.38,0.16 -2.77,0.48 -4.15,0.97 -1.37,0.49 -2.86,1.18 -4.45,2.07 -3.32,-8.31 -7.04,-15.02 -11.13,-20.1 -1.7,2.05 -2.86,3.83 -3.53,5.34 0.12,2.27 0.25,4.25 0.41,5.96 0.17,1.7 0.36,3.12 0.62,4.29l0.27 1.22c-0.98,0.12 -1.9,0.29 -2.78,0.54 -0.88,0.23 -1.69,0.5 -2.42,0.8 -0.75,0.29 -1.41,0.6 -1.98,0.92 -0.59,0.32 -1.06,0.62 -1.43,0.89z"/>
  </g>
  <g id="_2510670461760">
   <path class="fil1" d="M32.5 11.86c-2,5.64 -7.56,2.34 -7.21,1.65 2.34,-3.65 7.69,-3.01 7.21,-1.65zm72.25 115.25l-11.28 -20.31c0,0 -12.15,-3.13 -16.67,-9.03 -1.21,-0.17 -9.72,1.39 -17.53,-10.07 -7.81,-11.45 -10.41,-13.19 -9.72,-13.54 0.69,-0.34 8.74,8.66 10.76,13.02 2.03,4.37 10.07,10.07 17.19,8.68 0,0 3.82,6.6 19.09,10.59 6.08,1.22 -1.39,-3.82 -1.39,-3.82 0,0 4,1.91 4.52,0.52 0.3,-0.81 -0.64,-1.8 -1.48,-2.48 2.34,1.61 7.56,4.81 8.77,2.14 1.56,-3.48 -19.12,-26.75 -22.57,-31.07 -1.39,-1.74 -11.98,-26.39 -17.18,-31.94 -5.21,-5.56 -20.31,-11.29 -20.66,-16.67 -0.29,-4.44 9.8,-12.29 15.6,-15.59 -3.89,1 -7.7,2.25 -11.42,3.77 -2.66,1.08 -5.22,2.34 -7.79,3.62 -2.34,1.15 -4.73,2.19 -7.35,2.45 -0.49,0.05 -0.49,-0.71 0,-0.76 2.85,-0.29 5.42,-1.58 7.94,-2.84 2.38,-1.2 4.79,-2.32 7.26,-3.32 5.17,-2.09 10.52,-3.68 15.99,-4.77 0.04,-0.01 0.08,-0.01 0.11,0 2.87,-0.54 4.53,-0.01 5.7,-0.52 1.39,-0.61 -5.91,-4.61 -11.46,-5.13 -5.55,-0.52 -20.31,3.82 -22.57,4 -2.25,0.17 -11.45,2.08 -11.45,2.08 -4.69,-0.69 -9.38,-1.74 -9.38,0 0,1.74 2.43,2.08 2.43,2.08 0,0 -5.03,2.61 -5.03,3.82 0,0.89 1.85,0.48 2.84,0.2 -1.32,0.46 -2.69,1.3 -2.84,3.1 -0.04,0.52 0.09,0.9 0.3,1.17 -1.54,1.64 -3.7,4.85 -6.2,11.15 -1.39,3.65 -10.94,11.63 -9.03,11.63 1.91,0 5.04,-2.6 5.04,-2.6 0,0 -6.25,5.55 -4,6.94 2.26,1.39 4,0 4,0 0,0 -1.91,1.74 -1.22,2.61 0.69,0.87 2.08,0 2.08,0 2.61,1.73 5.56,-1.91 5.56,-1.91 0,0 -4.34,6.25 -6.25,7.29 -1.91,1.04 -3.65,0.69 -2.78,2.08 0.87,1.39 4.52,0 4.52,0 0,0 -1.57,3.3 -2.44,5.21 -0.86,1.91 0,3.47 0.7,3.82 0.52,0.26 2.7,0.81 4.41,-0.46 0.48,5.56 1.52,13.34 3.71,19.55 3.86,10.94 16.7,15.97 17.74,19.1 1.05,3.12 3.3,10.93 4.34,10.59 1.04,-0.35 0.87,-3.65 0.87,-3.65 0,0 2.82,3.49 6.81,6.39 0.52,2.63 0.97,6.93 -0.59,10.22 -2.4,5.11 -6.16,8.82 -6.16,8.82 0,0 -14.76,6.13 -16.44,6.92 -1.68,0.79 -2.86,6.12 -1.97,7.2 0.59,-0.19 1.38,-2.86 2.07,-3.15 0.69,-0.3 2.17,-0.5 2.66,-1.58 0.49,-1.09 3.16,-2.27 3.16,-2.27 0,0 -2.47,1.97 -2.96,4.34 -0.49,2.37 0.59,4.84 1.08,4.74 0.5,-0.1 0.4,-2.57 0.89,-2.96 0.5,-0.4 2.27,-0.6 2.67,-1.58 0.39,-0.99 -0.1,-0.89 0.49,-2.27 0.59,-1.38 10.16,-7.99 10.36,-6.91 0.2,1.09 -5.23,7.11 -6.12,8.59 -0.89,1.48 -0.29,6.31 0.49,6.01 0.79,-0.29 0.89,-2.46 1.49,-3.05 0.59,-0.6 3.05,-1.19 3.45,-2.47 0.39,-1.28 -0.2,-2.47 0.2,-3.55 0.39,-1.09 3.05,-5.82 3.65,-6.61 0.59,-0.79 3.94,-2.47 4.83,-2.27 0.89,0.2 1.97,1.75 2.57,0.87 0.59,-0.87 1.77,-0.48 2.36,-0.77 0.6,-0.3 -1.08,-2.17 -2.86,-2.27 -1.77,-0.1 -7.5,2.96 -7.4,2.07 0.1,-0.89 3.75,-6.12 4.15,-7.4 0.28,-0.92 0.46,-5.5 1.01,-8.73 0,0 0,0 0.01,0 5.55,2.95 9.37,3.13 10.06,4.52 0.7,1.38 2.26,3.81 3.47,2.6 1.22,-1.22 0.87,-3.3 0.87,-3.3 0,0 5.66,0.94 8.45,1.03 0.33,2.56 0.37,5.83 -0.87,8.47 -2.41,5.11 -6.17,8.81 -6.17,8.81 0,0 -14.76,6.14 -16.44,6.92 -1.68,0.79 -2.86,6.12 -1.97,7.21 0.59,-0.2 1.38,-2.86 2.07,-3.16 0.69,-0.3 2.17,-0.49 2.66,-1.58 0.5,-1.08 3.16,-2.27 3.16,-2.27 0,0 -2.47,1.97 -2.96,4.34 -0.49,2.37 0.59,4.84 1.09,4.74 0.49,-0.1 0.39,-2.57 0.89,-2.96 0.49,-0.39 2.26,-0.59 2.66,-1.58 0.39,-0.99 -0.1,-0.89 0.49,-2.27 0.59,-1.38 10.16,-7.99 10.36,-6.91 0.2,1.09 -5.23,7.11 -6.11,8.59 -0.89,1.48 -0.3,6.31 0.49,6.02 0.79,-0.3 0.89,-2.47 1.48,-3.06 0.59,-0.59 3.06,-1.18 3.45,-2.47 0.4,-1.28 -0.2,-2.47 0.2,-3.55 0.39,-1.09 3.06,-5.82 3.65,-6.61 0.59,-0.79 3.95,-2.47 4.83,-2.27 0.89,0.2 1.98,1.75 2.57,0.87 0.59,-0.87 1.78,-0.48 2.37,-0.77 0.59,-0.3 -1.09,-2.17 -2.86,-2.27 -1.78,-0.1 -7.5,2.96 -7.4,2.07 0.09,-0.89 3.75,-6.12 4.14,-7.4 0.27,-0.88 0.45,-5.19 0.96,-8.4 2.34,0.76 5.49,1.98 10.68,0.72l0 0.52c0,0 7.47,2.95 10.59,4.86 3.13,1.91 6.43,6.94 11.46,7.29 -0.87,0.35 7.64,3.99 9.03,3.3 1.38,-0.7 -9.03,-11.11 -9.03,-11.11z"/>
   <path class="fil1" d="M130.97 48.38c-0.15,0.51 -0.28,0.85 -0.38,1.06 -1.77,3.86 -3.66,6.81 -5.67,8.84 -1.52,1.55 -2.74,2.75 -3.63,3.59 -0.92,0.85 -1.53,1.38 -1.86,1.59l-9.78 6.15c-1.66,-0.43 -3.62,-1.23 -5.86,-2.35 -2.23,-1.12 -4.47,-2.56 -6.71,-4.31 -2.24,-1.77 -4.31,-3.81 -6.21,-6.16 -1.9,-2.33 -3.34,-4.94 -4.34,-7.8 -0.77,-2.23 -1.35,-4.36 -1.77,-6.39 -0.43,-2.04 -0.63,-4.08 -0.6,-6.13 0,-2.52 0.35,-5.09 1.03,-7.71 0.69,-2.64 1.64,-5.17 2.85,-7.59 1.21,-2.45 2.65,-4.68 4.33,-6.7 1.66,-2.04 3.47,-3.73 5.43,-5.08l9.74 -6.27c0.81,0.24 1.81,0.58 2.98,1.05 1.17,0.46 2.47,1.09 3.89,1.89 1.44,0.77 2.95,1.75 4.55,2.89 1.59,1.13 3.21,2.48 4.84,4.07 0.91,0.93 1.74,1.89 2.5,2.87l-8.73 4.3c-1.32,-1.66 -2.66,-3.08 -4.03,-4.27 -1.37,-1.16 -2.84,-2.18 -4.38,-3.01 -1.55,-0.83 -3.21,-1.51 -4.98,-2.05 -1.76,-0.54 -3.73,-1 -5.85,-1.38l-0.05 0.05c-2.51,1.45 -4.43,5.33 -5.73,11.62 -0.89,4.22 -1.32,8.01 -1.32,11.37 0,1.85 0.18,3.82 0.57,5.88 0.37,2.08 1,4.15 1.86,6.22 0.86,2.06 2,4.09 3.39,6.05 1.41,1.97 3.13,3.8 5.19,5.46 2.05,1.68 4.44,3.13 7.2,4.39 2.74,1.26 5.9,2.22 9.46,2.86 2.73,-2.41 4.09,-6.18 4.09,-11.35 0,-2.37 -0.3,-4.6 -0.88,-6.68l8.86 3.03zm10.37 21.23c0.43,-3.44 0.76,-6.56 0.97,-9.38 0.22,-2.81 0.33,-5.35 0.33,-7.64 0,-1.84 -0.01,-3.57 -0.05,-5.18 -0.03,-1.61 -0.1,-3.12 -0.2,-4.58 -0.08,-1.44 -0.21,-2.83 -0.35,-4.18 -0.15,-1.34 -0.32,-2.7 -0.53,-4.06l-0.17 -0.55c1.39,-0.16 2.78,-0.49 4.15,-0.98 1.38,-0.49 2.78,-1.13 4.21,-1.92l0.25 -0.14c-0.24,0.66 -0.47,1.39 -0.73,2.17 -0.24,0.78 -0.49,1.61 -0.74,2.47l7.47 -4.64c0.92,0.24 2.05,0.69 3.41,1.32 1.35,0.61 2.72,1.44 4.11,2.46 1.39,1.01 2.69,2.2 3.91,3.57 1.22,1.39 2.13,2.94 2.75,4.67l-6.18 2.53c-0.93,-1.72 -2.01,-3.15 -3.22,-4.33 -1.2,-1.16 -2.44,-2.12 -3.72,-2.87 -1.27,-0.73 -2.53,-1.27 -3.75,-1.59 -1.23,-0.34 -2.33,-0.5 -3.31,-0.5 -0.48,0 -0.96,0.03 -1.44,0.1l-0.03 0c-0.1,0.84 -0.15,2.18 -0.19,4.01 -0.03,1.84 -0.06,4.19 -0.06,7.07l0 1.19c0,6.4 0.49,11.93 1.45,16.61l0.27 1.22c-0.89,0.12 -1.76,0.3 -2.64,0.52 -0.86,0.23 -1.68,0.5 -2.43,0.8 -0.76,0.32 -1.46,0.62 -2.07,0.95 -0.62,0.31 -1.11,0.61 -1.47,0.88zm37.81 -33.59l-0.03 0.04c-0.67,1.22 -1.37,3.29 -2.12,6.18 -0.54,2.06 -0.82,4 -0.82,5.79 0,0.71 0.06,1.45 0.17,2.23 0.3,2 1.14,4.03 2.52,6.11 1.44,2.15 3.41,3.81 5.91,4.95 2.35,1.06 5.7,2.1 10.08,3.1l0.03 -0.03c0.54,-1.23 1.19,-3.49 1.94,-6.76 0.45,-1.99 0.68,-3.78 0.68,-5.39 0,-0.87 -0.05,-1.63 -0.17,-2.3 -0.34,-1.99 -1.18,-4.03 -2.52,-6.11 -1.09,-1.67 -3.06,-3.32 -5.91,-4.9 -2.23,-1.26 -5.48,-2.23 -9.76,-2.91zm8.33 33.73c-1.37,-0.34 -2.99,-1 -4.85,-1.98 -1.85,-0.98 -3.55,-2.22 -5.12,-3.72 -2.01,-1.93 -3.41,-4.04 -4.2,-6.32 -0.98,-2.32 -1.47,-4.71 -1.47,-7.17 0,-0.07 0,-0.12 0,-0.14 0,-2.44 0.56,-4.94 1.68,-7.54 0.89,-2.08 2.01,-3.84 3.37,-5.29 0.64,-0.68 1.33,-1.3 2.05,-1.85l7.24 -4.74c1.12,0.29 2.74,0.99 4.89,2.08 1.58,0.82 3.29,2.04 5.08,3.69 2.03,1.96 3.45,4.13 4.27,6.52 0.91,2.55 1.37,4.92 1.4,7.1l0 0.14c0,3.14 -0.5,5.63 -1.51,7.48 -1.54,2.85 -2.84,4.73 -3.88,5.67 -0.57,0.5 -0.96,0.91 -1.16,1.22l-7.79 4.85zm21.15 -35.6c0.95,-0.1 1.87,-0.26 2.75,-0.51 0.87,-0.23 1.69,-0.51 2.42,-0.81 0.75,-0.32 1.4,-0.62 1.98,-0.95 0.59,-0.31 1.07,-0.61 1.45,-0.88 -0.89,5.99 -1.33,11.76 -1.33,17.32 0.05,0.98 0.09,1.86 0.12,2.64 0.03,0.77 0.09,1.47 0.16,2.1 0.07,0.63 0.18,1.2 0.34,1.71 0.16,0.51 0.37,0.99 0.65,1.45 0.89,1.32 2.04,2.48 3.48,3.47 1.44,0.99 2.96,1.81 4.57,2.46 1.59,0.64 3.19,1.13 4.75,1.47 1.58,0.33 2.93,0.49 4.07,0.49 1.6,0 3.08,-0.23 4.44,-0.71 -1.77,-1.86 -3.06,-3.85 -3.85,-6.01 -0.81,-2.15 -1.24,-4.47 -1.31,-6.98 -0.12,-3.33 -0.27,-6.24 -0.48,-8.73 -0.21,-2.5 -0.46,-4.6 -0.78,-6.31l-0.28 -1.22c0.96,-0.1 1.88,-0.26 2.75,-0.51 0.88,-0.23 1.69,-0.51 2.43,-0.81 0.74,-0.32 1.4,-0.62 1.98,-0.95 0.58,-0.31 1.06,-0.61 1.44,-0.88 -0.88,5.99 -1.32,11.76 -1.32,17.32 0.04,0.98 0.09,1.86 0.12,2.64 0.03,0.77 0.09,1.47 0.16,2.1 0.06,0.63 0.17,1.2 0.33,1.71 0.17,0.51 0.38,0.99 0.66,1.45 0.66,0.98 1.42,1.85 2.27,2.63 0.85,0.77 1.91,1.47 3.17,2.1 1.25,0.63 2.74,1.21 4.47,1.75 1.71,0.53 3.77,1.05 6.18,1.55l0.02 0c0.09,-0.84 0.16,-2.18 0.2,-4.01 0.03,-1.84 0.04,-4.19 0.04,-7.07l0 -1.19c-0.04,-3.19 -0.16,-6.16 -0.36,-8.94 -0.18,-2.76 -0.55,-5.33 -1.07,-7.67l-0.27 -1.22c0.96,-0.1 1.87,-0.26 2.74,-0.51 0.89,-0.23 1.69,-0.51 2.43,-0.81 0.74,-0.32 1.41,-0.62 1.98,-0.95 0.58,-0.31 1.07,-0.61 1.46,-0.88 -0.44,3.44 -0.76,6.56 -0.98,9.38 -0.21,2.81 -0.33,5.35 -0.33,7.64 0,1.87 0.02,3.59 0.06,5.19 0.03,1.6 0.09,3.11 0.17,4.57 0.07,1.44 0.19,2.83 0.34,4.18 0.15,1.34 0.34,2.7 0.56,4.06l0.18 0.55c-1.39,0.16 -2.78,0.49 -4.15,0.98 -1.38,0.49 -2.87,1.18 -4.46,2.06 0.22,-0.66 0.47,-1.39 0.71,-2.17 0.25,-0.78 0.5,-1.61 0.75,-2.47l-7.49 4.64c-0.61,-0.16 -1.33,-0.39 -2.13,-0.72 -0.82,-0.32 -1.66,-0.71 -2.54,-1.19 -0.88,-0.48 -1.77,-1.04 -2.68,-1.66 -0.91,-0.63 -1.79,-1.34 -2.6,-2.13l-13.22 5.7c-0.96,-0.25 -2.13,-0.7 -3.49,-1.35 -1.36,-0.64 -2.74,-1.48 -4.13,-2.5 -1.4,-1.01 -2.68,-2.2 -3.86,-3.56 -1.19,-1.37 -2.08,-2.91 -2.7,-4.62 -0.89,-2.18 -1.36,-4.58 -1.44,-7.17 -0.11,-3.33 -0.26,-6.24 -0.47,-8.73 -0.21,-2.5 -0.47,-4.6 -0.78,-6.31l-0.28 -1.22zm72.85 3.49c-0.86,-0.81 -1.94,-1.59 -3.26,-2.34 -1.31,-0.73 -2.79,-1.43 -4.46,-2.1 1.17,-1.22 2.29,-3.29 3.39,-6.18l0.3 -0.92c0.43,-1.63 0.65,-3.44 0.65,-5.42 0,-0.43 -0.01,-0.87 -0.03,-1.33 -0.03,-0.45 -0.06,-0.91 -0.11,-1.36 2.52,2 5.08,3.46 7.7,4.37 -0.77,1 -1.43,1.99 -1.95,2.98 -0.54,0.99 -0.99,2.02 -1.37,3.07 -0.37,1.06 -0.65,2.13 -0.86,3.21 -0.2,1.08 -0.3,2.11 -0.3,3.09 0,1 0.1,1.98 0.3,2.93zm26.96 32.18c-1.8,-0.76 -3.47,-1.43 -4.99,-2.05 -0.94,-0.36 -1.87,-0.82 -2.79,-1.35 -0.92,-0.54 -1.79,-1.12 -2.61,-1.73 -0.83,-0.62 -1.56,-1.26 -2.23,-1.92 -0.66,-0.67 -1.19,-1.32 -1.57,-1.98l6.12 -3.84c0.05,0.48 0.34,1.03 0.89,1.63 0.54,0.61 1.42,1.24 2.63,1.9 1.21,0.67 2.78,1.33 4.7,2.01 1.93,0.67 4.31,1.3 7.13,1.9 1.17,-1.98 1.75,-3.85 1.75,-5.6 0,-2.36 -1.36,-3.93 -4.1,-4.67l-0.85 -0.25c-0.53,-0.08 -1.14,-0.17 -1.83,-0.27 -0.7,-0.09 -1.47,-0.19 -2.31,-0.3 -2.19,-0.28 -4.14,-0.65 -5.85,-1.13 -1.72,-0.48 -3.16,-1.08 -4.34,-1.83 -1.19,-0.73 -2.11,-1.61 -2.78,-2.62 -0.66,-1.02 -1.02,-2.19 -1.09,-3.54 0.05,-0.71 0.15,-1.36 0.32,-1.94 0.18,-0.6 0.46,-1.25 0.86,-1.95 0.4,-0.71 0.94,-1.43 1.63,-2.19 0.67,-0.75 1.56,-1.54 2.63,-2.36l7.26 -4.74c1.67,0.67 3.14,1.29 4.37,1.84 1.23,0.55 2.32,1.1 3.25,1.66 0.93,0.56 1.77,1.14 2.49,1.77 0.74,0.63 1.45,1.35 2.16,2.17l-5.98 3.61c-0.79,-0.96 -1.93,-1.97 -3.41,-3.03 -1.57,-1.1 -4.87,-2.09 -9.94,-3l-0.03 0.04c-0.53,0.56 -0.96,1.27 -1.31,2.13 -0.34,0.85 -0.51,1.79 -0.51,2.81 0,0.98 0.34,1.78 0.99,2.43 0.66,0.64 1.51,1.16 2.56,1.57 1.05,0.41 2.22,0.72 3.51,0.96 1.29,0.22 2.56,0.42 3.78,0.58 6.89,0.72 10.97,2.66 12.24,5.79 0.46,1.08 0.69,2.21 0.69,3.38 0,0.53 -0.06,1.07 -0.17,1.6 -0.12,0.54 -0.33,1.12 -0.65,1.75 -0.32,0.64 -0.77,1.34 -1.35,2.09 -0.58,0.76 -1.34,1.59 -2.27,2.53 -0.23,0.22 -0.75,0.62 -1.54,1.15l-7.46 4.99z"/>
   <path class="fil1" d="M154.35 144.92c0.64,-4.47 1.12,-8.7 1.45,-12.68 0.32,-3.98 0.48,-7.74 0.48,-11.28 0,-4.31 -0.16,-8.32 -0.51,-12.07 -0.33,-3.74 -0.72,-7.19 -1.15,-10.32l-0.27 -1.49c1.78,-0.2 3.56,-0.62 5.33,-1.25 1.77,-0.63 3.58,-1.45 5.42,-2.48l0.3 -0.18c-0.67,4.45 -1.17,8.43 -1.51,11.95 -0.33,3.53 -0.49,6.66 -0.49,9.4 0,0.39 0,0.75 0,1.11 0,0.35 0.01,0.67 0.04,1 0.29,6.14 0.54,11.04 0.76,14.7 0.21,3.65 0.44,6.12 0.63,7.41l2.03 1c2.9,0.77 5.6,1.14 8.08,1.14 2.61,0 5.03,-0.39 7.25,-1.18 2.23,-0.8 4.28,-1.97 6.16,-3.51 1.13,-1.67 1.99,-3.31 2.53,-4.89 0.54,-1.59 0.81,-3.18 0.81,-4.77 0,-3.29 -0.86,-6.05 -2.55,-8.23 -1.71,-2.2 -4.16,-3.64 -7.38,-4.35 -0.74,-0.15 -1.46,-0.22 -2.16,-0.22 -3.5,0 -8.24,1.53 -14.18,4.57l6.47 -11.19c6.06,-2.76 9.1,-7.13 9.1,-13.15 0,-2.1 -0.78,-3.83 -2.35,-5.21 -1.56,-1.36 -3.89,-2.05 -7.01,-2.05 -1.45,0.03 -3.08,0.21 -4.86,0.55 -1.79,0.33 -3.64,0.84 -5.56,1.5 -1.92,0.67 -3.86,1.53 -5.84,2.55 -1.98,1.01 -3.89,2.23 -5.74,3.63l2.91 -11.5c2.1,-0.85 3.74,-1.49 4.91,-1.94 1.17,-0.47 1.92,-0.75 2.23,-0.86 2.11,-0.67 4.21,-1.2 6.29,-1.55 2.08,-0.38 4.12,-0.56 6.14,-0.56 2.05,0 3.84,0.2 5.36,0.57 1.53,0.37 2.8,0.91 3.82,1.57 2.2,1.5 3.84,3.16 4.93,5 1.08,1.85 1.62,3.82 1.62,5.92 -0.03,1.65 -0.38,3.2 -1.04,4.72 -0.66,1.51 -1.49,2.89 -2.51,4.15 -1.04,1.25 -2.16,2.35 -3.4,3.31 -1.25,0.94 -2.47,1.64 -3.67,2.12 0.49,-0.06 0.99,-0.12 1.5,-0.16 0.49,-0.05 0.97,-0.06 1.43,-0.06 2.27,0 4.32,0.3 6.17,0.88 1.86,0.58 3.52,1.35 4.98,2.32 1.46,0.96 2.74,2.08 3.81,3.36 1.08,1.27 1.98,2.59 2.67,3.97 0.7,1.37 1.23,2.75 1.59,4.13 0.34,1.36 0.52,2.65 0.52,3.85 0,1.49 -0.13,2.86 -0.4,4.09 -0.26,1.22 -0.51,2.17 -0.74,2.84 -0.85,2.55 -1.97,4.72 -3.37,6.5 -1.39,1.78 -2.93,3.23 -4.65,4.34 -1.71,1.11 -3.55,1.92 -5.53,2.41 -1.98,0.5 -3.98,0.75 -6.03,0.75 -1.23,0 -2.24,-0.03 -3,-0.09 -0.75,-0.06 -1.18,-0.1 -1.27,-0.13l-9.48 -4.05c-1.23,0.15 -2.41,0.38 -3.54,0.69 -1.12,0.32 -2.17,0.66 -3.11,1.05 -0.96,0.38 -1.81,0.78 -2.58,1.2 -0.76,0.42 -1.37,0.79 -1.84,1.15zm69.8 0.14c-1.34,-0.31 -2.96,-0.99 -4.85,-2 -1.89,-1.01 -3.59,-2.25 -5.12,-3.71 -2,-1.94 -3.4,-4.03 -4.2,-6.32 -0.76,-1.89 -1.25,-4.28 -1.46,-7.17l0 -0.14c0,-2.44 0.56,-4.95 1.66,-7.55 0.85,-1.99 1.97,-3.76 3.38,-5.3 0.6,-0.64 1.29,-1.26 2.06,-1.85l7.17 -4.71c1.2,0.41 3.26,1.36 6.18,2.87 2.11,1.09 4.16,2.73 6.14,4.91 1.45,2.28 2.18,4.38 2.18,6.32 0,0.04 0,0.1 0,0.17 -0.34,2.77 -1.62,5 -3.82,6.68 -3.76,2.87 -8.43,4.33 -14.03,4.37 7.05,-2.41 11.23,-5.2 12.52,-8.36 0.27,-0.66 0.41,-1.3 0.41,-1.94 0,-0.03 0,-0.05 0,-0.07 0,-0.03 0,-0.05 0,-0.07 0,-0.96 -0.4,-1.89 -1.19,-2.8 -1.26,-1.47 -3.05,-2.8 -5.4,-3.95 -4,-1.99 -7.25,-3.09 -9.76,-3.35 -0.86,1.41 -1.64,3.56 -2.35,6.42 -0.54,2.24 -0.82,4.18 -0.82,5.82 0,0.77 0.06,1.52 0.18,2.22 0.31,2.03 1.15,4.07 2.52,6.12 1.41,2.1 3.38,3.75 5.91,4.95 2.18,1.05 5.54,2.09 10.06,3.11l0.03 -0.03c0.36,-0.57 0.55,-1.56 0.55,-2.97 0,-0.89 -0.15,-2.05 -0.44,-3.49l4.84 1.91c-0.61,1.39 -1.61,2.65 -3,3.77 -1.05,0.84 -1.57,1.27 -1.57,1.29l-7.78 4.85zm20.78 -28.84c0.59,-1.36 1.59,-2.62 3,-3.75l1.61 -1.31 7.79 -4.85c1.3,0.34 2.9,1 4.82,1.98 1.81,0.93 3.52,2.18 5.11,3.72 2.01,1.97 3.42,4.07 4.24,6.33 0.88,2.18 1.36,4.58 1.43,7.17 0.16,6.47 0.58,11.49 1.26,15.04l0.28 1.23c-1.55,0.18 -2.94,0.5 -4.16,0.95 -1.98,0.74 -3.47,1.46 -4.44,2.19 0.86,-6.15 1.29,-12.26 1.29,-18.35 0,-0.29 0,-0.6 0,-0.92 0,-2.6 -0.41,-4.58 -1.22,-5.94 -1.44,-2.13 -3.42,-3.78 -5.95,-4.96 -2.27,-1.07 -5.64,-2.1 -10.11,-3.08 -0.36,0.57 -0.55,1.56 -0.55,2.98 0,0.88 0.16,2.05 0.45,3.48l-4.85 -1.91zm13.73 28.7c-1.31,-0.45 -3.36,-1.41 -6.18,-2.87 -2.12,-1.09 -4.17,-2.72 -6.15,-4.9 -1.46,-2.29 -2.18,-4.39 -2.18,-6.32 0,-0.05 0,-0.11 0,-0.18 0.33,-2.75 1.62,-4.98 3.82,-6.68 3.73,-2.87 8.41,-4.32 14.04,-4.37 -6.95,2.54 -10.96,5.39 -12.06,8.53 -0.22,0.66 -0.34,1.3 -0.34,1.91 0,1.04 0.36,1.98 1.1,2.79 1.95,1.99 3.6,3.3 4.94,3.97 4.12,2.03 7.51,3.16 10.18,3.41l-7.17 4.71zm24.33 0c0.5,-3.44 0.88,-7.06 1.11,-10.86 0.24,-3.8 0.36,-7.84 0.36,-12.09 -0.02,-6.02 -0.14,-11.07 -0.36,-15.15 -0.21,-4.07 -0.51,-7.18 -0.9,-9.32l-0.21 -1.16c1.37,-0.16 2.74,-0.49 4.14,-0.98 1.39,-0.49 2.88,-1.18 4.47,-2.06 -1.03,6.47 -1.54,14.3 -1.54,23.5l0 1.19c0,1.05 0,2.07 0,3.03 0,0.97 0.01,1.9 0.03,2.82 0.31,-0.28 0.81,-0.75 1.53,-1.45 0.71,-0.7 1.54,-1.53 2.48,-2.5 0.96,-0.97 1.97,-2.03 3.07,-3.18 1.08,-1.14 2.17,-2.31 3.22,-3.48 1.06,-1.17 2.06,-2.32 2.99,-3.43 0.94,-1.12 1.72,-2.13 2.36,-3.01l0.34 -0.48c0.79,0.75 1.58,1.38 2.37,1.88 0.79,0.5 1.44,0.84 1.96,1.02 -2.22,1.62 -5.27,4.25 -9.11,7.9l-3.42 3.38c3.03,7.25 8.25,14.42 15.68,21.53 -1.39,0.16 -2.77,0.49 -4.15,0.98 -1.37,0.49 -2.87,1.18 -4.45,2.06 -3.33,-8.31 -7.04,-15.01 -11.14,-20.1 -1.69,2.06 -2.85,3.84 -3.52,5.34 0.12,2.28 0.25,4.26 0.41,5.96 0.16,1.7 0.36,3.13 0.62,4.29l0.27 1.23c-0.98,0.11 -1.9,0.29 -2.78,0.53 -0.88,0.23 -1.69,0.5 -2.42,0.81 -0.75,0.29 -1.41,0.59 -1.99,0.92 -0.58,0.31 -1.06,0.62 -1.42,0.88z"/>
  </g>
 </g>
</svg>
