<?xml version="1.0" encoding="UTF-8"?>
<!DOCTYPE svg PUBLIC "-//W3C//DTD SVG 1.1//EN" "http://www.w3.org/Graphics/SVG/1.1/DTD/svg11.dtd">
<!-- Creator: CorelDRAW -->
<svg xmlns="http://www.w3.org/2000/svg" xml:space="preserve" width="242px" height="240px" version="1.1" style="shape-rendering:geometricPrecision; text-rendering:geometricPrecision; image-rendering:optimizeQuality; fill-rule:evenodd; clip-rule:evenodd"
viewBox="0 0 30.08 29.92"
 xmlns:xlink="http://www.w3.org/1999/xlink"
 xmlns:xodm="http://www.corel.com/coreldraw/odm/2003">
 <defs>
  <style type="text/css">
   <![CDATA[
    .fil2 {fill:#D37482;fill-rule:nonzero}
    .fil7 {fill:#BD525B;fill-rule:nonzero}
    .fil1 {fill:#B66174;fill-rule:nonzero}
    .fil6 {fill:#934250;fill-rule:nonzero}
    .fil0 {fill:#783D50;fill-rule:nonzero}
    .fil5 {fill:#4D2C38;fill-rule:nonzero}
    .fil4 {fill:#262632;fill-rule:nonzero}
    .fil3 {fill:#53BDE0;fill-rule:nonzero}
    .fil8 {fill:#E6E6E6;fill-opacity:0.200000}
    .fil9 {fill:#3D98CD;fill-rule:nonzero;fill-opacity:0.501961}
   ]]>
  </style>
 </defs>
 <g id="Layer_x0020_1">
  <metadata id="CorelCorpID_0Corel-Layer"/>
  <g id="_2100405339952">
   <path class="fil0" d="M14.66 29.92c-1.36,0 -2.71,-0.19 -4.01,-0.57 -1.73,-0.5 -3.41,-1.36 -4.86,-2.48 -4.94,-3.84 -7.09,-11.18 -4.99,-17.07 2.09,-5.86 7.9,-9.8 14.47,-9.8 0.24,0 0.49,0.01 0.73,0.02 7.56,0.35 13.87,6.96 14.08,14.73 0.07,2.84 -0.79,5.82 -2.36,8.17 -2.88,4.32 -7.89,7 -13.06,7z"/>
   <path class="fil1" d="M14.66 29.29c-1.31,0 -2.6,-0.18 -3.83,-0.54 -1.66,-0.48 -3.27,-1.3 -4.66,-2.38 -4.73,-3.68 -6.79,-10.71 -4.78,-16.36 2,-5.61 7.58,-9.38 13.88,-9.38 0.23,0 0.47,0 0.7,0.01 7.24,0.34 13.29,6.68 13.48,14.12 0.07,2.72 -0.75,5.57 -2.25,7.81 -2.77,4.15 -7.57,6.72 -12.54,6.72z"/>
   <path class="fil2" d="M1.39 11.26c2,-5.61 7.58,-9.38 13.88,-9.38 0.23,0 0.47,0.01 0.7,0.02 7.17,0.33 13.16,6.55 13.47,13.9 0.02,-0.34 0.02,-0.69 0.01,-1.04 -0.19,-7.44 -6.24,-13.78 -13.48,-14.12 -0.23,-0.01 -0.47,-0.01 -0.7,-0.01 -6.3,0 -11.88,3.77 -13.88,9.38 -0.59,1.66 -0.82,3.45 -0.74,5.23 0.05,-1.36 0.29,-2.7 0.74,-3.98z"/>
   <path class="fil0" d="M5.92 3.8l3.46 -0.04 2.43 -0.02c0.82,-0.03 1.63,-0.03 2.44,-0.06 -0.81,-0.11 -1.62,-0.17 -2.43,-0.25l-2.43 -0.15c-0.88,-0.05 -1.76,-0.07 -2.64,-0.09 -0.28,0.19 -0.56,0.4 -0.83,0.61z"/>
   <path class="fil0" d="M19.67 1.36c-0.22,0.01 -0.45,0.03 -0.68,0.04 -1.62,0.11 -3.24,0.25 -4.85,0.48 1.63,0.03 3.25,0.01 4.87,0l1.93 -0.01c-0.41,-0.19 -0.83,-0.36 -1.27,-0.51z"/>
   <path class="fil0" d="M3.24 8.78c-0.41,-0.09 -0.83,-0.16 -1.24,-0.2 -0.07,0.14 -0.14,0.29 -0.21,0.45 0.48,-0.05 0.97,-0.13 1.45,-0.25z"/>
   <path class="fil0" d="M19.39 9.09c2.38,0.14 4.76,0.09 7.13,-0.01 0.51,-0.03 1.03,-0.06 1.55,-0.09 -0.1,-0.2 -0.2,-0.4 -0.3,-0.59 -0.43,0.01 -0.85,0.03 -1.28,0.05 -2.37,0.12 -4.74,0.29 -7.1,0.64z"/>
   <path class="fil0" d="M25.24 4.93c-0.71,0.1 -1.42,0.25 -2.12,0.48 0.89,0.13 1.76,0.12 2.63,0.06 -0.16,-0.18 -0.33,-0.37 -0.51,-0.54z"/>
   <path class="fil0" d="M28.69 13.18c-1.06,-0.06 -2.07,-0.11 -3.12,-0.08 -1.04,0.04 -2.08,0.13 -3.11,0.41 1.05,0.22 2.09,0.24 3.13,0.21 1.03,-0.05 2.11,-0.11 3.1,-0.54z"/>
   <path class="fil0" d="M6.91 19.11l-2.42 -0.11c-1.08,-0.05 -2.17,-0.08 -3.25,-0.11 0.06,0.21 0.12,0.41 0.19,0.61 1.02,0.01 2.03,0 3.05,-0.02l2.42 -0.06c0.81,-0.04 1.62,-0.06 2.42,-0.12 -0.8,-0.08 -1.61,-0.12 -2.41,-0.19z"/>
   <path class="fil0" d="M19.42 18.31c1.95,0.13 3.88,0.1 5.82,0.05 1.28,-0.04 2.57,-0.09 3.85,-0.19 0.03,-0.12 0.06,-0.25 0.09,-0.37 -1.32,-0.09 -2.64,-0.09 -3.96,-0.06 -1.94,0.06 -3.88,0.21 -5.8,0.57z"/>
   <path class="fil0" d="M0.85 17.17c1.01,0.01 2.03,-0.01 3.05,-0.04 1.93,-0.06 3.87,-0.14 5.8,-0.38 -1.93,-0.26 -3.88,-0.29 -5.82,-0.24 -1.04,0.03 -2.07,0.09 -3.11,0.19 0.02,0.16 0.05,0.32 0.08,0.47z"/>
   <path class="fil0" d="M26.86 21.72c-1.94,-0.26 -3.88,-0.29 -5.82,-0.25 -1.94,0.07 -3.88,0.21 -5.8,0.58 1.95,0.12 3.88,0.09 5.81,0.05 1.94,-0.06 3.87,-0.14 5.81,-0.38z"/>
   <path class="fil0" d="M20.43 24.75c-1.46,0.07 -2.91,0.15 -4.37,0.28l-2.18 0.2c-0.72,0.08 -1.45,0.15 -2.18,0.26 0.74,0.03 1.47,0.03 2.2,0.04l2.19 -0.02c1.46,-0.01 2.91,-0.07 4.37,-0.14 1.46,-0.08 2.91,-0.16 4.37,-0.29l0.28 -0.02c0.16,-0.15 0.31,-0.31 0.47,-0.47 -0.26,0.01 -0.52,0.01 -0.77,0.01 -1.46,0.02 -2.92,0.08 -4.38,0.15z"/>
   <path class="fil0" d="M7.77 12.36c-1.45,0.01 -2.91,0.08 -4.37,0.14 -0.88,0.05 -1.76,0.09 -2.65,0.15 -0.02,0.2 -0.04,0.39 -0.06,0.58 0.91,-0.03 1.83,-0.07 2.74,-0.11 1.46,-0.08 2.91,-0.15 4.37,-0.28 1.45,-0.12 2.91,-0.26 4.36,-0.46 -1.47,-0.05 -2.93,-0.04 -4.39,-0.02z"/>
   <path class="fil0" d="M3.59 23.7c0.76,-0.01 1.52,-0.06 2.28,-0.17 -0.88,-0.17 -1.77,-0.29 -2.65,-0.36 0.12,0.18 0.24,0.36 0.37,0.53z"/>
   <path class="fil0" d="M8.79 27.8c-0.11,0.01 -0.21,0.02 -0.31,0.03 0.36,0.18 0.73,0.35 1.1,0.49 0.47,0.02 0.94,0.04 1.41,0.05 1.47,0.02 2.94,0.04 4.42,-0.17 -1.46,-0.29 -2.93,-0.41 -4.4,-0.46 -0.74,-0.01 -1.48,0 -2.22,0.06z"/>
   <path class="fil3" d="M14.66 26.78c-1.07,0 -2.13,-0.14 -3.14,-0.44 -1.35,-0.39 -2.67,-1.06 -3.81,-1.95 -3.92,-3.04 -5.62,-8.86 -3.96,-13.54 1.65,-4.61 6.28,-7.72 11.52,-7.72 0.19,0 0.39,0.01 0.59,0.02 5.95,0.28 10.92,5.52 11.09,11.68 0.05,2.21 -0.61,4.53 -1.83,6.35 -2.31,3.46 -6.32,5.6 -10.46,5.6z"/>
   <path class="fil4" d="M14.66 29.92c-1.36,0 -2.71,-0.19 -4.01,-0.57 1.3,0.38 2.65,0.57 4.01,0.57 5.17,0 10.18,-2.68 13.06,-7 1.57,-2.35 2.43,-5.33 2.36,-8.17 0.07,2.84 -0.79,5.82 -2.36,8.17 -2.88,4.32 -7.89,7 -13.06,7zm-8.87 -3.05c-0.01,-0.01 -0.01,-0.01 -0.02,-0.01 0.01,0 0.01,0 0.02,0.01zm-0.02 -0.02c0,0 0,0 -0.01,0 0.01,0 0.01,0 0.01,0zm24.31 -12.13c-0.01,-0.26 -0.02,-0.52 -0.04,-0.79 0.02,0.27 0.03,0.53 0.04,0.79zm-0.04 -0.79c-0.01,0 -0.01,-0.01 -0.01,-0.02 0,0.01 0,0.02 0.01,0.02zm-0.01 -0.02c0,-0.01 0,-0.01 0,-0.02 0,0.01 0,0.01 0,0.02zm0 -0.03c0,0 0,-0.01 0,-0.01 0,0 0,0.01 0,0.01zm0 -0.02c0,-0.01 0,-0.01 0,-0.01 0,0 0,0 0,0.01zm0 -0.03c0,0 0,0 0,-0.01 0,0.01 0,0.01 0,0.01zm-0.01 -0.02c0,-0.01 0,-0.01 0,-0.01 0,0 0,0.01 0,0.01z"/>
   <path class="fil5" d="M14.66 29.92c-1.36,0 -2.71,-0.19 -4.01,-0.57l0 0c-1.73,-0.5 -3.41,-1.36 -4.86,-2.48l0 0c-0.01,-0.01 -0.01,-0.01 -0.02,-0.01 0,0 0,-0.01 0,-0.01 0,0 0,0 -0.01,0 -0.5,-0.4 -0.97,-0.84 -1.42,-1.3 0.13,0 0.25,0.01 0.38,0.01 0.17,0 0.33,0 0.5,-0.01 0.3,0.29 0.62,0.57 0.95,0.82 0.72,0.56 1.5,1.05 2.31,1.46l0 0c0.36,0.18 0.73,0.35 1.1,0.49l0 0c0.41,0.17 0.83,0.31 1.25,0.43 1.23,0.36 2.52,0.54 3.83,0.54 3.88,0 7.66,-1.57 10.45,-4.23l0 0c0.16,-0.15 0.31,-0.31 0.47,-0.47l0 0c0.59,-0.62 1.14,-1.29 1.62,-2.02 0.88,-1.31 1.52,-2.82 1.89,-4.4l0 0c0.03,-0.12 0.06,-0.25 0.09,-0.37l0 0c0.2,-1.01 0.3,-2.03 0.27,-3.04 0,-0.1 0,-0.2 -0.01,-0.3 -0.17,-3.56 -1.67,-6.84 -3.99,-9.32 0,-0.1 0,-0.21 0,-0.31 0,-0.2 -0.01,-0.39 -0.01,-0.58 2.54,2.48 4.25,5.86 4.58,9.55 0,0 0,0 0,0.01 0,0 0.01,0.01 0.01,0.01 0,0.01 0,0.01 0,0.01 0,0.01 0,0.01 0,0.02 0,0 0,0 0,0.01 0,0 0,0.01 0,0.01 0,0 0,0.01 0,0.01 0,0.01 0,0.01 0,0.01 0,0.01 0,0.01 0,0.02 0,0 0,0 0,0 0,0.01 0,0.02 0.01,0.02 0,0 0,0 0,0 0.02,0.27 0.03,0.53 0.04,0.79 0,0.01 0,0.02 0,0.03l0 0c0.07,2.84 -0.79,5.82 -2.36,8.17 -2.88,4.32 -7.89,7 -13.06,7z"/>
   <path class="fil6" d="M14.66 29.29c-1.31,0 -2.6,-0.18 -3.83,-0.54 -0.42,-0.12 -0.84,-0.26 -1.25,-0.43 0.47,0.02 0.94,0.04 1.41,0.05 0.43,0.01 0.87,0.01 1.3,0.01 1.04,0 2.08,-0.03 3.12,-0.18 -1.46,-0.29 -2.93,-0.41 -4.4,-0.46 -0.18,0 -0.36,0 -0.54,0 -0.56,0 -1.12,0.01 -1.68,0.06 -0.11,0.01 -0.21,0.02 -0.31,0.03 -0.81,-0.41 -1.59,-0.9 -2.31,-1.46 -0.33,-0.25 -0.65,-0.53 -0.95,-0.82 1.23,-0.02 2.43,-0.16 3.6,-0.4 0.86,0.52 1.77,0.93 2.7,1.19 1.01,0.3 2.07,0.44 3.14,0.44 2,0 3.97,-0.5 5.74,-1.41 0.02,0 0.04,0 0.06,0 1.46,-0.08 2.91,-0.16 4.37,-0.29 0.09,0 0.19,-0.01 0.28,-0.02 -2.79,2.66 -6.57,4.23 -10.45,4.23zm6.89 -4.59c1.15,-0.75 2.17,-1.68 3.02,-2.77 0.76,-0.05 1.53,-0.12 2.29,-0.21 -0.66,-0.09 -1.32,-0.15 -1.98,-0.19 0.08,-0.12 0.16,-0.23 0.24,-0.35 0.58,-0.86 1.03,-1.84 1.34,-2.86 0.88,-0.04 1.76,-0.08 2.63,-0.15 -0.37,1.58 -1.01,3.09 -1.89,4.4 -0.48,0.73 -1.03,1.4 -1.62,2.02 -0.26,0.01 -0.52,0.01 -0.77,0.01 -1.09,0.01 -2.17,0.05 -3.26,0.1zm7.63 -6.9c-0.85,-0.06 -1.7,-0.08 -2.55,-0.08 0.23,-0.95 0.34,-1.93 0.32,-2.89 -0.01,-0.4 -0.05,-0.8 -0.1,-1.2 0.63,-0.07 1.25,-0.2 1.84,-0.45 -0.65,-0.04 -1.28,-0.07 -1.92,-0.09 -0.25,-1.41 -0.75,-2.75 -1.45,-3.97 0.4,-0.01 0.8,-0.03 1.2,-0.04 0.3,-0.02 0.6,-0.04 0.9,-0.05 1.19,2.01 1.91,4.33 2.02,6.77 0.02,-0.34 0.02,-0.69 0.01,-1.04 0,-0.1 0,-0.2 -0.01,-0.3 0.01,0.1 0.01,0.2 0.01,0.3 0.03,1.01 -0.07,2.03 -0.27,3.04z"/>
   <path class="fil7" d="M29.44 15.8c-0.11,-2.44 -0.83,-4.76 -2.02,-6.77 0.21,-0.01 0.43,-0.03 0.65,-0.04 -0.1,-0.2 -0.2,-0.4 -0.3,-0.59 -0.24,0.01 -0.48,0.02 -0.73,0.03 -0.48,-0.74 -1.04,-1.44 -1.64,-2.08 0.02,-0.29 0.03,-0.57 0.04,-0.86 0.11,0 0.21,-0.01 0.31,-0.02 -0.1,-0.11 -0.2,-0.22 -0.3,-0.33l0 0c2.32,2.48 3.82,5.76 3.99,9.32 0.01,0.1 0.01,0.2 0.01,0.3 0.01,0.35 0.01,0.7 -0.01,1.04z"/>
   <path class="fil6" d="M25.13 8.53c0.12,-0.72 0.22,-1.44 0.27,-2.18 0.6,0.64 1.16,1.34 1.64,2.08 -0.18,0 -0.37,0.01 -0.55,0.02 -0.46,0.02 -0.91,0.05 -1.36,0.08z"/>
   <path class="fil5" d="M25.32 9.12c-0.08,-0.13 -0.15,-0.26 -0.23,-0.39 0.01,-0.06 0.02,-0.13 0.04,-0.2 0.45,-0.03 0.9,-0.06 1.36,-0.08 0.18,-0.01 0.37,-0.02 0.55,-0.02 0.25,-0.01 0.49,-0.02 0.73,-0.03 0.1,0.19 0.2,0.39 0.3,0.59 -0.22,0.01 -0.44,0.03 -0.65,0.04 -0.3,0.01 -0.6,0.03 -0.9,0.05 -0.4,0.01 -0.8,0.03 -1.2,0.04z"/>
   <path class="fil5" d="M25.44 5.49c0.01,-0.11 0.01,-0.23 0.01,-0.35 0.1,0.11 0.2,0.22 0.3,0.33 -0.1,0.01 -0.2,0.02 -0.31,0.02z"/>
   <path class="fil5" d="M26.85 13.63c-0.02,-0.18 -0.05,-0.36 -0.08,-0.54 0.64,0.02 1.27,0.05 1.92,0.09 -0.59,0.25 -1.21,0.38 -1.84,0.45z"/>
   <path class="fil5" d="M26.46 18.32c0.06,-0.2 0.12,-0.4 0.17,-0.6 0.85,0 1.7,0.02 2.55,0.08l0 0c-0.03,0.12 -0.06,0.25 -0.09,0.37l0 0c-0.87,0.07 -1.75,0.11 -2.63,0.15z"/>
   <path class="fil5" d="M24.57 21.93c0.11,-0.13 0.21,-0.27 0.31,-0.4 0.66,0.04 1.32,0.1 1.98,0.19 -0.76,0.09 -1.53,0.16 -2.29,0.21z"/>
   <path class="fil5" d="M20.4 25.37c0.39,-0.2 0.78,-0.43 1.15,-0.67 1.09,-0.05 2.17,-0.09 3.26,-0.1 0.25,0 0.51,0 0.77,-0.01l0 0c-0.16,0.16 -0.31,0.32 -0.47,0.47l0 0c-0.09,0.01 -0.19,0.02 -0.28,0.02 -1.46,0.13 -2.91,0.21 -4.37,0.29 -0.02,0 -0.04,0 -0.06,0z"/>
   <path class="fil8" d="M16.2 22.1c0.13,-0.09 0.26,-0.18 0.4,-0.28 0.59,-0.41 1.17,-0.86 1.72,-1.34 -5.33,-2.86 -9.76,-6.4 -15.2,-6.04 -0.01,0.7 0.04,1.4 0.14,2.09 0.03,0.21 0.07,0.41 0.11,0.62 0.12,0.61 0.29,1.23 0.51,1.82 0.06,0.17 0.12,0.35 0.19,0.52 0.79,1.92 2.02,3.65 3.64,4.9 0.36,0.28 0.73,0.53 1.11,0.76l0.04 0.03 0.04 0.02 0.04 0.03 0 0 0.04 0.02 0 0 0.04 0.02 0.04 0.03 0 0 0.04 0.02 0 0 0.04 0.02 0.05 0.03 0.04 0.02 0 0 0.04 0.02 0 0 0.04 0.02 0.04 0.03 0 0 0.04 0.02 0 0 0.04 0.02 0 0 0.04 0.02 0.04 0.02 0 0 0.05 0.02 0 0 0.04 0.02 0 0 0.04 0.02 0 0 0.04 0.03 0 0 0.04 0.02 0 0 0.04 0.02 0 0 0.05 0.02 0 0 0.04 0.02 0 0 0.04 0.02 0 0 0.04 0.02 0 0 0.04 0.02 0 0 0.05 0.02 0 0 0.04 0.01 0 0 0.04 0.02 0 0 0.04 0.02 0 0 0.05 0.02 0 0 0.04 0.02 0 0 0.04 0.02 0 0 0.04 0.02 0 0 0.05 0.01 0 0 0.04 0.02 0 0 0.04 0.02 0 0 0.04 0.02 0 0 0.05 0.01 0 0 0.04 0.02 0 0 0.04 0.02 0 0 0.05 0.01 0 0 0.04 0.02 0 0 0.04 0.02 0 0 0.05 0.01 0 0 0.04 0.02 0 0 0.04 0.01 0 0 0.05 0.02 0 0 0.04 0.01 0 0 0.04 0.02 0 0 0.05 0.01 0 0 0.04 0.02 0 0 0.04 0.01 0.05 0.02 0 0 0.04 0.01 0 0 0.04 0.02 0 0 0.05 0.01 0.04 0.01 0.04 0.02 0.05 0.01 0.04 0.01 0.04 0.01c1.01,0.3 2.07,0.44 3.14,0.44 2,0 3.97,-0.5 5.74,-1.41 0.39,-0.2 0.78,-0.43 1.15,-0.67 0.81,-0.53 1.55,-1.15 2.22,-1.84 -0.72,-0.23 -1.43,-0.5 -2.11,-0.78 -0.45,-0.18 -0.88,-0.38 -1.31,-0.58l-0.04 -0.01 -0.03 -0.02 -0.03 -0.02 -0.03 -0.01 -0.04 -0.02 -0.03 -0.01 -0.03 -0.02 -0.03 -0.01 -0.04 -0.02 -0.03 -0.01 -0.03 -0.02 -0.03 -0.01 -0.03 -0.02 -0.04 -0.01 -0.03 -0.02 -0.03 -0.02 -0.03 -0.01 -0.03 -0.02 -0.04 -0.01 -0.03 -0.02 -0.03 -0.01 0 0 -0.03 -0.02 -0.03 -0.02 -0.04 -0.01 -0.03 -0.02 -0.03 -0.01 0 0 -0.03 -0.02 0 0 -0.03 -0.01 0 0 -0.04 -0.02 0 0 -0.03 -0.02 -0.03 -0.01 0 0 -0.03 -0.02 -0.03 -0.01 -0.03 -0.02 -0.04 -0.02 -0.03 -0.01 0 0 -0.03 -0.02 -0.03 -0.02 0 0 -0.03 -0.01 0 0 -0.03 -0.02 -0.03 -0.01 0 0 -0.04 -0.02 0 0 -0.03 -0.02 -0.03 -0.01 0 0 -0.03 -0.02 -0.03 -0.01 -0.03 -0.02 -0.03 -0.02 -0.04 -0.01 0 0 -0.03 -0.02 -0.03 -0.02 0 0 -0.03 -0.01 -0.03 -0.02 -0.03 -0.02 -0.03 -0.01 -0.03 -0.02 0 0 -0.03 -0.01 -0.04 -0.02 0 0 -0.03 -0.02 -0.03 -0.01 -0.03 -0.02 -0.03 -0.02 -0.03 -0.01 -0.03 -0.02c-0.55,0.48 -1.13,0.93 -1.72,1.34 -0.14,0.1 -0.27,0.19 -0.4,0.28 -2.2,1.46 -4.7,2.52 -7.38,3.05 2.68,-0.53 5.18,-1.59 7.38,-3.05z"/>
   <path class="fil5" d="M12.29 28.38c-0.43,0 -0.87,0 -1.3,-0.01 -0.47,-0.01 -0.94,-0.03 -1.41,-0.05l0 0c-0.37,-0.14 -0.74,-0.31 -1.1,-0.49l0 0c0.1,-0.01 0.2,-0.02 0.31,-0.03 0.56,-0.05 1.12,-0.06 1.68,-0.06 0.18,0 0.36,0 0.54,0 1.47,0.05 2.94,0.17 4.4,0.46 -1.04,0.15 -2.08,0.18 -3.12,0.18z"/>
   <path class="fil9" d="M14.66 26.78c-1.07,0 -2.13,-0.14 -3.14,-0.44 -0.93,-0.26 -1.84,-0.67 -2.7,-1.19 8.23,-1.65 14.69,-8.16 16.27,-16.42 0.08,0.13 0.15,0.26 0.23,0.39 0.7,1.22 1.2,2.56 1.45,3.97 0.03,0.18 0.06,0.36 0.08,0.54 0.05,0.4 0.09,0.8 0.1,1.2 0.02,0.96 -0.09,1.94 -0.32,2.89 -0.05,0.2 -0.11,0.4 -0.17,0.6 -0.31,1.02 -0.76,2 -1.34,2.86 -0.08,0.12 -0.16,0.23 -0.24,0.35 -0.1,0.13 -0.2,0.27 -0.31,0.4 -0.85,1.09 -1.87,2.02 -3.02,2.77 -0.37,0.24 -0.76,0.47 -1.15,0.67 -1.77,0.91 -3.74,1.41 -5.74,1.41z"/>
  </g>
 </g>
</svg>
