<?xml version="1.0" encoding="UTF-8"?>
<!DOCTYPE svg PUBLIC "-//W3C//DTD SVG 1.1//EN" "http://www.w3.org/Graphics/SVG/1.1/DTD/svg11.dtd">
<!-- Creator: CorelDRAW -->
<svg xmlns="http://www.w3.org/2000/svg" xml:space="preserve" width="269px" height="226px" version="1.1" style="shape-rendering:geometricPrecision; text-rendering:geometricPrecision; image-rendering:optimizeQuality; fill-rule:evenodd; clip-rule:evenodd"
viewBox="0 0 61.53 51.75"
 xmlns:xlink="http://www.w3.org/1999/xlink"
 xmlns:xodm="http://www.corel.com/coreldraw/odm/2003">
 <defs>
  <style type="text/css">
   <![CDATA[
    .fil5 {fill:#F16882;fill-rule:nonzero}
    .fil12 {fill:#F05563;fill-rule:nonzero}
    .fil3 {fill:#EF4F78;fill-rule:nonzero}
    .fil10 {fill:#EF495D;fill-rule:nonzero}
    .fil4 {fill:#D9315B;fill-rule:nonzero}
    .fil2 {fill:#D37482;fill-rule:nonzero}
    .fil9 {fill:#BD525B;fill-rule:nonzero}
    .fil11 {fill:#B93444;fill-rule:nonzero}
    .fil1 {fill:#B66174;fill-rule:nonzero}
    .fil8 {fill:#934250;fill-rule:nonzero}
    .fil0 {fill:#783D50;fill-rule:nonzero}
    .fil7 {fill:#4D2C38;fill-rule:nonzero}
    .fil6 {fill:#262632;fill-rule:nonzero}
   ]]>
  </style>
 </defs>
 <g id="Layer_x0020_1">
  <metadata id="CorelCorpID_0Corel-Layer"/>
  <g id="_2100266862976">
   <path class="fil0" d="M30.76 51.75c-0.33,0 -0.65,-0.02 -0.97,-0.07 -2.51,-0.36 -4.76,-0.86 -6.89,-1.51 -6.86,-2.11 -12.62,-6.03 -16.65,-11.33 -4.83,-6.33 -7.07,-14.7 -5.98,-22.36 0.55,-3.89 1.92,-7.31 3.97,-9.89 2.36,-2.97 5.65,-4.99 9.77,-5.98 1.68,-0.41 3.37,-0.61 5.02,-0.61 2.87,0 5.59,0.61 8.07,1.81 1.28,0.62 2.51,1.41 3.66,2.37 1.16,-0.96 2.39,-1.75 3.67,-2.37 2.48,-1.2 5.2,-1.81 8.07,-1.81 1.66,0 3.35,0.2 5.02,0.61 4.12,0.99 7.41,3 9.77,5.98 2.59,3.27 3.59,7.18 3.97,9.89 1.09,7.67 -1.15,16.03 -5.98,22.37 -4.03,5.29 -9.79,9.21 -16.65,11.32 -2.13,0.65 -4.38,1.15 -6.87,1.51 -0.34,0.05 -0.66,0.07 -1,0.07z"/>
   <path class="fil1" d="M30.76 50.6c-0.27,0 -0.54,-0.02 -0.81,-0.06 -2.46,-0.35 -4.64,-0.84 -6.71,-1.47 -6.63,-2.04 -12.19,-5.82 -16.08,-10.92 -4.64,-6.1 -6.79,-14.14 -5.75,-21.51 0.52,-3.69 1.81,-6.91 3.73,-9.33 2.2,-2.77 5.27,-4.65 9.14,-5.58 1.59,-0.39 3.19,-0.58 4.75,-0.58 2.7,0 5.25,0.57 7.57,1.69 1.49,0.72 2.89,1.69 4.16,2.86 1.28,-1.17 2.68,-2.14 4.17,-2.86 2.32,-1.12 4.87,-1.69 7.57,-1.69 1.57,0 3.16,0.19 4.75,0.58 3.86,0.93 6.94,2.81 9.14,5.58 2.43,3.06 3.37,6.76 3.73,9.33 1.04,7.37 -1.11,15.41 -5.76,21.51 -3.88,5.1 -9.44,8.88 -16.07,10.92 -2.08,0.64 -4.26,1.12 -6.69,1.47 -0.29,0.04 -0.56,0.06 -0.84,0.06z"/>
   <path class="fil2" d="M1.41 18.94c0.52,-3.69 1.81,-6.91 3.73,-9.33 2.2,-2.77 5.27,-4.65 9.14,-5.58 1.59,-0.39 3.19,-0.58 4.75,-0.58 2.7,0 5.25,0.57 7.57,1.69 1.49,0.72 2.89,1.69 4.16,2.86 1.28,-1.17 2.68,-2.14 4.17,-2.86 2.32,-1.12 4.87,-1.69 7.57,-1.69 1.57,0 3.16,0.19 4.75,0.58 3.86,0.93 6.94,2.81 9.14,5.58 2.43,3.06 3.37,6.76 3.73,9.33 0.12,0.84 0.19,1.68 0.23,2.53 0.06,-1.62 0,-3.24 -0.23,-4.83 -0.36,-2.57 -1.3,-6.27 -3.73,-9.33 -2.2,-2.77 -5.28,-4.65 -9.14,-5.58 -1.59,-0.39 -3.18,-0.58 -4.75,-0.58 -2.7,0 -5.25,0.57 -7.57,1.69 -1.49,0.72 -2.89,1.69 -4.17,2.86 -1.27,-1.17 -2.67,-2.14 -4.16,-2.86 -2.32,-1.12 -4.87,-1.69 -7.57,-1.69 -1.56,0 -3.16,0.19 -4.75,0.58 -3.87,0.93 -6.94,2.81 -9.14,5.58 -1.92,2.42 -3.21,5.64 -3.73,9.33 -0.23,1.59 -0.29,3.21 -0.23,4.83 0.04,-0.85 0.11,-1.7 0.23,-2.53z"/>
   <path class="fil0" d="M5.02 7.46c0.77,-0.1 1.54,-0.19 2.31,-0.28 2.96,-0.35 5.94,-0.57 8.91,-0.76 2.98,-0.15 5.96,-0.26 8.94,-0.24l4.48 0.06c1.49,0.07 2.98,0.12 4.46,0.24 -1.48,0.14 -2.97,0.21 -4.46,0.32l-4.45 0.26 -8.9 0.51 -8.9 0.49c-0.98,0.05 -1.96,0.1 -2.93,0.15 0.17,-0.26 0.36,-0.51 0.54,-0.75z"/>
   <path class="fil0" d="M39.21 4.71c2.93,-0.56 5.89,-0.96 8.85,-1.3 1.01,-0.12 2.03,-0.23 3.04,-0.32 0.58,0.29 1.14,0.6 1.68,0.94l-4.65 0.26c-2.96,0.15 -5.93,0.33 -8.92,0.42z"/>
   <path class="fil0" d="M1.36 17.01c1.15,0.02 2.31,0.11 3.47,0.32 -1.18,0.35 -2.38,0.56 -3.58,0.69 0.03,-0.33 0.07,-0.67 0.11,-1.01z"/>
   <path class="fil0" d="M43.49 19c4.29,-0.86 8.62,-1.38 12.95,-1.81 1.24,-0.11 2.47,-0.21 3.71,-0.31 0.05,0.36 0.09,0.71 0.12,1.06 -1.24,0.15 -2.48,0.27 -3.72,0.4 -4.34,0.39 -8.68,0.7 -13.06,0.66z"/>
   <path class="fil0" d="M58.37 10.54c-1.47,0.15 -2.96,0.22 -4.47,0.08 1.3,-0.51 2.62,-0.84 3.95,-1.1 0.19,0.34 0.36,0.68 0.52,1.02z"/>
   <path class="fil0" d="M59.19 22.52c-1.87,0.64 -3.86,0.61 -5.75,0.56 -1.9,-0.1 -3.81,-0.28 -5.7,-0.82 1.93,-0.38 3.84,-0.4 5.75,-0.33 1.93,0.09 3.77,0.33 5.7,0.59z"/>
   <path class="fil0" d="M5.51 35.73c1.06,-0.05 2.12,-0.09 3.18,-0.13 2.96,-0.1 5.92,-0.19 8.88,-0.19l4.45 0.01c1.48,0.04 2.96,0.04 4.45,0.12 -1.48,0.18 -2.96,0.29 -4.43,0.44l-4.43 0.32c-2.96,0.21 -5.92,0.33 -8.88,0.44 -0.84,0.03 -1.68,0.06 -2.52,0.08 -0.24,-0.36 -0.47,-0.72 -0.7,-1.09z"/>
   <path class="fil0" d="M42.06 33.28c3.49,-0.84 7.03,-1.27 10.58,-1.56 1.84,-0.14 3.68,-0.23 5.53,-0.25 -0.13,0.31 -0.27,0.63 -0.4,0.94 -1.68,0.17 -3.36,0.32 -5.04,0.45 -3.54,0.25 -7.08,0.48 -10.67,0.42z"/>
   <path class="fil0" d="M5.67 32.46c3.48,-0.83 7.03,-1.27 10.58,-1.56 3.55,-0.25 7.12,-0.36 10.69,-0.06 -3.53,0.61 -7.07,0.92 -10.61,1.21 -3.54,0.25 -7.08,0.48 -10.66,0.41z"/>
   <path class="fil0" d="M30.76 40.49c3.49,-0.84 7.03,-1.27 10.58,-1.56 3.55,-0.26 7.12,-0.37 10.69,-0.07 -3.53,0.61 -7.06,0.93 -10.6,1.21 -3.54,0.25 -7.08,0.48 -10.67,0.42z"/>
   <path class="fil0" d="M43.82 46.84l-1.31 0.14c-2.67,0.24 -5.33,0.48 -8.01,0.64l-4.01 0.23c-1.34,0.03 -2.68,0.11 -4.02,0.1 1.32,-0.25 2.64,-0.44 3.96,-0.66l3.99 -0.55c2.65,-0.36 5.31,-0.64 7.97,-0.91 1.28,-0.12 2.56,-0.23 3.83,-0.34 -0.77,0.48 -1.57,0.93 -2.4,1.35z"/>
   <path class="fil0" d="M31.05 22.62c-2.64,0.49 -5.29,0.86 -7.95,1.21 -2.65,0.36 -5.31,0.64 -7.98,0.91 -2.66,0.25 -5.33,0.49 -8,0.64l-4.01 0.23c-0.49,0.01 -0.97,0.03 -1.46,0.05 -0.02,-0.12 -0.04,-0.25 -0.07,-0.37 0.49,-0.08 0.98,-0.16 1.47,-0.24l3.98 -0.55c2.66,-0.36 5.32,-0.63 7.98,-0.9 2.67,-0.25 5.33,-0.49 8.01,-0.65 2.67,-0.16 5.35,-0.31 8.03,-0.33z"/>
   <path class="fil0" d="M12.32 43.39c2.2,0.01 4.4,0.14 6.61,0.47 -1.74,0.32 -3.48,0.48 -5.22,0.58 -0.47,-0.34 -0.94,-0.69 -1.39,-1.05z"/>
   <path class="fil0" d="M30.76 46l-0.16 -0.01c-2.2,-0.32 -4.17,-0.75 -6.01,-1.32 -5.7,-1.75 -10.46,-4.97 -13.77,-9.31 -3.91,-5.14 -5.73,-11.9 -4.86,-18.08 0.41,-2.87 1.37,-5.33 2.78,-7.11 1.55,-1.95 3.77,-3.29 6.62,-3.97 1.24,-0.3 2.47,-0.45 3.67,-0.45 2,0 3.87,0.42 5.57,1.23 2.49,1.21 4.65,3.37 6.16,6.1 1.52,-2.73 3.68,-4.89 6.17,-6.1 1.7,-0.81 3.57,-1.23 5.57,-1.23 1.2,0 2.43,0.15 3.67,0.45 2.85,0.68 5.07,2.02 6.62,3.97 1.78,2.25 2.49,5.11 2.78,7.11 0.87,6.18 -0.95,12.94 -4.86,18.08 -3.3,4.34 -8.07,7.56 -13.77,9.31 -1.84,0.57 -3.81,1 -6.01,1.32l-0.17 0.01z"/>
   <path class="fil3" d="M54.43 17.44c-0.34,-2.42 -1.15,-4.8 -2.54,-6.55 -1.58,-1.99 -3.78,-3.04 -5.99,-3.57 -2.81,-0.68 -5.8,-0.59 -8.47,0.7 -2.92,1.41 -5.34,4.29 -6.66,7.8 -1.32,-3.51 -3.75,-6.39 -6.67,-7.8 -2.67,-1.29 -5.65,-1.38 -8.47,-0.7 -2.21,0.53 -4.41,1.58 -5.99,3.57 -1.39,1.75 -2.19,4.13 -2.54,6.55 -0.87,6.18 1.16,12.66 4.64,17.22 3.48,4.58 8.26,7.39 13.19,8.91 1.92,0.59 3.87,1 5.84,1.28 1.96,-0.28 3.91,-0.69 5.83,-1.28 4.93,-1.52 9.71,-4.33 13.19,-8.91 3.48,-4.56 5.51,-11.04 4.64,-17.22z"/>
   <path class="fil4" d="M30.27 28.35c-3.29,-1.81 -5.17,-5.16 -7.58,-7.9 -3.59,-4.08 -10.54,-5.92 -15.56,-3.18l-0.03 0.17c-0.87,6.18 1.16,12.66 4.64,17.22 3.48,4.58 8.26,7.39 13.19,8.91 1.92,0.59 3.87,1 5.84,1.28 1.96,-0.28 3.91,-0.69 5.83,-1.28 4.93,-1.52 9.71,-4.33 13.19,-8.91 2.96,-3.88 4.86,-9.13 4.83,-14.41 -0.67,0.88 -1.37,1.74 -2.13,2.55 -5.47,5.89 -14.54,9.76 -22.22,5.55z"/>
   <path class="fil5" d="M49.35 12.79c-1.19,-1.88 -3.58,-2.79 -5.72,-2.88 -1.85,-0.09 -5.35,0.61 -5.42,3.03 -0.07,2.79 4.34,2.33 5.81,3.96 0.5,0.56 0.86,1.23 1.39,1.75 1.2,1.19 3.71,1.62 4.94,0.23 1.44,-1.63 -0.06,-4.6 -1,-6.09z"/>
   <path class="fil6" d="M30.76 51.75c-0.33,0 -0.65,-0.02 -0.97,-0.07 -2.51,-0.36 -4.76,-0.86 -6.89,-1.51 -0.04,-0.02 -0.08,-0.03 -0.12,-0.04 0.04,0.01 0.08,0.02 0.12,0.04 2.13,0.65 4.38,1.15 6.89,1.51 0.32,0.05 0.64,0.07 0.97,0.07 0.34,0 0.66,-0.02 1,-0.07 2.49,-0.36 4.74,-0.86 6.87,-1.51 6.86,-2.11 12.62,-6.03 16.65,-11.32 4.03,-5.29 6.25,-11.98 6.25,-18.51 0,6.53 -2.22,13.22 -6.25,18.51 -4.03,5.29 -9.79,9.21 -16.65,11.32 -2.13,0.65 -4.38,1.15 -6.87,1.51 -0.34,0.05 -0.66,0.07 -1,0.07zm-7.98 -1.62c-0.01,0 -0.02,-0.01 -0.04,-0.01 0.02,0 0.03,0.01 0.04,0.01zm-0.04 -0.01c-0.01,-0.01 -0.02,-0.01 -0.03,-0.01 0.01,0 0.02,0 0.03,0.01zm-0.04 -0.02c-0.01,0 -0.02,0 -0.03,-0.01 0.01,0.01 0.02,0.01 0.03,0.01zm-0.04 -0.01c-0.01,0 -0.02,0 -0.03,-0.01 0.01,0.01 0.02,0.01 0.03,0.01zm-0.04 -0.01c-0.01,0 -0.02,-0.01 -0.02,-0.01 0,0 0.01,0.01 0.02,0.01zm-0.05 -0.02c0,0 0,0 0,0 0,0 0,0 0,0zm34.72 -43.47c0,-0.01 -0.01,-0.02 -0.02,-0.03 0.01,0.01 0.02,0.02 0.02,0.03zm-0.03 -0.04c0,0 -0.01,-0.01 -0.01,-0.01 0,0 0.01,0.01 0.01,0.01z"/>
   <path class="fil7" d="M30.76 51.75c-0.33,0 -0.65,-0.02 -0.97,-0.07 -2.51,-0.36 -4.76,-0.86 -6.89,-1.51 -0.04,-0.02 -0.08,-0.03 -0.12,-0.04l0 0c-0.01,0 -0.02,-0.01 -0.04,-0.01 0,0 0,0 0,0 -0.01,-0.01 -0.02,-0.01 -0.03,-0.01 -0.01,0 -0.01,-0.01 -0.01,-0.01 -0.01,0 -0.02,0 -0.03,-0.01 0,0 -0.01,0 -0.01,0 -0.01,0 -0.02,0 -0.03,-0.01 0,0 -0.01,0 -0.01,0 -0.01,0 -0.02,-0.01 -0.02,-0.01 -0.01,0 -0.02,0 -0.03,-0.01 0,0 0,0 0,0 -6.15,-1.95 -11.38,-5.38 -15.27,-9.95 0.56,0.08 1.12,0.15 1.69,0.21 1.02,1.1 2.14,2.13 3.33,3.07l0 0c0.45,0.36 0.92,0.71 1.39,1.05l0 0c2.82,1.99 6.03,3.55 9.53,4.63 2.07,0.63 4.25,1.12 6.71,1.47 0.27,0.04 0.54,0.06 0.81,0.06 0.28,0 0.55,-0.02 0.84,-0.06 2.43,-0.35 4.61,-0.83 6.69,-1.47 1.94,-0.6 3.79,-1.35 5.53,-2.23l0 0c0.83,-0.42 1.63,-0.87 2.4,-1.35l0 0c3.19,-1.97 5.94,-4.44 8.14,-7.34 1.36,-1.77 2.5,-3.71 3.41,-5.74l0 0c0.13,-0.31 0.27,-0.62 0.4,-0.94l0 0c1.91,-4.69 2.63,-9.85 1.97,-14.72 0,0 0,0 0,0 0,-0.01 -0.01,-0.02 -0.01,-0.03 0,-0.01 0,-0.02 0,-0.02 0,-0.01 0,-0.01 0,-0.02 0,-0.01 -0.01,-0.03 -0.01,-0.04l0 0c-0.36,-2.57 -1.3,-6.27 -3.73,-9.33 -1.49,-1.88 -3.38,-3.35 -5.65,-4.39 0,-0.15 0,-0.31 0,-0.47 0,-0.26 -0.01,-0.52 -0.02,-0.78 2.63,1.11 4.82,2.73 6.53,4.87 0,0 0.01,0.01 0.01,0.01 0,0 0.01,0.01 0.01,0.01 0.01,0.01 0.02,0.02 0.02,0.03l0 0c2.59,3.27 3.59,7.18 3.97,9.89 0.18,1.27 0.27,2.56 0.27,3.86 0,6.53 -2.22,13.22 -6.25,18.51 -4.03,5.29 -9.79,9.21 -16.65,11.32 -2.13,0.65 -4.38,1.15 -6.87,1.51 -0.34,0.05 -0.66,0.07 -1,0.07z"/>
   <path class="fil8" d="M30.76 50.6c-0.27,0 -0.54,-0.02 -0.81,-0.06 -2.46,-0.35 -4.64,-0.84 -6.71,-1.47 -3.5,-1.08 -6.71,-2.64 -9.53,-4.63 1.74,-0.1 3.48,-0.26 5.22,-0.58 -2.21,-0.33 -4.41,-0.46 -6.61,-0.47 -1.19,-0.94 -2.31,-1.97 -3.33,-3.07 1.22,0.12 2.45,0.18 3.7,0.18 1.09,0 2.17,-0.05 3.24,-0.13 2.53,1.85 5.45,3.31 8.66,4.3 1.84,0.57 3.81,1 6.01,1.32l0.16 0.01 0.17 -0.01c2.2,-0.32 4.17,-0.75 6.01,-1.32 3.64,-1.12 6.9,-2.84 9.64,-5.07 1.82,-0.19 3.64,-0.43 5.45,-0.74 -1.46,-0.12 -2.91,-0.18 -4.37,-0.18 1.12,-1.02 2.14,-2.12 3.05,-3.32 0.6,-0.79 1.15,-1.61 1.65,-2.47 0.12,-0.01 0.25,-0.02 0.37,-0.03 1.68,-0.13 3.36,-0.28 5.04,-0.45 -0.91,2.03 -2.05,3.97 -3.41,5.74 -2.2,2.9 -4.95,5.37 -8.14,7.34 -1.27,0.11 -2.55,0.22 -3.83,0.34 -2.66,0.27 -5.32,0.55 -7.97,0.91l-3.99 0.55c-1.32,0.22 -2.64,0.41 -3.96,0.66 0,0 0,0 0.01,0 1.34,0 2.67,-0.07 4.01,-0.1l4.01 -0.23c2.68,-0.16 5.34,-0.4 8.01,-0.64 0.43,-0.05 0.87,-0.1 1.31,-0.14 -1.74,0.88 -3.59,1.63 -5.53,2.23 -2.08,0.64 -4.26,1.12 -6.69,1.47 -0.29,0.04 -0.56,0.06 -0.84,0.06zm22.26 -18.91c1.37,-2.69 2.27,-5.63 2.61,-8.6 1.19,-0.03 2.4,-0.17 3.56,-0.57 -1.18,-0.16 -2.32,-0.31 -3.47,-0.42 0.09,-1.24 0.08,-2.47 -0.02,-3.69 0.28,-0.02 0.56,-0.05 0.85,-0.07 1.14,-0.11 2.28,-0.23 3.42,-0.36 0.06,0.33 0.11,0.65 0.15,0.96 0.12,0.84 0.19,1.68 0.23,2.53 0.05,-1.18 0.02,-2.36 -0.08,-3.53 0,0 0,0 0,0 -0.03,-0.35 -0.07,-0.7 -0.12,-1.06l0 0c0,-0.04 -0.01,-0.08 -0.01,-0.13 0.66,4.87 -0.06,10.03 -1.97,14.72 -1.72,0.02 -3.44,0.1 -5.15,0.22zm2.55 -14.41c-0.29,-2 -1,-4.86 -2.78,-7.11 -0.68,-0.86 -1.5,-1.6 -2.44,-2.22 0.13,-0.92 0.23,-1.84 0.29,-2.77 2.31,1.04 4.24,2.52 5.75,4.43 0.05,0.06 0.1,0.13 0.15,0.19 -0.89,0.21 -1.77,0.48 -2.64,0.82 0.57,0.05 1.14,0.08 1.7,0.08 0.52,0 1.03,-0.02 1.54,-0.06 1.37,2.07 2.16,4.32 2.61,6.27 -1.11,0.09 -2.21,0.18 -3.31,0.28 -0.29,0.03 -0.58,0.06 -0.87,0.09zm4.57 -0.53c0,-0.01 -0.01,-0.02 -0.01,-0.03 0,0.01 0.01,0.02 0.01,0.03zm-0.01 -0.05c0,-0.01 0,-0.01 0,-0.02 0,0.01 0,0.01 0,0.02zm-0.01 -0.06l0 0c-0.24,-1.71 -0.74,-3.91 -1.75,-6.1l0 0c-0.16,-0.34 -0.33,-0.68 -0.52,-1.02l0 0c-0.41,-0.76 -0.89,-1.5 -1.46,-2.21 -1.02,-1.29 -2.23,-2.38 -3.62,-3.28l0.01 0c-0.54,-0.34 -1.1,-0.65 -1.68,-0.94l0 0c-0.12,-0.06 -0.24,-0.11 -0.36,-0.17l0 0c2.27,1.04 4.16,2.51 5.65,4.39 2.43,3.06 3.37,6.76 3.73,9.33l0 0z"/>
   <path class="fil9" d="M60.35 21.47c-0.04,-0.85 -0.11,-1.69 -0.23,-2.53 -0.04,-0.31 -0.09,-0.63 -0.15,-0.96 0.1,-0.01 0.2,-0.03 0.3,-0.04 0.1,1.17 0.13,2.35 0.08,3.53zm-0.6 -4.56c-0.45,-1.95 -1.24,-4.2 -2.61,-6.27 0.41,-0.02 0.82,-0.06 1.23,-0.1 1.01,2.19 1.51,4.39 1.75,6.1l0 0c0,0.01 0.01,0.03 0.01,0.04 0,0.01 0,0.01 0,0.02 0,0 0,0.01 0,0.02 0,0.01 0.01,0.02 0.01,0.03 0,0 0,0 0,0 0,0.05 0.01,0.09 0.01,0.13 -0.13,0.01 -0.27,0.02 -0.4,0.03zm-3.21 -7.11c-0.05,-0.06 -0.1,-0.13 -0.15,-0.19 -1.51,-1.91 -3.44,-3.39 -5.75,-4.43 0.03,-0.34 0.05,-0.69 0.06,-1.03l2.07 -0.12c1.39,0.9 2.6,1.99 3.62,3.28 0.57,0.71 1.05,1.45 1.46,2.21 -0.44,0.08 -0.87,0.18 -1.31,0.28zm-5.81 -6.67c0.01,-0.07 0.01,-0.14 0.01,-0.21 0.12,0.06 0.24,0.11 0.36,0.17 -0.12,0.01 -0.24,0.02 -0.37,0.04z"/>
   <path class="fil7" d="M50.7 4.15c0.02,-0.34 0.03,-0.68 0.03,-1.02 0.13,-0.02 0.25,-0.03 0.37,-0.04l0 0c0.58,0.29 1.14,0.6 1.68,0.94l-0.01 0 -2.07 0.12z"/>
   <path class="fil7" d="M55.7 18.41c-0.04,-0.37 -0.08,-0.75 -0.13,-1.13 0,0 0,0 0,0 0.29,-0.03 0.58,-0.06 0.87,-0.09 1.1,-0.1 2.2,-0.19 3.31,-0.28 0.13,-0.01 0.27,-0.02 0.4,-0.03l0 0c0.05,0.36 0.09,0.71 0.12,1.06 0,0 0,0 0,0 -0.1,0.01 -0.2,0.03 -0.3,0.04 -1.14,0.13 -2.28,0.25 -3.42,0.36 -0.29,0.02 -0.57,0.05 -0.85,0.07z"/>
   <path class="fil7" d="M55.6 10.7c-0.56,0 -1.13,-0.03 -1.7,-0.08 0.87,-0.34 1.75,-0.61 2.64,-0.82 0.44,-0.1 0.87,-0.2 1.31,-0.28l0 0c0.19,0.34 0.36,0.68 0.52,1.02l0 0c-0.41,0.04 -0.82,0.08 -1.23,0.1 -0.51,0.04 -1.02,0.06 -1.54,0.06z"/>
   <path class="fil7" d="M55.63 23.09c0.03,-0.33 0.07,-0.66 0.09,-0.99 1.15,0.11 2.29,0.26 3.47,0.42 -1.16,0.4 -2.37,0.54 -3.56,0.57z"/>
   <path class="fil7" d="M52.36 32.89c0.23,-0.4 0.45,-0.8 0.66,-1.2 1.71,-0.12 3.43,-0.2 5.15,-0.22l0 0c-0.13,0.32 -0.27,0.63 -0.4,0.94l0 0c-1.68,0.17 -3.36,0.32 -5.04,0.45 -0.12,0.01 -0.25,0.02 -0.37,0.03z"/>
   <path class="fil7" d="M46.58 39.6c0.37,-0.3 0.73,-0.6 1.08,-0.92 1.46,0 2.91,0.06 4.37,0.18 -1.81,0.31 -3.63,0.55 -5.45,0.74z"/>
   <path class="fil7" d="M26.48 47.95c-0.01,0 -0.01,0 -0.01,0 1.32,-0.25 2.64,-0.44 3.96,-0.66l3.99 -0.55c2.65,-0.36 5.31,-0.64 7.97,-0.91 1.28,-0.12 2.56,-0.23 3.83,-0.34l0 0c-0.77,0.48 -1.57,0.93 -2.4,1.35l0 0c-0.44,0.04 -0.88,0.09 -1.31,0.14 -2.67,0.24 -5.33,0.48 -8.01,0.64l-4.01 0.23c-1.34,0.03 -2.67,0.1 -4.01,0.1z"/>
   <path class="fil7" d="M13.71 44.44c-0.47,-0.34 -0.94,-0.69 -1.39,-1.05l0 0c2.2,0.01 4.4,0.14 6.61,0.47 -1.74,0.32 -3.48,0.48 -5.22,0.58l0 0z"/>
   <path class="fil7" d="M30.76 46l-0.16 -0.01c-2.2,-0.32 -4.17,-0.75 -6.01,-1.32 -3.21,-0.99 -6.13,-2.45 -8.66,-4.3 0.58,-0.05 1.16,-0.12 1.73,-0.19 2.29,1.51 4.76,2.62 7.27,3.39 1.92,0.59 3.87,1 5.84,1.28 1.96,-0.28 3.91,-0.69 5.83,-1.28 4.93,-1.52 9.71,-4.33 13.19,-8.91 0.01,0 0.01,-0.01 0.02,-0.02 0,0 0,-0.01 0.01,-0.01 0,0 0.01,-0.01 0.01,-0.02 0,0 0,0 0.01,0 0,-0.01 0.01,-0.02 0.01,-0.02 0,0 0,-0.01 0.01,-0.01 0,0 0,-0.01 0.01,-0.02 0,0 0,0 0.01,-0.01 0,0 0.01,-0.01 0.01,-0.02 0,0 0,0 0,0 0.01,-0.01 0.02,-0.02 0.02,-0.03 0,0 0.01,0 0.01,0 0,-0.01 0.01,-0.02 0.01,-0.02 0,0 0.01,-0.01 0.01,-0.01 0,-0.01 0.01,-0.01 0.01,-0.01 0,-0.01 0.01,-0.01 0.01,-0.02 0,0 0,-0.01 0.01,-0.01 0,0 0.01,-0.01 0.01,-0.02 0,0 0,0 0,0 3.37,-4.55 5.31,-10.9 4.45,-16.97 -0.34,-2.42 -1.15,-4.8 -2.54,-6.55 -0.52,-0.66 -1.11,-1.22 -1.75,-1.68 0.08,-0.42 0.15,-0.84 0.21,-1.26 0.94,0.62 1.76,1.36 2.44,2.22 1.78,2.25 2.49,5.11 2.78,7.11 0,0 0,0 0,0 0.05,0.38 0.09,0.76 0.13,1.13 0.1,1.22 0.11,2.45 0.02,3.69 -0.02,0.33 -0.06,0.66 -0.09,0.99 -0.34,2.97 -1.24,5.91 -2.61,8.6 -0.21,0.4 -0.43,0.8 -0.66,1.2 -0.5,0.86 -1.05,1.68 -1.65,2.47 -0.91,1.2 -1.93,2.3 -3.05,3.32 -0.35,0.32 -0.71,0.62 -1.08,0.92 -2.74,2.23 -6,3.95 -9.64,5.07 -1.84,0.57 -3.81,1 -6.01,1.32l-0.17 0.01z"/>
   <path class="fil10" d="M49.81 34.64c0,0 0,-0.01 0.01,-0.01 -0.01,0 -0.01,0.01 -0.01,0.01zm0.02 -0.03c0,0 0,0 0.01,0 -0.01,0 -0.01,0 -0.01,0zm0.02 -0.02c0,0 0,-0.01 0.01,-0.01 -0.01,0 -0.01,0.01 -0.01,0.01zm0.02 -0.03c0,0 0,0 0.01,-0.01 -0.01,0.01 -0.01,0.01 -0.01,0.01zm0.02 -0.03c0,0 0,0 0,0 0,0 0,0 0,0zm0.02 -0.03c0,0 0.01,0 0.01,0 0,0 -0.01,0 -0.01,0zm0.02 -0.02c0,0 0.01,-0.01 0.01,-0.01 0,0 -0.01,0.01 -0.01,0.01zm0.02 -0.02c0,-0.01 0.01,-0.02 0.01,-0.02 0,0.01 -0.01,0.01 -0.01,0.02zm0.02 -0.03c0,0 0.01,-0.01 0.01,-0.02 0,0.01 -0.01,0.02 -0.01,0.02zm0.01 -0.02c2.85,-3.85 4.67,-8.99 4.64,-14.16 -0.67,0.88 -1.37,1.74 -2.13,2.55 -3.5,3.76 -8.46,6.7 -13.59,7.23 3.19,-3.02 5.84,-6.59 7.83,-10.56 0.47,0.18 0.99,0.28 1.49,0.28 0.81,0 1.59,-0.26 2.13,-0.87 1.44,-1.63 -0.06,-4.6 -1,-6.09 -0.01,-0.01 -0.01,-0.02 -0.02,-0.03 0.32,-1.16 0.6,-2.35 0.81,-3.55 0.64,0.46 1.23,1.02 1.75,1.68 1.39,1.75 2.2,4.13 2.54,6.55 0.86,6.07 -1.08,12.42 -4.45,16.97z"/>
   <path class="fil11" d="M30.77 44.85c-1.97,-0.28 -3.92,-0.69 -5.84,-1.28 -2.51,-0.77 -4.98,-1.88 -7.27,-3.39 8.18,-1.07 15.55,-4.74 21.24,-10.15 5.13,-0.53 10.09,-3.47 13.59,-7.23 0.76,-0.81 1.46,-1.67 2.13,-2.55 0.03,5.17 -1.79,10.31 -4.64,14.16 0,0 0,0 0,0 0,0.01 -0.01,0.02 -0.01,0.02 -0.01,0 -0.01,0.01 -0.01,0.01 0,0 -0.01,0.01 -0.01,0.02 0,0 -0.01,0 -0.01,0.01 0,0 -0.01,0.01 -0.01,0.01 0,0 -0.01,0.01 -0.01,0.02 0,0 -0.01,0 -0.01,0 0,0.01 -0.01,0.02 -0.02,0.03 0,0 0,0 0,0 0,0.01 -0.01,0.02 -0.01,0.02 -0.01,0.01 -0.01,0.01 -0.01,0.01 -0.01,0.01 -0.01,0.02 -0.01,0.02 -0.01,0 -0.01,0.01 -0.01,0.01 0,0 -0.01,0.01 -0.01,0.02 -0.01,0 -0.01,0 -0.01,0 0,0.01 -0.01,0.02 -0.01,0.02 -0.01,0 -0.01,0.01 -0.01,0.01 -0.01,0.01 -0.01,0.02 -0.02,0.02 -3.48,4.58 -8.26,7.39 -13.19,8.91 -1.92,0.59 -3.87,1 -5.83,1.28z"/>
   <path class="fil12" d="M48.22 19.75c-0.5,0 -1.02,-0.1 -1.49,-0.28 1.07,-2.13 1.94,-4.38 2.6,-6.71 0.01,0.01 0.01,0.02 0.02,0.03 0.94,1.49 2.44,4.46 1,6.09 -0.54,0.61 -1.32,0.87 -2.13,0.87z"/>
  </g>
 </g>
</svg>
