<?xml version="1.0" encoding="UTF-8"?>
<!DOCTYPE svg PUBLIC "-//W3C//DTD SVG 1.1//EN" "http://www.w3.org/Graphics/SVG/1.1/DTD/svg11.dtd">
<!-- Creator: CorelDRAW -->
<svg xmlns="http://www.w3.org/2000/svg" xml:space="preserve" width="538px" height="1383px" version="1.1" style="shape-rendering:geometricPrecision; text-rendering:geometricPrecision; image-rendering:optimizeQuality; fill-rule:evenodd; clip-rule:evenodd"
viewBox="0 0 30.65 78.83"
 xmlns:xlink="http://www.w3.org/1999/xlink"
 xmlns:xodm="http://www.corel.com/coreldraw/odm/2003">
 <defs>
  <style type="text/css">
   <![CDATA[
    .fil10 {fill:#594942;fill-rule:nonzero}
    .fil1 {fill:#666666;fill-rule:nonzero}
    .fil13 {fill:#676764;fill-rule:nonzero}
    .fil9 {fill:#6DBF64;fill-rule:nonzero}
    .fil18 {fill:#6E7C49;fill-rule:nonzero}
    .fil19 {fill:gray;fill-rule:nonzero}
    .fil3 {fill:#895423;fill-rule:nonzero}
    .fil14 {fill:#8A9E5D;fill-rule:nonzero}
    .fil11 {fill:#90BD49;fill-rule:nonzero}
    .fil12 {fill:#B1D134;fill-rule:nonzero}
    .fil4 {fill:#B3B3B3;fill-rule:nonzero}
    .fil6 {fill:#C48C3A;fill-rule:nonzero}
    .fil2 {fill:#CC7C34;fill-rule:nonzero}
    .fil5 {fill:#DFDFDF;fill-rule:nonzero}
    .fil20 {fill:#E2C675;fill-rule:nonzero}
    .fil15 {fill:#EBC19C;fill-rule:nonzero}
    .fil8 {fill:#EFCFB3;fill-rule:nonzero}
    .fil16 {fill:#FBD872;fill-rule:nonzero}
    .fil17 {fill:#FFEB9C;fill-rule:nonzero}
    .fil0 {fill:black;fill-rule:nonzero;fill-opacity:0.200000}
    .fil7 {fill:#D3D1D3;fill-rule:nonzero}
   ]]>
  </style>
 </defs>
 <g id="Layer_x0020_1">
  <metadata id="CorelCorpID_0Corel-Layer"/>
  <path class="fil0" d="M2.41 69.77c0,4.55 4.87,11.43 13.52,8.24 2.95,-1.09 2.01,-4.07 4.27,-5.88 2.9,-2.32 6.88,-0.73 8.2,-2.68 2.34,-3.46 -3.63,-7.93 -11.59,-7.93 -7.95,0 -14.4,3.7 -14.4,8.25z"/>
  <g id="_2100416252512">
   <path class="fil1" d="M13.15 8.94c0,0 -0.88,-11.42 -9.64,-8.44l1.86 1.07c0,0 -5.47,-0.31 -5.37,5.99l1.2 -1.35c0,0 -1.2,4.04 2.07,5.57 0,0 0.09,-7 9.88,-2.84z"/>
   <g>
    <g>
     <g>
      <g>
       <g>
        <polygon class="fil2" points="8.56,18.18 6.12,16.76 18.24,23.67 20.68,25.09 "/>
       </g>
       <g>
        <polygon class="fil2" points="5.49,23.5 3.05,22.08 6.12,16.76 8.56,18.18 "/>
       </g>
       <g>
        <path class="fil3" d="M8.56 18.18l12.12 6.91c0.85,0.48 0.86,2.07 0.01,3.54 -0.42,0.73 -0.98,1.3 -1.54,1.62 -0.55,0.32 -1.11,0.4 -1.54,0.16l-12.12 -6.91 3.07 -5.32z"/>
       </g>
      </g>
     </g>
     <g>
      <polygon class="fil3" points="5.27,22.67 3.86,21.85 6.31,17.58 7.72,18.4 "/>
     </g>
    </g>
    <g>
     <g>
      <g>
       <polygon class="fil4" points="3.99,17.24 4.42,17.49 3.41,18.24 2.98,18 "/>
      </g>
      <g>
       <g>
        <polygon class="fil4" points="4.42,15.51 4.84,15.75 4.7,17 4.27,16.76 "/>
       </g>
       <g>
        <polygon class="fil5" points="3.43,16.92 3.99,17.24 2.98,18 3.41,18.24 4.42,17.49 3.99,17.24 4.97,17.8 3.96,18.56 2.42,17.68 "/>
       </g>
       <g>
        <polygon class="fil5" points="5.4,16.06 5.25,17.32 4.7,17 4.84,15.75 4.42,15.51 4.27,16.76 3.71,16.44 3.86,15.19 "/>
       </g>
      </g>
      <g>
       <polygon class="fil6" points="3.71,16.44 7.59,18.63 7.31,19.11 4.97,17.8 3.99,17.24 3.43,16.92 "/>
      </g>
     </g>
     <polygon class="fil4" points="3.96,18.56 4.46,18.87 5.52,18.11 4.97,17.8 "/>
     <polygon class="fil5" points="4.47,18.87 4.98,19.18 6.06,18.41 5.52,18.11 "/>
     <polygon class="fil4" points="5.4,16.06 5.89,16.36 5.77,17.6 5.25,17.32 "/>
     <polygon class="fil5" points="5.89,16.36 6.4,16.64 6.28,17.88 5.77,17.6 "/>
    </g>
    <g>
     <g>
      <g>
       <polygon class="fil4" points="1.67,20.21 2.1,20.46 1.08,21.21 0.65,20.97 "/>
      </g>
      <g>
       <g>
        <polygon class="fil4" points="2.09,18.47 2.52,18.72 2.38,19.97 1.95,19.73 "/>
       </g>
       <g>
        <polygon class="fil5" points="1.11,19.89 1.67,20.21 0.65,20.97 1.08,21.21 2.1,20.46 1.67,20.21 2.65,20.77 1.64,21.53 0.1,20.65 "/>
       </g>
       <g>
        <polygon class="fil5" points="3.08,19.03 2.93,20.29 2.38,19.97 2.52,18.72 2.09,18.47 1.95,19.73 1.39,19.41 1.53,18.15 "/>
       </g>
      </g>
      <g>
       <polygon class="fil6" points="1.39,19.41 5.77,21.88 5.5,22.37 2.65,20.77 1.67,20.21 1.11,19.89 "/>
      </g>
     </g>
     <polygon class="fil4" points="1.64,21.53 2.14,21.84 3.2,21.08 2.65,20.77 "/>
     <polygon class="fil5" points="2.15,21.84 2.65,22.15 3.74,21.38 3.2,21.08 "/>
     <polygon class="fil4" points="3.08,19.03 3.57,19.32 3.44,20.57 2.93,20.29 "/>
     <polygon class="fil5" points="3.57,19.32 4.08,19.61 3.96,20.85 3.44,20.57 "/>
     <polygon class="fil7" points="1.24,19.67 1.39,19.41 3.55,20.63 3.25,20.85 "/>
    </g>
    <polygon class="fil7" points="3.29,17.03 5.11,18.11 4.98,19.18 2.42,17.68 "/>
    <g>
     <g>
      <g>
       <polygon class="fil4" points="2.51,18.72 2.94,18.97 1.92,19.73 1.49,19.48 "/>
      </g>
      <g>
       <g>
        <polygon class="fil4" points="2.93,16.99 3.36,17.23 3.21,18.49 2.79,18.24 "/>
       </g>
       <g>
        <polygon class="fil5" points="1.95,18.41 2.51,18.72 1.49,19.48 1.92,19.73 2.94,18.97 2.51,18.72 3.49,19.28 2.47,20.04 0.93,19.16 "/>
       </g>
       <g>
        <polygon class="fil5" points="3.91,17.55 3.77,18.8 3.21,18.49 3.36,17.23 2.93,16.99 2.79,18.24 2.23,17.92 2.37,16.67 "/>
       </g>
      </g>
      <g>
       <polygon class="fil6" points="2.23,17.92 6.61,20.4 6.33,20.88 3.49,19.28 2.51,18.72 1.95,18.41 "/>
      </g>
     </g>
     <polygon class="fil4" points="2.47,20.04 2.98,20.35 4.04,19.59 3.49,19.28 "/>
     <polygon class="fil5" points="2.98,20.35 3.49,20.66 4.58,19.89 4.04,19.59 "/>
     <polygon class="fil4" points="3.91,17.55 4.41,17.84 4.28,19.08 3.77,18.8 "/>
     <polygon class="fil5" points="4.41,17.84 4.92,18.12 4.79,19.37 4.28,19.08 "/>
    </g>
   </g>
   <g>
    <g>
     <g>
      <path class="fil2" d="M17.3 61.93l-0.68 -0.6c-0.08,-0.07 -0.11,-0.18 -0.08,-0.33l0.69 0.6c-0.03,0.15 0,0.26 0.07,0.33z"/>
     </g>
     <g>
      <path class="fil2" d="M27.92 38.24c-1.16,5.74 -4.03,11.5 -7.13,14.33 -1.95,1.77 -3.37,4.13 -3.82,6.31l-0.43 2.12 0.69 0.6 0.43 -2.12c0.44,-2.18 1.87,-4.53 3.81,-6.31 3.1,-2.83 5.97,-8.58 7.14,-14.33l-0.69 -0.6z"/>
     </g>
     <g>
      <path class="fil3" d="M29.65 38.5c-1.26,6.17 -4.31,12.21 -7.77,15.37 -1.62,1.48 -2.81,3.45 -3.18,5.27l-0.43 2.11c-0.06,0.3 -0.34,0.62 -0.63,0.72 -0.29,0.09 -0.47,-0.07 -0.41,-0.37l0.43 -2.12c0.44,-2.18 1.87,-4.53 3.81,-6.31 3.1,-2.83 5.97,-8.58 7.14,-14.33l1.04 -0.34z"/>
     </g>
    </g>
   </g>
   <g>
    <polygon class="fil8" points="20.12,9.92 21.43,8.48 20.76,11.95 "/>
    <path class="fil9" d="M9.97 15.11c0.66,-1.88 2.53,-3.06 4.52,-2.83l2.81 0.33 0.28 3.83 -4.92 2.46c0,0 -3.14,0.85 -2.69,-3.79z"/>
    <path class="fil10" d="M23.1 37.38c0,0 0.75,9.97 0.44,10.83 -0.31,0.87 -1.43,3.02 -1.69,4.14 -0.25,1.12 -1.04,11.53 -1.04,11.53l-3.26 -0.62 -0.65 -9.57 0.14 -3.37 1.46 -2.86 -5.34 10.49c0,0 -1.3,1.8 -1.38,2.06 -0.09,0.26 -1.99,9.51 -1.99,9.51l-2.66 0.74 0.21 -10.95 1.77 -2.95c0,0 1.55,-9.18 1.64,-11.93 0.08,-2.76 1.6,-5.26 1.6,-5.26l10.75 -1.79z"/>
    <path class="fil8" d="M21.08 17.38c0,0 1.65,-0.61 2.46,1.51 0.81,2.11 0.64,8.4 0.64,8.4l3.79 6.89 -1.72 1.89 -2.71 -3.44 -2.46 -15.25z"/>
    <path class="fil11" d="M19.66 41.29c0,0 -1.7,5.78 -2.87,6.77 -1.18,0.98 -6.96,-0.7 -7.25,-2.52 -0.3,-1.81 2.81,-6.37 2.81,-6.37l7.31 2.12z"/>
    <polygon class="fil8" points="27.97,34.18 28.97,36.07 30.41,37.13 30.65,40.15 29.95,40.61 27.85,40.23 27.57,38.57 26.7,38.34 26.25,36.07 "/>
    <path class="fil11" d="M11.08 31.46l1.27 1.68 0 6.03 3.05 1.12c0,0 3.78,0.86 5.68,-0.26 1.89,-1.12 2.44,-3.99 2.44,-3.99 0,0 0.22,-12.64 -0.72,-16.72 -0.95,-4.09 -9.67,-2.41 -12.58,1.88 -2.92,4.28 0.86,10.26 0.86,10.26z"/>
    <path class="fil12" d="M13.72 29.89l1.46 3.1 0.6 6.4c0,0 2.64,1.27 4.9,0.31 2.25,-0.96 2.1,-3.09 2.1,-3.09l0.39 -11.51 -0.65 -1.04c0,0 -6.01,1.34 -6.76,2.45 -0.74,1.1 -2.72,1.92 -2.04,3.38z"/>
    <path class="fil3" d="M17.55 63.26l-0.52 2.82 1.51 0.48 0 -0.56 1.42 0.56 0.64 1.12c0,0 2.71,0.75 3.36,0.73 0.65,-0.03 1.93,0.33 1.83,-0.47 -0.1,-0.79 -3.51,-3.26 -4.26,-3.88 -0.75,-0.62 -0.68,-0.8 -0.68,-0.8l-3.3 0z"/>
    <path class="fil3" d="M7.13 70.26c0,0 -0.26,1.59 -0.26,1.72 0,0.13 1.81,4.74 1.81,4.74 0,0 1.68,0.51 1.81,0.51 0.13,0 2.06,-0.12 2.19,-0.77 0.13,-0.65 -0.2,-2.4 -0.99,-3.57 -0.78,-1.18 -1.2,-2.63 -1.2,-2.63l-3.36 0z"/>
    <path class="fil8" d="M10.22 21.2c0,0 -2.48,1.24 -2.92,4.28 -0.44,3.04 -0.34,5.34 -0.6,5.68 -0.26,0.35 -1.38,1.9 -1.55,2.5 -0.17,0.6 0.65,7.02 1.03,11.88l2.5 0.87c0,0 -0.29,-10.44 0,-11.03 0.29,-0.59 2.68,-3.65 3.23,-6.04 0.56,-2.4 1.05,-4.16 -1.69,-8.14z"/>
    <path class="fil13" d="M7.02 28.79c0,0 0.95,2.71 4.37,2.04l0.34 -0.86c0,0 -2.84,0.89 -4.69,-2.17l-0.02 0.99z"/>
    <path class="fil9" d="M9.64 20.06c0,0 -2.53,2.32 -3.53,4.15 -1.01,1.83 12.69,4.52 13.54,4.2 0.85,-0.33 3.21,-5.91 3.23,-7.82 0.03,-1.91 -3.68,-6.26 -13.24,-0.53z"/>
    <polygon class="fil14" points="9.14,48.68 9.14,50.57 6.21,49.65 6.21,49.22 5.75,48.9 6.18,45.54 8.68,46.41 9.94,48.06 9.65,49.22 "/>
    <polygon class="fil12" points="26.25,36.07 28.19,34.6 25.78,30.21 23.54,32.63 "/>
    <polygon class="fil14" points="26.25,36.07 25.97,35.73 27.97,34.18 28.19,34.6 "/>
    <polygon class="fil14" points="23.54,32.63 25.78,30.21 26.04,30.68 23.83,33 "/>
    <polygon class="fil12" points="6.18,45.54 5.67,40.61 8.57,40.79 8.66,45.69 "/>
    <polygon class="fil14" points="6.18,45.54 6.14,44.97 8.65,45.19 8.68,46.41 "/>
    <polygon class="fil14" points="5.67,40.61 5.72,41.14 8.57,41.34 8.57,40.79 "/>
    <polygon class="fil8" points="6.21,49.22 9.14,49.69 9.14,50.57 6.21,49.65 "/>
    <polygon class="fil8" points="9.14,48.68 9.94,48.06 9.65,49.22 "/>
    <path class="fil2" d="M23.53 20.59l0.57 3.44 -0.9 2.24 -2.32 -2.37 -1.59 -4.84c0,0 -2.18,0.41 0,-1.94 1.29,-1.39 3.24,-1.03 4.3,-0.68 0.47,0.14 0.76,0.29 0.76,0.29l-0.82 3.86z"/>
    <path class="fil3" d="M23.53 20.59l0.57 3.44 -0.9 2.24 -2.32 -2.37 0.5 -0.25 1.77 1.71 0.44 -1.43 -0.71 -3.34 0.71 -4.15c0.47,0.14 0.76,0.29 0.76,0.29l-0.82 3.86z"/>
    <path class="fil15" d="M13.54 16.61l0 2.24c0,0 3.02,3.83 4.4,3.57 1.37,-0.25 1.55,-0.69 1.55,-0.69l-0.44 -3.18 -5.51 -1.94z"/>
    <path class="fil3" d="M20.55 24.06c0,0 -1.52,7.78 -8.2,9.08 0,0 -0.12,2.76 0,2.73 0.11,-0.03 8.95,-1.36 9.96,-10.51l-1.76 -1.3z"/>
    <g>
     <g>
      <path class="fil16" d="M20.49 22.74c0.48,-0.8 1.24,-0.79 1.7,0.02 0.45,0.81 0.44,2.12 -0.04,2.92 -0.48,0.81 -1.24,0.8 -1.69,-0.01 -0.46,-0.81 -0.45,-2.12 0.03,-2.93z"/>
     </g>
     <g>
      <path class="fil17" d="M20.78 23.26c0.31,-0.53 0.81,-0.52 1.1,0.01 0.3,0.52 0.29,1.38 -0.02,1.9 -0.31,0.52 -0.8,0.52 -1.1,-0.01 -0.3,-0.53 -0.29,-1.38 0.02,-1.9z"/>
     </g>
    </g>
    <path class="fil3" d="M12.3 38.8l1.19 0.44c0,0 4.49,0.68 5.96,0.32 2.46,-0.6 4.07,-3.46 4.07,-3.46l0.1 2.07c0,0 -0.23,1.88 -3.73,2.92 -3.5,1.04 -8.3,-0.86 -8.3,-0.86l-0.04 -1.19c-0.03,-0.62 0.44,-1.15 0.8,-1.65l0 0.38 -0.05 1.03z"/>
    <path class="fil14" d="M18.81 21.35c0,0 -6.81,-1.86 -7.83,-4.05 -1.01,-2.19 -1.01,-2.19 -1.01,-2.19 0,0 -0.58,0.91 -0.86,2.07 -0.28,1.17 4.22,6.04 10.03,5.26l-0.33 -1.09z"/>
    <path class="fil14" d="M18.81 21.35c0,0 0.68,-0.94 0.24,-2.8l1.32 -0.32c0,0 0.63,3.75 -1.56,4.64l0 -1.52z"/>
    <path class="fil14" d="M9.98 18.55c0,0 -0.49,-0.42 -0.88,0.59 -0.39,1 0.34,1.79 1.29,2.32 0.96,0.52 7.5,2.24 8.42,1.41 0.92,-0.83 0.33,-0.43 0.33,-0.43l-9.16 -3.89z"/>
    <path class="fil11" d="M23.34 38.85c0,0 1.96,5.69 1.49,6.69 -0.48,1.01 -3.18,1.92 -3.03,1.42 0.14,-0.49 -1.26,-6.18 -1.26,-6.18l2.8 -1.93z"/>
    <path class="fil18" d="M9.7 18.4c0,0 0.46,0.35 1.19,0.82 0.37,0.24 0.8,0.5 1.28,0.76 0.47,0.27 1,0.51 1.54,0.73 1.07,0.44 2.17,0.82 3.01,1.05 0.21,0.06 0.41,0.11 0.58,0.15 0.17,0.04 0.32,0.06 0.45,0.08 0.13,0.02 0.23,0.03 0.29,0.03 0.07,0 0.11,0 0.11,0 0,0 -0.04,0 -0.11,0 -0.06,0.01 -0.16,-0.01 -0.29,-0.02 -0.13,-0.02 -0.28,-0.04 -0.45,-0.08 -0.18,-0.03 -0.37,-0.08 -0.58,-0.13 -0.85,-0.22 -1.96,-0.57 -3.05,-0.99 -0.54,-0.22 -1.08,-0.45 -1.56,-0.7 -0.49,-0.26 -0.93,-0.52 -1.3,-0.75 -0.75,-0.46 -1.22,-0.8 -1.22,-0.8l0.11 -0.15z"/>
    <path class="fil14" d="M10.39 16.02c-0.02,-0.05 0.25,-1.6 0.85,-2.13 0.6,-0.53 -0.25,-0.39 -0.25,-0.39 0,0 -0.98,0.97 -1.02,1.61 -0.05,0.64 0.42,0.91 0.42,0.91z"/>
    <path class="fil19" d="M21.04 14.59c0,0 -0.23,2.67 0.57,3.2 0,0 -1.08,-0.29 -1.24,-1.35 -0.15,-1.07 0.67,-1.85 0.67,-1.85z"/>
    <path class="fil8" d="M20.17 9.03c-0.06,-0.18 -1.5,-3.44 -5.64,-3.14 -4.13,0.3 -5.24,5.91 -3.01,8.35 2.23,2.44 2.02,2.37 2.02,2.37l5.51 1.94 1.6 -0.39c0,0 1.04,-4.68 -0.48,-9.13z"/>
    <path class="fil3" d="M11.47 62.27l-0.2 1.61 -0.91 6.77 -3.23 -0.39 0.17 -8.73c0,-0.06 2.49,-1.83 2.49,-1.83l1.68 2.57z"/>
    <path class="fil3" d="M21.56 57.09c-0.29,3.06 -0.75,6.79 -0.75,6.79l-3.26 -0.62 -0.47 -6.83 -0.05 -0.81c0,0 4.38,-2.79 4.71,-2.43 0.13,0.14 0.01,1.87 -0.18,3.9z"/>
    <path class="fil20" d="M21.92 37.81l-2.26 1.31 0 0.36 1.32 -0.76c0,0 0.41,0 0.41,0.69 0,0.7 -0.39,1.1 -0.39,1.1l-1.34 0.78 0 0.4 2.29 -1.32c0,0 0.55,-0.58 0.55,-1.57 0,-0.99 -0.58,-0.99 -0.58,-0.99z"/>
    <path class="fil3" d="M16.12 41.52l4.9 -2.82 -0.02 1.81 -4.09 2.37c-0.52,0.3 -1.18,-0.08 -1.18,-0.68 0,-0.28 0.15,-0.54 0.39,-0.68z"/>
    <path class="fil2" d="M21.56 57.09l-1.02 -1.62 -3.46 0.96 -0.05 -0.81c0,0 4.38,-2.79 4.71,-2.43 0.13,0.14 0.01,1.87 -0.18,3.9z"/>
    <path class="fil2" d="M11.47 62.27l-0.2 1.61c0,0 0,0 0,0l-1.14 -1.09 -0.75 1.1 -0.63 -1.14 -1.45 0.51 0 -1.73c0,-0.06 2.49,-1.83 2.49,-1.83l1.68 2.57z"/>
    <g>
     <path class="fil19" d="M14.36 12.21c0,0 -0.36,4.81 1.01,6.19 0.74,0.74 1.67,1.12 1.67,1.12 0,0 -2.94,-0.52 -3.17,-1.51 -0.24,-1 0.49,-5.8 0.49,-5.8z"/>
     <path class="fil19" d="M14.47 11.41c0,0 -0.26,2.53 0.67,3.56 0,0 -0.74,-0.31 -1.02,-1.78 -0.28,-1.47 0.35,-1.78 0.35,-1.78z"/>
     <path class="fil19" d="M18.33 11.42c0,0 0.33,-0.88 0.7,-0.38 0.38,0.49 0.21,1.47 0.21,1.47 0,0 -0.16,-1.63 -0.91,-1.09z"/>
    </g>
    <path class="fil19" d="M20.76 10.32c0,0 0.05,2.18 0.56,2.74 0.51,0.55 0.78,0.42 0.78,0.42 0,0 -1.14,0.35 -1.17,-0.29 -0.04,-0.64 -0.17,-2.87 -0.17,-2.87z"/>
    <path class="fil19" d="M17.3 6.12c-6.11,-2.37 -6.86,3.78 -6.95,4.64 -0.09,0.87 1.06,5.68 1.06,5.68l0.46 1.16 0.34 -0.42 2.33 2.14 -0.12 -3.71c0,0 -0.44,-2.95 0.12,-3.94 0.56,-0.99 3.79,-0.25 3.79,-0.25 3.11,-5.19 2.59,4.19 2.59,4.19 1.24,-8.11 -3.62,-9.49 -3.62,-9.49z"/>
    <g>
     <path class="fil8" d="M13.02 13.12l-4.36 -0.91 3.63 2.9c0,0 1.47,0.05 0.73,-1.99z"/>
     <path class="fil15" d="M8.66 12.21l3.12 1.31c0.31,0.13 0.51,0.43 0.51,0.77l0 0.82 -3.63 -2.9z"/>
     <path class="fil8" d="M12.29 15.11c0,0 -0.65,-0.61 -0.41,-0.84 0.25,-0.23 0.47,-0.1 0.47,-0.1l-0.06 0.94z"/>
    </g>
   </g>
   <g>
    <g>
     <g>
      <path class="fil3" d="M26.89 26.06l-0.69 -0.6c0.17,0.15 0.36,0.27 0.58,0.37 0.29,0.13 0.56,0.3 0.8,0.52l0.69 0.6c-0.25,-0.22 -0.51,-0.39 -0.8,-0.52 -0.22,-0.1 -0.41,-0.22 -0.58,-0.37z"/>
     </g>
     <g>
      <path class="fil2" d="M28.61 38.84c1.05,-5.14 0.54,-9.32 -1.24,-10.89l-0.68 -0.6c1.77,1.56 2.28,5.75 1.23,10.89l0.69 0.6z"/>
      <path class="fil2" d="M24.83 20.28l-0.43 2.12c-0.36,1.78 -0.02,3.24 0.91,4.06l0.69 0.61c-0.94,-0.83 -1.28,-2.28 -0.91,-4.07l0.43 -2.12c0.06,-0.3 0.34,-0.62 0.63,-0.71 0.14,-0.05 0.26,-0.03 0.33,0.03l-0.68 -0.6c-0.08,-0.07 -0.19,-0.08 -0.34,-0.04 -0.28,0.1 -0.57,0.42 -0.63,0.72z"/>
     </g>
     <g>
      <path class="fil3" d="M28.61 38.84c1.17,-5.74 0.4,-10.29 -1.91,-11.33 -1.45,-0.65 -2.06,-2.33 -1.61,-4.51l0.43 -2.12c0.06,-0.3 0.34,-0.62 0.63,-0.71 0.29,-0.1 0.47,0.07 0.41,0.36l-0.43 2.13c-0.37,1.82 0.13,3.23 1.34,3.77 2.58,1.16 3.44,5.89 2.18,12.07l-1.04 0.34z"/>
     </g>
    </g>
   </g>
  </g>
 </g>
</svg>
