<?xml version="1.0" encoding="UTF-8"?>
<!DOCTYPE svg PUBLIC "-//W3C//DTD SVG 1.1//EN" "http://www.w3.org/Graphics/SVG/1.1/DTD/svg11.dtd">
<!-- Creator: CorelDRAW -->
<svg xmlns="http://www.w3.org/2000/svg" xml:space="preserve" width="115px" height="279px" version="1.1" style="shape-rendering:geometricPrecision; text-rendering:geometricPrecision; image-rendering:optimizeQuality; fill-rule:evenodd; clip-rule:evenodd"
viewBox="0 0 2.04 4.93"
 xmlns:xlink="http://www.w3.org/1999/xlink"
 xmlns:xodm="http://www.corel.com/coreldraw/odm/2003">
 <defs>
  <style type="text/css">
   <![CDATA[
    .fil9 {fill:#232A3D;fill-rule:nonzero}
    .fil4 {fill:#2F3A52;fill-rule:nonzero}
    .fil12 {fill:#895B2D;fill-rule:nonzero}
    .fil18 {fill:#979397;fill-rule:nonzero}
    .fil10 {fill:#9E2113;fill-rule:nonzero}
    .fil2 {fill:#A16733;fill-rule:nonzero}
    .fil11 {fill:#A36221;fill-rule:nonzero}
    .fil13 {fill:#A36B34;fill-rule:nonzero}
    .fil5 {fill:#B86E2A;fill-rule:nonzero}
    .fil3 {fill:#BF8228;fill-rule:nonzero}
    .fil1 {fill:#D3D1D3;fill-rule:nonzero}
    .fil6 {fill:#E22A26;fill-rule:nonzero}
    .fil19 {fill:#E8E8E8;fill-rule:nonzero}
    .fil17 {fill:#E8E8E9;fill-rule:nonzero}
    .fil7 {fill:#EBC19C;fill-rule:nonzero}
    .fil14 {fill:#EDCF89;fill-rule:nonzero}
    .fil8 {fill:#EFCFB3;fill-rule:nonzero}
    .fil15 {fill:#F4DF9C;fill-rule:nonzero}
    .fil16 {fill:#FFE89A;fill-rule:nonzero}
    .fil0 {fill:black;fill-rule:nonzero;fill-opacity:0.200000}
   ]]>
  </style>
 </defs>
 <g id="Layer_x0020_1">
  <metadata id="CorelCorpID_0Corel-Layer"/>
  <path class="fil0" d="M0.12 4.32c0,0.31 0.32,0.77 0.9,0.56 0.2,-0.08 0.14,-0.28 0.29,-0.4 0.19,-0.15 0.46,-0.05 0.55,-0.18 0.15,-0.23 -0.25,-0.53 -0.78,-0.53 -0.53,0 -0.96,0.25 -0.96,0.55z"/>
  <g id="_2319506149600">
   <path class="fil1" d="M1.85 2.36c0.03,-0.02 0.07,-0.01 0.09,0.02 0.02,0.04 0.01,0.08 -0.03,0.1 -0.03,0.01 -0.07,0 -0.09,-0.03 -0.02,-0.03 -0.01,-0.07 0.03,-0.09z"/>
   <path class="fil2" d="M1.85 2.39c0,0 0,0 0.01,0.01 0.01,0 0.03,0 0.04,0 0,-0.01 0.01,-0.01 0.01,-0.01l0 -0.1c0,0 -0.01,0.01 -0.01,0.01 -0.01,0.01 -0.03,0.01 -0.04,0 -0.01,0 -0.01,-0.01 -0.01,-0.01l0 0.1z"/>
  </g>
  <path class="fil3" d="M1.86 2.2c-0.02,-0.01 -0.02,-0.01 0,-0.02 0.02,0 0.04,0 0.06,0 0.01,0.01 0.01,0.01 0,0.02 -0.02,0 -0.04,0 -0.06,0z"/>
  <g id="_2319506154496">
   <path class="fil4" d="M1.5 2.11c0,0 0.05,0.67 0.03,0.73 -0.02,0.06 -0.1,0.2 -0.12,0.28 -0.01,0.07 -0.05,0.73 -0.05,0.73l-0.23 0 -0.05 -0.64 0.01 -0.23 0.1 -0.19 -0.36 0.7c0,0 -0.09,0.12 -0.09,0.14 -0.01,0.02 -0.09,0.69 -0.09,0.69l-0.22 0 0.01 -0.74 0.12 -0.2c0,0 0.1,-0.61 0.11,-0.8 0.01,-0.18 0.11,-0.35 0.11,-0.35l0.72 -0.12z"/>
   <path class="fil4" d="M1.36 0.77c0,0 0.11,-0.04 0.17,0.1 0.05,0.14 0.04,0.57 0.04,0.57 0,0 0.23,0.41 0.25,0.46 0.03,0.05 -0.11,0.12 -0.11,0.12l-0.18 -0.23 -0.17 -1.02z"/>
   <polygon class="fil5" points="1.82,1.9 1.86,2.01 1.99,2.1 2,2.3 1.96,2.33 1.82,2.3 1.8,2.19 1.74,2.18 1.71,2.02 "/>
   <path class="fil6" d="M0.69 1.72l0.09 0.11 0 0.4 0.2 0.08c0,0 0.25,0.05 0.38,-0.02 0.13,-0.08 0.14,-0.2 0.14,-0.2 0,0 0.04,-0.92 -0.02,-1.19 -0.07,-0.27 -0.65,-0.16 -0.85,0.13 -0.19,0.28 0.06,0.69 0.06,0.69z"/>
   <path class="fil5" d="M1.13 3.85l-0.04 0.19 0.1 0.03 0 -0.04 0.1 0.04 0.01 0.05c0,0 0.21,0.07 0.26,0.07 0.04,0 0.14,-0.05 0.13,-0.1 0,-0.06 -0.25,-0.15 -0.3,-0.19 -0.05,-0.04 -0.03,-0.05 -0.03,-0.05l-0.23 0z"/>
   <path class="fil5" d="M0.43 4.32c0,0 -0.02,0.1 -0.02,0.11 0,0.01 0.12,0.32 0.12,0.32 0,0 0.11,0.03 0.12,0.03 0.01,0 0.14,-0.01 0.15,-0.05 0.01,-0.04 -0.01,-0.16 -0.07,-0.24 -0.05,-0.08 -0.08,-0.17 -0.08,-0.17l-0.22 0z"/>
   <path class="fil7" d="M0.86 0.72l0 0.15c0,0 0.2,0.26 0.29,0.24 0.09,-0.02 0.11,-0.05 0.11,-0.05l-0.03 -0.21 -0.37 -0.13z"/>
   <path class="fil8" d="M1.3 0.21c0,-0.01 -0.1,-0.23 -0.38,-0.21 -0.27,0.02 -0.35,0.4 -0.2,0.56 0.15,0.16 0.14,0.16 0.14,0.16l0.37 0.13 0.1 -0.03c0,0 0.07,-0.31 -0.03,-0.61z"/>
   <path class="fil9" d="M0.76 1.5c0,0 0.12,0.26 0.1,0.76l-0.08 -0.03 0 -0.4c0,0 -0.16,-0.2 -0.19,-0.35l0.17 0.02z"/>
   <polygon class="fil6" points="0.69,1.72 0.78,1.83 0.86,2.26 0.78,2.23 "/>
   <path class="fil4" d="M0.63 1.03c0,0 -0.16,0.08 -0.19,0.28 -0.03,0.21 -0.02,0.36 -0.04,0.39 -0.02,0.02 -0.09,0.12 -0.11,0.16 -0.01,0.04 0.02,0.47 0.04,0.8l0.2 0.06c0,0 -0.02,-0.7 0,-0.74 0.02,-0.04 0.18,-0.25 0.22,-0.41 0.03,-0.16 0.07,-0.28 -0.12,-0.54z"/>
  </g>
  <path class="fil6" d="M0.6 1.03c0,0 -0.16,0.12 -0.19,0.32 0,0 0.47,-0.32 0.45,0.91 0,0 0.24,0.1 0.44,0.05l-0.62 -1.34 -0.08 0.06z"/>
  <path class="fil6" d="M1.35 0.75c0,0 0.04,-0.02 0.17,0.04l0 0.72 -0.17 -0.76z"/>
  <polygon class="fil5" points="1.86,2.01 1.73,1.65 1.53,1.86 1.72,2.07 "/>
  <polygon class="fil6" points="0.82,0.79 1.13,0.99 1.18,1.13 1.1,1.15 0.74,0.92 "/>
  <polygon class="fil10" points="1.18,1.13 1.1,1.15 0.94,1.11 1.1,1.18 "/>
  <path class="fil6" d="M0.86 2.37l-0.19 0.81 -0.11 -0.12c0,0 0.09,-0.61 0.17,-0.73 0.08,-0.12 0.13,0.04 0.13,0.04z"/>
  <polygon class="fil11" points="1.53,2.05 1.51,2.04 1.5,2.09 "/>
  <path class="fil6" d="M0.86 2.37l-0.1 0.88c0,0 0.18,0.15 0.48,0.07 0.3,-0.08 0.34,-0.22 0.35,-0.25 0.02,-0.02 -0.08,-0.83 -0.08,-0.83l-0.25 0.11 -0.4 0.02z"/>
  <path class="fil5" d="M0.78 2.23l0.08 0.03c0,0 0.3,0.05 0.4,0.02 0.16,-0.04 0.27,-0.23 0.27,-0.23l0.01 0.14c0,0 -0.02,0.13 -0.25,0.2 -0.24,0.07 -0.56,-0.06 -0.56,-0.06l-0.01 -0.15 0.04 -0.05 0.02 0.1z"/>
  <g id="_2357992875056">
   <polygon class="fil11" points="0.33,2.66 0.25,2.22 0.61,2.25 0.53,2.72 "/>
   <polygon class="fil11" points="0.56,2.87 0.56,3 0.37,2.93 0.37,2.91 0.33,2.88 0.33,2.66 0.53,2.72 0.62,2.83 0.6,2.91 "/>
  </g>
  <polygon class="fil5" points="1.06,3.51 1.13,3.85 1.39,3.9 1.44,3.48 "/>
  <polygon class="fil5" points="0.38,3.85 0.59,3.93 0.77,3.9 0.65,4.32 0.43,4.32 "/>
  <g id="_2357992824176">
   <g>
    <path class="fil12" d="M1.35 2.2c0.04,-0.02 0.08,0 0.08,0.05 0,0.05 -0.04,0.12 -0.08,0.15 -0.05,0.02 -0.09,0 -0.09,-0.05 0,-0.05 0.04,-0.12 0.09,-0.15z"/>
   </g>
   <g>
    <path class="fil13" d="M1.35 2.24c0.03,-0.02 0.05,-0.01 0.05,0.03 0,0.03 -0.02,0.08 -0.05,0.09 -0.03,0.02 -0.06,0.01 -0.06,-0.03 0,-0.03 0.03,-0.08 0.06,-0.09z"/>
   </g>
  </g>
  <polygon class="fil10" points="0.82,0.79 0.86,0.78 0.86,0.82 "/>
  <g id="_2357992835216">
   <g>
    <g>
     <path class="fil5" d="M0.56 1.98c-0.14,-0.08 -0.26,-0.08 -0.35,-0.03l-0.07 0.03c0.09,-0.05 0.22,-0.04 0.36,0.04 0.27,0.16 0.49,0.54 0.49,0.85 0,0.16 -0.05,0.27 -0.14,0.32l0.06 -0.03c0.09,-0.05 0.14,-0.16 0.14,-0.32 0,-0.32 -0.22,-0.7 -0.49,-0.86z"/>
     <g>
      <path class="fil14" d="M0.5 2.02c0.27,0.16 0.49,0.54 0.49,0.85 0,0.32 -0.22,0.45 -0.5,0.29 -0.27,-0.16 -0.49,-0.54 -0.49,-0.86 0,-0.31 0.22,-0.44 0.5,-0.28z"/>
     </g>
    </g>
   </g>
   <g>
    <path class="fil15" d="M0.5 2.18c0.19,0.11 0.35,0.39 0.35,0.61 0,0.23 -0.16,0.32 -0.35,0.21 -0.2,-0.12 -0.36,-0.39 -0.36,-0.62 0,-0.22 0.16,-0.32 0.36,-0.2z"/>
   </g>
   <g>
    <path class="fil5" d="M0.5 2.5c0.04,0.03 0.07,0.08 0.07,0.13 0,0.05 -0.03,0.07 -0.07,0.04 -0.05,-0.02 -0.08,-0.08 -0.08,-0.12 0,-0.05 0.04,-0.07 0.08,-0.05z"/>
   </g>
  </g>
  <g id="_2357992844816">
   <path class="fil2" d="M1.84 2.15c0,0.01 0.01,0.01 0.02,0.02 0.01,0 0.03,0 0.05,0 0.01,-0.01 0.01,-0.01 0.01,-0.02l0 -0.13c0,0 0,0.01 -0.01,0.01 -0.02,0.01 -0.04,0.01 -0.05,0 -0.01,0 -0.02,-0.01 -0.02,-0.01l0 0.13z"/>
   <g>
    <g>
     <g>
      <g>
       <polygon class="fil1" points="1.74,2.12 1.69,2.09 2,1.91 2.04,1.94 "/>
      </g>
      <g>
       <polygon class="fil16" points="1.74,2.14 1.69,2.12 1.69,2.09 1.74,2.12 "/>
      </g>
      <g>
       <polygon class="fil17" points="1.74,2.12 2.04,1.94 2.04,1.97 1.89,2.13 1.74,2.14 "/>
      </g>
     </g>
    </g>
   </g>
   <g>
    <g>
     <polygon class="fil1" points="1.92,0.23 1.93,1.99 1.82,2.05 1.82,0.29 1.87,0.05 "/>
     <polygon class="fil18" points="1.87,0.05 1.88,2.01 1.93,1.99 1.92,0.23 "/>
    </g>
    <polygon class="fil19" points="1.87,0.05 1.82,0.29 1.82,2.05 1.81,2.04 1.8,0.29 "/>
   </g>
  </g>
 </g>
</svg>
