<?xml version="1.0" encoding="UTF-8"?>
<!DOCTYPE svg PUBLIC "-//W3C//DTD SVG 1.1//EN" "http://www.w3.org/Graphics/SVG/1.1/DTD/svg11.dtd">
<!-- Creator: CorelDRAW -->
<svg xmlns="http://www.w3.org/2000/svg" xml:space="preserve" width="616px" height="1291px" version="1.1" style="shape-rendering:geometricPrecision; text-rendering:geometricPrecision; image-rendering:optimizeQuality; fill-rule:evenodd; clip-rule:evenodd"
viewBox="0 0 106.39 222.89"
 xmlns:xlink="http://www.w3.org/1999/xlink"
 xmlns:xodm="http://www.corel.com/coreldraw/odm/2003">
 <defs>
  <style type="text/css">
   <![CDATA[
    .fil9 {fill:#232A3D;fill-rule:nonzero}
    .fil4 {fill:#2F3A52;fill-rule:nonzero}
    .fil12 {fill:#895B2D;fill-rule:nonzero}
    .fil18 {fill:#979397;fill-rule:nonzero}
    .fil10 {fill:#9E2113;fill-rule:nonzero}
    .fil2 {fill:#A16733;fill-rule:nonzero}
    .fil11 {fill:#A36221;fill-rule:nonzero}
    .fil13 {fill:#A36B34;fill-rule:nonzero}
    .fil5 {fill:#B86E2A;fill-rule:nonzero}
    .fil3 {fill:#BF8228;fill-rule:nonzero}
    .fil1 {fill:#D3D1D3;fill-rule:nonzero}
    .fil6 {fill:#E22A26;fill-rule:nonzero}
    .fil19 {fill:#E8E8E8;fill-rule:nonzero}
    .fil17 {fill:#E8E8E9;fill-rule:nonzero}
    .fil7 {fill:#EBC19C;fill-rule:nonzero}
    .fil14 {fill:#EDCF89;fill-rule:nonzero}
    .fil8 {fill:#EFCFB3;fill-rule:nonzero}
    .fil15 {fill:#F4DF9C;fill-rule:nonzero}
    .fil16 {fill:#FFE89A;fill-rule:nonzero}
    .fil0 {fill:black;fill-rule:nonzero;fill-opacity:0.200000}
   ]]>
  </style>
 </defs>
 <g id="Layer_x0020_1">
  <metadata id="CorelCorpID_0Corel-Layer"/>
  <path class="fil0" d="M19.26 195.44c0,13.79 14.76,34.64 40.97,24.97 8.92,-3.29 6.08,-12.35 12.93,-17.81 8.79,-7.02 20.85,-2.21 24.85,-8.14 7.07,-10.46 -11.01,-23.99 -35.11,-23.99 -24.1,0 -43.64,11.18 -43.64,24.97z"/>
  <g id="_2137125847632">
   <g>
    <path class="fil1" d="M97.46 106.62c1.46,-0.84 3.33,-0.35 4.18,1.11 0.85,1.46 0.35,3.32 -1.1,4.17 -1.46,0.85 -3.33,0.36 -4.18,-1.1 -0.85,-1.46 -0.35,-3.33 1.1,-4.18z"/>
    <path class="fil2" d="M97.65 107.87c0,0.19 0.12,0.37 0.37,0.52 0.5,0.28 1.3,0.28 1.79,-0.01 0.24,-0.14 0.36,-0.32 0.36,-0.51l0.01 -4.48c0,0.19 -0.12,0.37 -0.36,0.51 -0.49,0.29 -1.3,0.29 -1.79,0.01 -0.25,-0.14 -0.37,-0.33 -0.37,-0.52l-0.01 4.48z"/>
   </g>
   <path class="fil3" d="M98.07 99.28c-0.71,-0.17 -0.69,-0.43 0.04,-0.58 0.73,-0.15 1.9,-0.14 2.61,0.03 0.71,0.16 0.7,0.42 -0.03,0.57 -0.73,0.15 -1.9,0.14 -2.62,-0.02z"/>
   <g>
    <path class="fil4" d="M81.7 95.46c0,0 2.26,30.2 1.32,32.81 -0.94,2.61 -4.33,9.13 -5.11,12.52 -0.78,3.4 -2.35,33.07 -2.35,33.07l-10.69 0 -1.96 -28.99 0.41 -10.21 4.43 -8.68 -16.19 31.77c0,0 -3.91,5.48 -4.17,6.26 -0.26,0.78 -3.92,31.04 -3.92,31.04l-10.17 0 0.65 -33.16 5.36 -8.95c0,0 4.69,-27.8 4.95,-36.15 0.26,-8.34 4.84,-15.91 4.84,-15.91l32.6 -5.42z"/>
    <path class="fil4" d="M75.56 34.86c0,0 5.01,-1.84 7.46,4.57 2.45,6.41 1.93,25.45 1.93,25.45 0,0 10.44,18.52 11.48,20.87 1.04,2.35 -5.22,5.74 -5.22,5.74l-8.19 -10.43 -7.46 -46.2z"/>
    <polygon class="fil5" points="96.43,85.75 98.08,90.88 103.82,94.71 104.56,103.85 102.43,105.23 96.09,104.1 95.21,99.06 92.6,98.36 91.21,91.49 "/>
    <path class="fil6" d="M45.28 77.53l3.82 5.09 0 18.26 9.24 3.39c0,0 11.48,2.61 17.22,-0.78 5.74,-3.39 6.45,-8.84 6.45,-8.84 0,0 1.62,-41.55 -1.24,-53.92 -2.86,-12.37 -29.28,-7.28 -38.11,5.7 -8.84,12.98 2.62,31.1 2.62,31.1z"/>
    <path class="fil5" d="M64.87 173.86l-1.57 8.54 4.57 1.44 0 -1.7 4.3 1.7 0.7 2.47c0,0 9.46,3.21 11.43,3.13 1.97,-0.07 6.57,-2.29 6.26,-4.69 -0.3,-2.4 -11.35,-6.59 -13.62,-8.48 -2.27,-1.89 -1.38,-2.41 -1.38,-2.41l-10.69 0z"/>
    <path class="fil5" d="M33.3 195.05c0,0 -0.78,4.83 -0.78,5.22 0,0.39 5.48,14.35 5.48,14.35 0,0 5.08,1.56 5.47,1.56 0.4,0 6.27,-0.39 6.66,-2.34 0.39,-1.96 -0.62,-7.27 -3,-10.83 -2.38,-3.56 -3.66,-7.96 -3.66,-7.96l-10.17 0z"/>
    <path class="fil7" d="M52.74 32.54l0 6.78c0,0 9.13,11.61 13.3,10.82 4.17,-0.78 4.69,-2.08 4.69,-2.08l-1.3 -9.65 -16.69 -5.87z"/>
    <path class="fil8" d="M72.82 9.58c-0.19,-0.55 -4.56,-10.43 -17.08,-9.52 -12.53,0.91 -15.89,17.91 -9.13,25.3 6.75,7.4 6.13,7.18 6.13,7.18l16.69 5.87 4.83 -1.18c0,0 3.17,-14.19 -1.44,-27.65z"/>
    <path class="fil9" d="M48.5 67.93c0,0 5.06,11.44 4.24,34.28l-3.64 -1.33 0 -18.26c0,0 -7.24,-8.79 -8.49,-15.94l7.89 1.25z"/>
    <polygon class="fil6" points="45.28,77.53 49.1,82.62 52.74,102.21 49.1,100.88 "/>
    <path class="fil4" d="M42.66 46.43c0,0 -7.5,3.78 -8.84,12.98 -1.33,9.2 -1.04,16.17 -1.82,17.21 -0.79,1.05 -4.18,5.74 -4.7,7.57 -0.52,1.82 0.66,21.25 1.83,36l8.87 2.6c0,0 -0.87,-31.6 0,-33.39 0.87,-1.78 8.11,-11.08 9.79,-18.32 1.68,-7.24 3.18,-12.59 -5.13,-24.65z"/>
   </g>
   <path class="fil6" d="M41.26 46.43c0,0 -7.27,5.46 -8.74,14.73 0,0 21.39,-14.48 20.22,41.05 0,0 10.81,4.41 20.13,2.37l-28.24 -60.62 -3.37 2.47z"/>
   <path class="fil6" d="M75.23 33.87c0,0 1.81,-0.84 7.46,1.63l-0.12 32.95 -7.34 -34.58z"/>
   <polygon class="fil5" points="98.08,90.88 92.31,74.54 83.25,84.06 91.63,93.58 "/>
   <polygon class="fil6" points="50.92,35.83 65.16,44.93 67.36,51.11 63.61,52.08 47.42,41.36 "/>
   <polygon class="fil10" points="67.36,51.11 63.61,52.08 56.55,50.18 63.83,53.32 "/>
   <path class="fil6" d="M52.74 107.05l-8.44 36.88 -4.99 -5.75c0,0 4.06,-27.45 7.67,-32.95 3.61,-5.5 5.76,1.82 5.76,1.82z"/>
   <polygon class="fil11" points="83.1,92.73 82.1,92.09 82.01,94.65 "/>
   <path class="fil6" d="M52.74 107.05l-4.21 39.7c0,0 7.91,7.01 21.43,3.31 13.51,-3.71 15.46,-10.13 16.09,-11.09 0.64,-0.97 -3.58,-37.76 -3.58,-37.76l-11.52 4.81 -18.21 1.03z"/>
   <path class="fil5" d="M49.1 100.88l3.64 1.33c0,0 13.58,2.09 18.04,1 7.45,-1.82 12.32,-10.48 12.32,-10.48l0.3 6.25c0,0 -0.7,5.72 -11.29,8.86 -10.6,3.15 -25.13,-2.61 -25.13,-2.61l-0.26 -6.48 1.65 -2.34 0.73 4.47z"/>
   <g>
    <polygon class="fil11" points="29.13,120.19 25.09,100.23 41.36,101.84 38,122.79 "/>
    <polygon class="fil11" points="39.39,129.69 39.39,135.4 30.52,132.62 30.52,131.32 29.13,130.36 29.13,120.19 38,122.79 41.82,127.79 40.95,131.32 "/>
   </g>
   <polygon class="fil5" points="61.96,158.77 64.87,173.86 76.94,176.27 79.29,157.51 "/>
   <polygon class="fil5" points="31.05,173.86 40.61,177.7 49.01,176.05 43.47,195.05 33.3,195.05 "/>
   <g>
    <g>
     <path class="fil12" d="M74.89 99.63c2.08,-1.2 3.76,-0.23 3.77,2.16 0.01,2.38 -1.67,5.28 -3.74,6.48 -2.07,1.19 -3.76,0.23 -3.77,-2.15 0,-2.39 1.67,-5.29 3.74,-6.49z"/>
    </g>
    <g>
     <path class="fil13" d="M74.9 101.1c1.37,-0.79 2.48,-0.16 2.49,1.42 0,1.57 -1.11,3.49 -2.48,4.28 -1.36,0.79 -2.48,0.16 -2.48,-1.42 -0.01,-1.58 1.1,-3.49 2.47,-4.28z"/>
    </g>
   </g>
   <polygon class="fil10" points="50.92,35.83 52.7,35.46 52.7,36.96 "/>
   <g>
    <g>
     <g>
      <path class="fil5" d="M30.92 85.31c-7.62,-4.41 -14.53,-4.82 -19.52,-1.92l-3.4 1.98c4.99,-2.9 11.89,-2.49 19.52,1.91 15.14,8.75 27.38,29.94 27.33,47.35 -0.02,8.64 -3.08,14.73 -8,17.59l3.4 -1.98c4.93,-2.86 7.98,-8.94 8,-17.59 0.05,-17.4 -12.18,-38.6 -27.33,-47.34z"/>
      <g>
       <path class="fil14" d="M27.52 87.28c15.14,8.75 27.38,29.94 27.33,47.35 -0.05,17.4 -12.37,24.43 -27.51,15.68 -15.15,-8.75 -27.39,-29.95 -27.34,-47.35 0.05,-17.4 12.37,-24.42 27.52,-15.68z"/>
      </g>
     </g>
    </g>
    <g>
     <path class="fil15" d="M27.49 96.14c10.89,6.28 19.69,21.53 19.66,34.04 -0.04,12.51 -8.9,17.56 -19.79,11.28 -10.89,-6.29 -19.69,-21.54 -19.65,-34.05 0.03,-12.51 8.89,-17.56 19.78,-11.27z"/>
    </g>
    <g>
     <path class="fil5" d="M27.44 114.04c2.29,1.32 4.13,4.52 4.13,7.15 -0.01,2.62 -1.87,3.68 -4.16,2.36 -2.28,-1.32 -4.13,-4.52 -4.13,-7.15 0.01,-2.62 1.87,-3.68 4.16,-2.36z"/>
    </g>
   </g>
   <g>
    <path class="fil2" d="M97.37 97.21c0,0.26 0.16,0.51 0.5,0.7 0.66,0.38 1.73,0.38 2.39,-0.01 0.32,-0.19 0.48,-0.43 0.48,-0.68l0.01 -6c0,0.25 -0.16,0.49 -0.48,0.68 -0.66,0.39 -1.73,0.39 -2.39,0.01 -0.34,-0.19 -0.5,-0.44 -0.5,-0.7l-0.01 6z"/>
    <g>
     <g>
      <g>
       <g>
        <polygon class="fil1" points="92.6,95.62 90.51,94.43 104.29,86.46 106.38,87.65 "/>
       </g>
       <g>
        <polygon class="fil16" points="92.61,96.9 90.52,95.71 90.51,94.43 92.6,95.62 "/>
       </g>
       <g>
        <polygon class="fil17" points="92.6,95.62 106.38,87.65 106.39,89.17 99.59,96.29 92.61,96.9 "/>
       </g>
      </g>
     </g>
    </g>
    <g>
     <g>
      <polygon class="fil1" points="100.74,10.21 101.02,89.87 96.36,92.58 96.08,12.92 98.66,2.39 "/>
      <polygon class="fil18" points="98.66,2.39 98.98,91.06 101.02,89.87 100.74,10.21 "/>
     </g>
     <polygon class="fil19" points="98.66,2.39 96.08,12.92 96.36,92.58 95.7,92.21 95.42,12.93 "/>
    </g>
   </g>
  </g>
 </g>
</svg>
