<?xml version="1.0" encoding="UTF-8"?>
<!DOCTYPE svg PUBLIC "-//W3C//DTD SVG 1.1//EN" "http://www.w3.org/Graphics/SVG/1.1/DTD/svg11.dtd">
<!-- Creator: CorelDRAW -->
<svg xmlns="http://www.w3.org/2000/svg" xml:space="preserve" width="534px" height="1299px" version="1.1" style="shape-rendering:geometricPrecision; text-rendering:geometricPrecision; image-rendering:optimizeQuality; fill-rule:evenodd; clip-rule:evenodd"
viewBox="0 0 42.96 104.52"
 xmlns:xlink="http://www.w3.org/1999/xlink"
 xmlns:xodm="http://www.corel.com/coreldraw/odm/2003">
 <defs>
  <style type="text/css">
   <![CDATA[
    .fil11 {fill:#211F21;fill-rule:nonzero}
    .fil4 {fill:#2B2D7C;fill-rule:nonzero}
    .fil3 {fill:#2D2438;fill-rule:nonzero}
    .fil16 {fill:#774133;fill-rule:nonzero}
    .fil5 {fill:#824636;fill-rule:nonzero}
    .fil1 {fill:#874F1F;fill-rule:nonzero}
    .fil17 {fill:#8E4D3D;fill-rule:nonzero}
    .fil2 {fill:#BF8228;fill-rule:nonzero}
    .fil12 {fill:#C1B59A;fill-rule:nonzero}
    .fil9 {fill:#CA974D;fill-rule:nonzero}
    .fil15 {fill:#CDA349;fill-rule:nonzero}
    .fil13 {fill:#D1D3D4;fill-rule:nonzero}
    .fil8 {fill:#E4D3BC;fill-rule:nonzero}
    .fil18 {fill:#EBC19C;fill-rule:nonzero}
    .fil14 {fill:#EBDF9C;fill-rule:nonzero}
    .fil10 {fill:#EFCFB3;fill-rule:nonzero}
    .fil7 {fill:#F4BA3A;fill-rule:nonzero}
    .fil6 {fill:#FFC60A;fill-rule:nonzero}
    .fil0 {fill:black;fill-rule:nonzero;fill-opacity:0.200000}
   ]]>
  </style>
 </defs>
 <g id="Layer_x0020_1">
  <metadata id="CorelCorpID_0Corel-Layer"/>
  <path class="fil0" d="M0 91.73c0,6.43 6.88,16.15 19.1,11.64 4.16,-1.54 2.84,-5.76 6.03,-8.31 4.1,-3.27 9.72,-1.03 11.58,-3.79 3.3,-4.88 -5.13,-11.19 -16.36,-11.19 -11.24,0 -20.35,5.22 -20.35,11.65z"/>
  <g id="_2137118862768">
   <g>
    <g>
     <path class="fil1" d="M33.91 88.28c0,0.12 0.08,0.25 0.24,0.36 0.34,0.2 0.88,0.22 1.22,0.03 0.17,-0.09 0.26,-0.22 0.26,-0.34l1.25 -45.49c0,0.13 -0.09,0.25 -0.26,0.35 -0.34,0.18 -0.89,0.17 -1.22,-0.04 -0.17,-0.1 -0.25,-0.23 -0.24,-0.36l-1.25 45.49z"/>
     <g>
      <path class="fil2" d="M35.4 43.15c-0.33,-0.2 -0.32,-0.52 0.02,-0.7 0.34,-0.19 0.88,-0.17 1.22,0.03 0.33,0.2 0.32,0.52 -0.02,0.71 -0.34,0.18 -0.89,0.17 -1.22,-0.04z"/>
     </g>
    </g>
   </g>
   <g>
    <path class="fil3" d="M27.92 45.37c0,0 1.06,14.08 0.62,15.29 -0.44,1.22 -2.02,4.26 -2.38,5.84 -0.37,1.58 -1.1,15.42 -1.1,15.42l-4.98 0 -0.92 -13.52 0.2 -4.76 2.06 -4.05 -7.55 14.82c0,0 -1.82,2.55 -1.94,2.92 -0.12,0.36 -1.83,14.47 -1.83,14.47l-4.74 0 0.3 -15.46 2.5 -4.18c0,0 2.19,-12.96 2.31,-16.85 0.12,-3.89 2.26,-7.42 2.26,-7.42l15.19 -2.52z"/>
    <path class="fil4" d="M24.69 17c0,0 3.91,-0.53 4.48,0.52 0.52,0.97 -1.18,8.53 -1.35,8.2 -0.18,-0.34 -3.13,-8.72 -3.13,-8.72z"/>
    <polygon class="fil5" points="20.08,81.92 19.35,72.37 25.63,72.37 25.06,81.92 "/>
    <polygon class="fil5" points="5.36,91.8 5.61,80.69 11.26,82.26 10.1,91.8 "/>
    <path class="fil4" d="M21.1 50.39c0,0 -4.67,24.6 -5.3,30.71 -0.64,6.11 -0.93,9.37 -0.93,9.37 0,0 -12.27,3.44 -12.37,-3.83 -0.01,-0.79 0.09,-1.84 0.27,-3.09 1.52,-10.4 8.9,-34.77 8.9,-34.77l7.43 1.27 2 0.34z"/>
    <path class="fil6" d="M21.1 50.39c0,0 -4.67,24.6 -5.3,30.71 -0.64,6.11 -0.93,9.37 -0.93,9.37 0,0 -12.27,3.44 -12.37,-3.83 -0.01,-0.79 0.09,-1.84 0.27,-3.09 0.92,6.52 7.69,5.3 7.69,5.3 0,0 -0.42,-2.88 -0.79,-3.38 -1.36,-1.84 -1.36,1.61 -1.36,1.61 0,0 -1.98,-3.4 0.83,-4.2 2.12,-0.62 3.13,5.02 3.19,5.42 -0.47,-4.49 6.77,-38.25 6.77,-38.25l2 0.34z"/>
    <path class="fil4" d="M25.06 17.11c0,0 2.34,-0.85 3.48,2.14 1.14,2.98 0.9,11.86 0.9,11.86l5.54 9.43 -3.8 3.08 -2.64 -4.97 -3.48 -21.54z"/>
    <g>
     <g>
      <g>
       <g>
        <polygon class="fil7" points="14.27,63.88 4.01,57.92 4.01,57.26 14.27,63.22 "/>
       </g>
       <g>
        <polygon class="fil7" points="14.27,63.22 4.01,57.26 3.99,49.97 14.25,55.93 "/>
       </g>
       <g>
        <polygon class="fil8" points="12.31,57.05 2.05,51.09 3.99,49.97 14.25,55.93 "/>
       </g>
       <g>
        <polygon class="fil8" points="12.33,64.34 2.07,58.38 2.05,51.09 12.31,57.05 "/>
       </g>
       <g>
        <polygon class="fil8" points="14.25,55.93 14.27,63.22 12.33,64.34 12.31,57.05 "/>
       </g>
       <path class="fil1" d="M4.05 48.61c-0.26,-0.15 -0.63,-0.13 -1.03,0.1 -0.8,0.47 -1.45,1.59 -1.45,2.51l0.02 8.09 10.26 5.96 -0.02 -8.09c-0.01,-0.92 0.64,-2.04 1.44,-2.5 0.41,-0.24 0.77,-0.26 1.04,-0.11l-10.26 -5.96z"/>
      </g>
     </g>
     <g>
      <path class="fil9" d="M13.27 54.68c0.81,-0.47 1.46,-0.1 1.46,0.83l0.02 8.09 -0.48 0.28 0 -0.66 -0.02 -7.29 -1.94 1.12 0.02 7.94 -0.48 0.28 -0.02 -8.09c-0.01,-0.92 0.64,-2.04 1.44,-2.5z"/>
     </g>
    </g>
    <polygon class="fil10" points="34.63,41.69 35.56,43.23 38.24,45.02 38.58,49.28 37.59,49.92 34.63,49.39 34.22,47.04 33.01,46.72 32.78,43.27 "/>
    <path class="fil4" d="M28.51 43.46c0,0 -0.77,4.07 -3.45,5.65 -2.67,1.58 -8.02,0.37 -8.02,0.37l-4.31 -1.59 0 -8.51 -1.07 -1.43c-0.01,0 -0.01,0 -0.01,0l-0.7 -0.94c0,0 -5.35,-8.45 -1.23,-14.5 1.42,-2.09 3.81,-3.73 6.38,-4.76 0.34,-0.13 0.68,-0.26 1.02,-0.37 4.64,-1.54 9.55,-1.05 10.37,2.47 0.62,2.66 0.88,7.89 0.99,12.75 0.12,5.68 0.03,10.86 0.03,10.86z"/>
    <path class="fil3" d="M22.73 47.59c0,0 -2.14,-23.07 -1.64,-23.33 0.51,-0.26 1.51,-0.76 1.51,-0.76 0,0 3.68,20.08 3.3,22.82 -0.39,2.74 -2.4,2.3 -3.17,1.27z"/>
    <g>
     <path class="fil11" d="M24.56 47.93c-0.19,-5.97 -2.75,-23.85 -2.77,-24.03l0.26 -0.04c0.02,0.18 2.58,18.07 2.77,24.06l-0.26 0.01z"/>
    </g>
    <g>
     <path class="fil12" d="M23.18 39.53c0,0 1.22,-0.93 1.48,-0.7 0.27,0.24 -1.88,1.6 -1.48,0.7z"/>
    </g>
    <g>
     <path class="fil12" d="M22.8 36.64c0,0 1.22,-0.93 1.49,-0.7 0.26,0.23 -1.89,1.6 -1.49,0.7z"/>
    </g>
    <path class="fil5" d="M20.08 81.92l-0.73 3.98 2.12 0.67 0 -0.79 2.01 0.79 0.91 1.58c0,0 3.83,1.07 4.75,1.03 0.91,-0.03 3.06,-1.07 2.91,-2.19 -0.14,-1.12 -5.29,-3.07 -6.35,-3.95 -1.06,-0.88 -0.64,-1.12 -0.64,-1.12l-4.98 0z"/>
    <path class="fil5" d="M5.36 91.8c0,0 -0.37,2.25 -0.37,2.43 0,0.18 2.56,6.69 2.56,6.69 0,0 2.37,0.73 2.55,0.73 0.19,0 2.92,-0.18 3.1,-1.1 0.19,-0.91 -0.29,-3.38 -1.39,-5.04 -1.11,-1.66 -1.71,-3.71 -1.71,-3.71l-4.74 0z"/>
    <path class="fil4" d="M22.4 35.71c-0.46,1.39 -6.79,2.31 -8.7,2.36 -0.72,0.03 -1.44,-0.03 -2.04,-0.12 -0.01,0 -0.01,0 -0.01,0l-0.7 -0.94c0,0 -0.14,-0.21 -0.35,-0.59 -1.1,-2.01 -4.35,-8.81 -0.88,-13.91 1.42,-2.09 3.81,-3.73 6.38,-4.76l5.09 6.13 0.31 0.38c0,0 1.37,10.05 0.9,11.45z"/>
    <path class="fil4" d="M28.48 32.6c-1.07,0.78 -2.55,1.87 -3.28,2 -0.99,0.18 -3,-10.84 -3,-10.84l-1.11 -0.84 -4.36 -3.3 0.39 -2.24c4.64,-1.54 9.86,-1.09 10.67,2.43 0.57,2.45 0.63,7.41 0.75,11.92 0.01,0.39 -0.07,0.49 -0.06,0.87z"/>
    <path class="fil6" d="M22.4 35.71c-0.46,1.39 -6.79,2.31 -8.7,2.36 -0.72,0.03 -1.44,-0.03 -2.04,-0.12 -0.01,0 -0.01,0 -0.01,0l-0.7 -0.94c0,0 -0.14,-0.21 -0.35,-0.59 0.29,-0.11 0.5,-0.09 0.56,0.16 0.26,1 9.43,-0.47 10.02,-1.39 0.58,-0.93 -0.56,-10.95 -0.56,-10.95 0.18,-0.19 0.37,-0.31 0.57,-0.36l0.31 0.38c0,0 1.37,10.05 0.9,11.45z"/>
    <path class="fil4" d="M9.72 22.51l-4.73 3.21c0,0 -1.17,8.36 -1.58,10.22 -0.13,0.59 -0.6,3.32 -0.85,4.17 -0.24,0.85 -0.07,8.63 0.48,15.5l5.44 0.72c0,0 -1.34,-12.95 -0.93,-13.79 0.4,-0.83 3.78,-5.16 4.57,-8.54 0.78,-3.37 1.48,-5.87 -2.4,-11.49z"/>
    <path class="fil6" d="M28.48 32.6c-1.07,0.78 -2.68,2.05 -3.42,2.18 -0.99,0.18 -2.86,-11.02 -2.86,-11.02l-1.11 -0.84 0.35 -1.09 1.37 1.44c0,0 2.03,10.17 2.84,10.35 0.81,0.17 2.8,-2.18 2.8,-2.18 0.01,0.39 0.02,0.78 0.03,1.16z"/>
    <g>
     <path class="fil4" d="M23.91 49.67l-0.08 0.75c0,0 -0.24,3.49 -1.23,4.07 -0.98,0.59 -2.32,0.26 -2.32,0.26l0.13 -0.7 0.68 -3.66 1.98 -0.51 0.84 -0.21z"/>
     <path class="fil6" d="M23.91 49.67l-0.08 0.75c0,0 -0.24,3.49 -1.23,4.07 -0.98,0.59 -2.32,0.26 -2.32,0.26l0.13 -0.7c0.52,0.06 1.47,0.11 1.88,-0.2 0.58,-0.43 0.78,-3.97 0.78,-3.97l0.84 -0.21z"/>
    </g>
    <polygon class="fil13" points="24.69,50.69 25.13,52.05 25.1,50.41 "/>
    <path class="fil6" d="M23.91 49.67c0,0 0.27,3.26 1.27,4.58l-0.02 -2.12 -0.27 -1.05 -0.34 -1.83 -0.64 0.42z"/>
    <path class="fil4" d="M32.06 80.23c0,0 -2.11,3.96 -7.59,2.19 -0.38,-0.12 0.22,-14.76 0.59,-18.43 0.37,-3.67 0,-14.88 0,-14.88l1.26 -0.93 2.02 -1.49c1.51,10.83 2.94,25.34 3.49,31.07 0.15,1.56 0.23,2.47 0.23,2.47z"/>
    <path class="fil6" d="M32.06 80.23c0,0 -2.11,3.96 -7.59,2.19 -0.38,-0.12 0.22,-14.76 0.59,-18.43 0.37,-3.67 0,-14.88 0,-14.88l1.26 -0.93c0.02,0.3 0.66,15.94 0,21.85 -0.67,5.98 -0.19,10.66 -0.19,10.66 0,0 0,-5.12 2.07,-4.95 1.42,0.12 1.82,2.62 1.82,2.62 0,0 -2.53,-3.09 -2.27,2.19 0.46,-0.15 2.22,-0.09 4.08,-2.79 0.15,1.56 0.23,2.47 0.23,2.47z"/>
    <path class="fil5" d="M12.91 46.84l1.44 0.53c0,0 6.34,0.97 8.41,0.46 3.48,-0.85 5.75,-4.88 5.75,-4.88l0.14 2.91c0,0 -0.33,2.66 -5.27,4.13 -4.94,1.47 -11.71,-1.22 -11.71,-1.22 -0.41,-1.15 -0.17,-2.43 0.62,-3.36l0.44 -0.51 0.18 1.94z"/>
    <g>
     <path class="fil14" d="M22.73 47.59c0.8,-0.46 1.45,-0.09 1.45,0.83 0,0.91 -0.64,2.03 -1.44,2.49 -0.79,0.46 -1.44,0.09 -1.45,-0.83 0,-0.92 0.65,-2.03 1.44,-2.49z"/>
    </g>
    <g>
     <path class="fil15" d="M22.73 48.06c0.57,-0.33 1.03,-0.06 1.04,0.59 0,0.66 -0.46,1.45 -1.03,1.78 -0.57,0.33 -1.03,0.07 -1.03,-0.59 -0.01,-0.65 0.45,-1.45 1.02,-1.78z"/>
    </g>
    <g>
     <path class="fil14" d="M26.25 45.56c0.8,-0.46 1.45,-0.09 1.45,0.83 0,0.92 -0.64,2.03 -1.44,2.49 -0.79,0.46 -1.44,0.09 -1.44,-0.82 -0.01,-0.92 0.64,-2.04 1.43,-2.5z"/>
    </g>
    <g>
     <path class="fil15" d="M26.26 46.04c0.56,-0.33 1.03,-0.07 1.03,0.59 0,0.65 -0.46,1.45 -1.03,1.78 -0.57,0.33 -1.03,0.06 -1.03,-0.59 0,-0.66 0.46,-1.45 1.03,-1.78z"/>
    </g>
    <g>
     <g>
      <path class="fil15" d="M24.68 45.67c1.2,-0.7 2.19,-0.14 2.19,1.25 0,1.38 -0.97,3.07 -2.18,3.77 -1.2,0.69 -2.18,0.13 -2.19,-1.25 0,-1.39 0.98,-3.08 2.18,-3.77z"/>
     </g>
     <g>
      <path class="fil14" d="M24.68 46.52c0.8,-0.46 1.45,-0.09 1.45,0.83 0,0.91 -0.64,2.03 -1.44,2.49 -0.79,0.45 -1.44,0.09 -1.45,-0.83 0,-0.92 0.65,-2.03 1.44,-2.49z"/>
     </g>
    </g>
    <g>
     <path class="fil16" d="M12.73 45.81c0,0 3.15,-0.49 4.99,1.2 0,0 0.06,5.16 -1.25,5.59 -1.31,0.44 -4.02,0.42 -4.34,-0.85 -0.32,-1.27 -0.81,-3.42 0.6,-5.94z"/>
     <path class="fil17" d="M12.73 45.81c0,0 -0.89,3.31 0.94,3.86 1.84,0.54 4.05,-2.66 4.05,-2.66 0,0 -1.34,-1.82 -4.99,-1.2z"/>
    </g>
    <path class="fil5" d="M30.38 85.55c0,0 1.63,0.65 2.46,0 0.83,-0.65 1.28,2.81 -3.7,3.63l1.24 -3.63z"/>
    <path class="fil5" d="M12.78 97.58c0,0 1.07,3.08 0.72,3.69 -0.35,0.62 -4.57,1.09 -5.95,-0.35 -1.17,-1.22 3.16,-5.89 5.23,-3.34z"/>
    <polygon class="fil6" points="8.27,54.25 2.9,53.81 2.77,51.75 8.09,52.25 "/>
    <path class="fil6" d="M31.84 45.74c0,0 5.15,-3.8 5.11,-3.93 -0.05,-0.13 -1.49,-1.66 -1.49,-1.66l-4.9 3.97 1.28 1.62z"/>
    <polygon class="fil6" points="33.95,38.8 30.15,41.69 29.17,39.84 32.86,36.94 "/>
    <path class="fil3" d="M22.09 22.51c0.58,-0.1 3.71,-2.37 3.71,-2.37l0.48 -7.51 -0.41 -5c0,0 -2.47,-4.51 -3.51,-4.38 -1.03,0.13 -0.27,19.26 -0.27,19.26z"/>
    <path class="fil18" d="M14.42 16.03l0 3.16c0,0 4.26,5.42 6.2,5.05 1.95,-0.36 2.19,-0.97 2.19,-0.97l-0.61 -4.5 -7.78 -2.74z"/>
    <path class="fil10" d="M23.78 5.33c-0.08,-0.26 -2.12,-4.87 -7.96,-4.44 -5.84,0.43 -7.41,8.35 -4.26,11.8 3.15,3.44 2.86,3.34 2.86,3.34l7.78 2.74 2.25 -0.55c0,0 1.48,-6.62 -0.67,-12.89z"/>
    <path class="fil4" d="M20.62 24.24c0,0 -2.5,0.66 -4.83,-2.68 -2.32,-3.34 -3.58,-1.62 -3.58,-1.62 0,0 -0.31,-5.56 -1.19,-6.26 -0.87,-0.7 -3.43,-7.92 -3.43,-7.92l8.2 -5.76 6.57 1.88 -4.01 2.31 -2.32 1.34 -2.04 5.36 1.8 7.88 4.76 3.74 0.07 1.73z"/>
    <polygon class="fil6" points="17.02,3.61 19.96,2.66 23.13,1.63 26.69,7.92 26.87,16.87 26.13,21.07 21.53,24.36 20.35,23.4 25.23,20.14 25.58,16.3 25.46,7.86 22.6,3.73 16.44,5.59 14.42,10.83 16.32,18.77 20.64,21.83 21.5,24.26 20.62,24.24 19.76,22.24 15.79,18.77 13.53,10.42 15.79,4.08 "/>
    <polygon class="fil1" points="22.6,3.73 27.73,8.62 22.75,8.01 24.31,9.81 21.82,9.14 19.52,12.15 19.09,9.81 15.79,12.15 15.79,10.45 14.42,10.83 16.44,5.59 "/>
    <polygon class="fil1" points="14.98,10.3 16.03,14.67 15.5,15.35 14.42,10.83 "/>
    <path class="fil1" d="M23.83 7.94l0.86 4.21c0,0 0.27,0.6 0.26,0.37 -0.01,-0.23 -0.26,-4.58 -0.26,-4.58l-0.86 0z"/>
    <path class="fil4" d="M10.46 21.56c0,0 -3.75,2.57 -5.47,4.16 -1.71,1.59 6.17,10.86 6.17,10.86 0,0 4.91,-10.98 -0.7,-15.02z"/>
    <polygon class="fil6" points="16.03,5.53 21.09,7.51 22.81,3.4 "/>
    <path class="fil10" d="M8.2 61.32l0.67 -0.51 -0.31 -1.31 -1.01 -1.39 -4.14 -1.22 0 4.75 0.65 0.44 0 0.61 2.12 1.07c0.86,0.44 1.91,0.36 2.69,-0.22l-0.67 -0.39 0 -1.83z"/>
    <polygon class="fil6" points="7.55,58.11 2.5,57.43 2.5,55.54 8.87,56.39 8.64,58.11 "/>
   </g>
   <g>
    <g>
     <g>
      <path class="fil1" d="M34.92 22.34c-0.01,0.13 0.08,0.26 0.25,0.37 0.35,0.21 2.48,-0.35 2.83,-0.54 0.18,-0.1 0.27,-0.22 0.28,-0.35l-0.42 7.29 0 0 -0.95 16.61c0,0.13 -0.09,0.26 -0.27,0.36 -0.35,0.19 -0.91,0.18 -1.26,-0.03 -0.17,-0.11 -0.25,-0.25 -0.25,-0.38l-0.15 -16.17 -0.06 -7.16z"/>
     </g>
    </g>
    <path class="fil15" d="M34.92 22.34c-0.01,0.13 0.08,0.26 0.25,0.37 0.35,0.21 2.48,-0.35 2.83,-0.54 0.18,-0.1 0.27,-0.22 0.28,-0.35l-0.42 7.29 0 0c-1.45,1.36 -2.88,0 -2.88,0l-0.06 -6.77z"/>
    <g>
     <g>
      <g>
       <polygon class="fil2" points="35.11,23.62 33.57,22.69 37.22,20.72 38.76,21.66 "/>
      </g>
      <g>
       <polygon class="fil9" points="37.01,18 35.47,17.07 36.67,14.64 38.21,15.58 "/>
      </g>
      <g>
       <polygon class="fil2" points="38.21,15.58 36.67,14.64 39.73,12.99 41.27,13.93 "/>
      </g>
      <g>
       <polygon class="fil9" points="41.27,13.93 39.73,12.99 39.83,9.31 41.37,10.25 "/>
      </g>
      <g>
       <polygon class="fil9" points="41.37,10.25 39.83,9.31 38.15,6.72 39.69,7.66 "/>
      </g>
      <g>
       <polygon class="fil9" points="34.26,25.86 32.72,24.92 27.21,19.08 28.74,20.02 "/>
      </g>
      <g>
       <polygon class="fil9" points="28.74,20.02 27.21,19.08 31.03,8.77 32.56,9.71 "/>
      </g>
      <g>
       <polygon class="fil1" points="28.74,20.02 32.56,9.71 40.66,5.35 42.96,8.92 42.8,14.88 37.01,18 38.21,15.58 41.27,13.93 41.37,10.25 39.69,7.66 33.5,10.99 30.6,18.84 35.11,23.62 38.76,21.66 38.71,23.46 34.26,25.86 "/>
      </g>
      <g>
       <polygon class="fil2" points="32.56,9.71 31.03,8.77 39.13,4.41 40.66,5.35 "/>
      </g>
     </g>
    </g>
   </g>
  </g>
 </g>
</svg>
