<?xml version="1.0" encoding="UTF-8"?>
<!DOCTYPE svg PUBLIC "-//W3C//DTD SVG 1.1//EN" "http://www.w3.org/Graphics/SVG/1.1/DTD/svg11.dtd">
<!-- Creator: CorelDRAW -->
<svg xmlns="http://www.w3.org/2000/svg" xml:space="preserve" width="583px" height="1273px" version="1.1" style="shape-rendering:geometricPrecision; text-rendering:geometricPrecision; image-rendering:optimizeQuality; fill-rule:evenodd; clip-rule:evenodd"
viewBox="0 0 51.89 113.26"
 xmlns:xlink="http://www.w3.org/1999/xlink"
 xmlns:xodm="http://www.corel.com/coreldraw/odm/2003">
 <defs>
  <style type="text/css">
   <![CDATA[
    .fil3 {fill:#465262;fill-rule:nonzero}
    .fil1 {fill:#757769;fill-rule:nonzero}
    .fil14 {fill:#7C8589;fill-rule:nonzero}
    .fil6 {fill:#979397;fill-rule:nonzero}
    .fil12 {fill:#AFACAF;fill-rule:nonzero}
    .fil8 {fill:#BFBDC1;fill-rule:nonzero}
    .fil16 {fill:#C8C4C8;fill-rule:nonzero}
    .fil11 {fill:#D1D1D3;fill-rule:nonzero}
    .fil9 {fill:#D1D4D4;fill-rule:nonzero}
    .fil13 {fill:#D3D1D3;fill-rule:nonzero}
    .fil15 {fill:#D8D4D8;fill-rule:nonzero}
    .fil4 {fill:#DBDBDB;fill-rule:nonzero}
    .fil2 {fill:#DFDFDF;fill-rule:nonzero}
    .fil7 {fill:#E2E2E2;fill-rule:nonzero}
    .fil10 {fill:#EFCFB3;fill-rule:nonzero}
    .fil5 {fill:#EFEFEF;fill-rule:nonzero}
    .fil0 {fill:black;fill-rule:nonzero;fill-opacity:0.200000}
   ]]>
  </style>
 </defs>
 <g id="Layer_x0020_1">
  <metadata id="CorelCorpID_0Corel-Layer"/>
  <path class="fil0" d="M9.09 99.12c0,7.1 7.6,17.85 21.11,12.86 4.59,-1.69 3.13,-6.36 6.66,-9.17 4.53,-3.62 10.74,-1.14 12.8,-4.19 3.64,-5.4 -5.67,-12.37 -18.09,-12.37 -12.42,0 -22.48,5.76 -22.48,12.87z"/>
  <g id="_2100412036080">
   <polygon class="fil1" points="35.24,8.83 35.5,12.62 36.32,11.16 36.16,8.53 "/>
   <g>
    <g>
     <path class="fil1" d="M47.47 96.35c0,0.15 0.1,0.29 0.29,0.39 0.38,0.21 0.98,0.2 1.35,-0.02 0.18,-0.11 0.27,-0.25 0.27,-0.39l-0.72 -45.29c0,0.14 -0.09,0.28 -0.27,0.39 -0.37,0.23 -0.97,0.24 -1.35,0.03 -0.19,-0.11 -0.28,-0.25 -0.29,-0.39l0.72 45.28z"/>
     <g>
      <path class="fil2" d="M47.04 51.46c-0.38,-0.21 -0.38,-0.56 -0.02,-0.78 0.37,-0.23 0.97,-0.24 1.35,-0.03 0.38,0.21 0.39,0.56 0.02,0.78 -0.37,0.23 -0.97,0.24 -1.35,0.03z"/>
     </g>
    </g>
   </g>
   <g>
    <path class="fil3" d="M39.85 66.17c-0.48,1.34 -2.23,4.71 -2.63,6.46 -0.4,1.74 -1.21,17.03 -1.21,17.03l-5.51 0 -1.01 -14.93 0.21 -5.26 -6.06 11.89c0,0 -2.01,2.82 -2.15,3.23 -0.03,0.11 -0.2,1.32 -0.42,3.04 -0.59,4.65 -1.59,12.95 -1.59,12.95l-5.24 0 0.27 -13.95 0.06 -3.13 2.76 -4.62c0,0 2.41,-14.32 2.55,-18.62 0.14,-4.3 2.5,-8.2 2.5,-8.2l16.79 -2.79c0,0 1.17,15.56 0.68,16.9z"/>
    <polygon class="fil4" points="30.17,54.24 28.93,65.93 28.59,69.28 33.33,70.3 37.67,64.16 36.89,52.76 "/>
    <polygon class="fil5" points="30.17,54.24 28.59,69.28 33.33,70.3 37.67,64.16 36.89,52.76 35.68,53.02 36.28,64.16 33.13,68.94 29.79,68.2 31.05,54.26 "/>
    <g>
     <path class="fil4" d="M42.3 60.67c0,0 -0.01,0 -0.01,0.01l-4.62 3.48c0,0 -1.2,-10.99 -0.78,-11.4 0.13,-0.13 0.42,-0.58 0.76,-1.14l0.04 -0.06c0.75,-1.23 1.72,-2.95 1.72,-2.95l2.56 10.68 0.33 1.38z"/>
     <path class="fil5" d="M42.3 60.67c0,0 -0.01,0 -0.01,0.01l-4.62 3.48c0,0 -1.2,-10.99 -0.78,-11.4l0.76 -1.14 0.04 -0.06 1.02 9.7 3.26 -1.97 0.33 1.38z"/>
    </g>
    <g>
     <g>
      <polygon class="fil4" points="18.96,61.24 17.88,68.85 24.31,72.01 27.1,65.07 "/>
      <polygon class="fil5" points="20.6,62.01 19.33,68.17 23.69,69.85 25.56,64.34 27.1,65.07 24.31,72.01 17.88,68.85 18.96,61.24 "/>
     </g>
     <path class="fil4" d="M30.17 54.24l-2.28 9.21 -9.44 -4.57c0,0 1.68,-6.64 3.93,-6.82 2.25,-0.18 7.79,2.18 7.79,2.18z"/>
     <polygon class="fil5" points="18.45,58.88 27.89,63.45 28.88,53.79 30.17,54.24 28.93,65.93 18.28,60.92 "/>
    </g>
    <path class="fil3" d="M36.01 18.04c0,0 2.58,-0.94 3.84,2.36 1.26,3.3 1,13.11 1,13.11 0,0 5.28,9.86 5.82,11.07 0.54,1.2 -2.6,2.64 -2.6,2.64l-4.22 -5.37 -3.84 -23.81z"/>
    <polygon class="fil4" points="46.58,45.21 47.61,46.91 50.57,48.88 50.95,53.59 49.85,54.3 46.58,53.72 46.13,51.12 44.79,50.76 44.53,46.95 "/>
    <polygon class="fil6" points="13.85,25.48 14.95,28.65 16.18,26.58 "/>
    <polygon class="fil5" points="45.1,39.58 45.9,38.88 44.53,37.32 38.71,42.87 39.97,44.36 "/>
    <path class="fil4" d="M20.41 40.03l1.97 2.62 0 9.41 4.76 1.75c0,0 5.91,1.34 8.87,-0.41 2.95,-1.74 3.8,-6.24 3.8,-6.24 0,0 0.36,-19.72 -1.12,-26.09 -1.47,-6.37 -15.09,-3.75 -19.64,2.93 -4.55,6.69 1.36,16.03 1.36,16.03z"/>
    <path class="fil4" d="M30.5 89.66l-0.81 4.4 2.35 0.74 0 -0.87 2.22 0.87 1.01 1.75c0,0 4.23,1.18 5.24,1.14 1.01,-0.04 3.38,-1.18 3.23,-2.42 -0.16,-1.24 -5.85,-3.39 -7.02,-4.37 -1.17,-0.97 -0.71,-1.24 -0.71,-1.24l-5.51 0z"/>
    <polygon class="fil7" points="26.89,33.76 34.21,36.74 38.71,29.41 37.96,20.92 34.21,16.85 22.67,20.54 19.33,22.58 "/>
    <path class="fil3" d="M24.25 16.85l0 3.49c0,0 4.7,5.98 6.85,5.58 2.15,-0.4 2.42,-1.08 2.42,-1.08l-0.67 -4.97 -8.6 -3.02z"/>
    <path class="fil3" d="M19.05 24c0,0 -3.86,1.95 -4.55,6.69 -0.68,4.74 -0.54,8.33 -0.94,8.87 -0.4,0.54 -2.15,2.96 -2.42,3.9 -0.27,0.94 0.34,10.95 0.94,18.55l4.57 1.34c0,0 -0.45,-16.28 0,-17.2 0.45,-0.92 4.19,-5.71 5.05,-9.44 0.87,-3.74 1.63,-6.49 -2.65,-12.71z"/>
    <polygon class="fil4" points="17.37,66.9 17.37,69.85 12.8,68.41 12.8,67.74 12.08,67.25 12.08,62.01 16.65,63.35 18.62,65.93 18.18,67.74 "/>
    <path class="fil5" d="M17.69 25.83c0,0 -3.44,2.5 -3.46,6.55 -0.02,4.05 4.42,3.53 5.95,2.94 1.54,-0.6 5.86,-9 -2.49,-9.49z"/>
    <path class="fil8" d="M17.87 24.81c0,0 -3.44,2.5 -3.46,6.54 -0.02,4.05 4.41,3.54 5.95,2.95 1.54,-0.6 5.85,-9 -2.49,-9.49z"/>
    <path class="fil4" d="M29.94 29.35l-5.11 7.39c0,-2.44 -4.5,-5.52 -4.5,-5.52l-0.23 -2.78 -6.25 -2.96c0,0 0.02,-0.25 0.24,-0.67 0.38,-0.79 1.45,-2.17 4.29,-3.48 4.78,-2.2 9.72,5.01 11.15,7.32l0 0.01c0.27,0.43 0.41,0.69 0.41,0.69z"/>
    <path class="fil5" d="M29.94 29.35l-5.11 7.39c0,-2.44 -4.5,-5.52 -4.5,-5.52l-0.23 -2.78 -6.25 -2.96c0,0 0.02,-0.25 0.24,-0.67l6.92 2.89 0 2.79c0,0 3.93,2.82 4.1,4.21l4.42 -6.05 0 0.01c0.27,0.43 0.41,0.69 0.41,0.69z"/>
    <g>
     <g>
      <path class="fil5" d="M28.21 28.13c0.41,-0.7 1.08,-0.69 1.48,0.01 0.39,0.71 0.38,1.85 -0.04,2.55 -0.41,0.7 -1.07,0.7 -1.47,-0.01 -0.4,-0.71 -0.39,-1.85 0.03,-2.55z"/>
     </g>
     <g>
      <path class="fil9" d="M28.46 28.58c0.27,-0.46 0.7,-0.45 0.96,0.01 0.26,0.46 0.25,1.2 -0.02,1.66 -0.27,0.45 -0.7,0.45 -0.96,-0.01 -0.26,-0.46 -0.25,-1.2 0.02,-1.66z"/>
     </g>
    </g>
    <polygon class="fil5" points="18.28,55.36 10.15,55.36 10.15,53.24 18.28,53.24 "/>
    <path class="fil4" d="M11.08 55.36l1 6.65c0,0 4.59,1.9 4.57,1.34 -0.01,-0.56 0.68,-7.99 0.68,-7.99l-6.25 0z"/>
    <path class="fil9" d="M40.15 21.39l0.88 5.36 -1.41 3.51 -3.62 -3.71 -2.48 -7.55c0,0 -3.4,0.64 0,-3.03 2.01,-2.17 5.06,-1.61 6.71,-1.07 0.73,0.23 1.18,0.47 1.18,0.47l-1.26 6.02z"/>
    <path class="fil10" d="M34.6 5.02c-0.1,-0.29 -2.36,-5.38 -8.81,-4.91 -6.45,0.47 -8.18,9.23 -4.7,13.04 3.48,3.81 3.16,3.7 3.16,3.7l8.6 3.02 2.49 -0.6c0,0 1.63,-7.32 -0.74,-14.25z"/>
    <path class="fil5" d="M40.15 21.39l0.88 5.36 -1.41 3.51 -3.62 -3.71 0.78 -0.39 2.77 2.67 0.68 -2.23 -1.1 -5.21 1.1 -6.49c0.73,0.23 1.18,0.47 1.18,0.47l-1.26 6.02z"/>
    <g>
     <g>
      <path class="fil5" d="M35.11 24.15c0.42,-0.7 1.08,-0.7 1.48,0.01 0.4,0.7 0.38,1.85 -0.03,2.55 -0.42,0.7 -1.08,0.69 -1.48,-0.01 -0.4,-0.71 -0.38,-1.85 0.03,-2.55z"/>
     </g>
     <g>
      <path class="fil9" d="M35.37 24.59c0.27,-0.45 0.7,-0.45 0.96,0.01 0.26,0.46 0.25,1.2 -0.02,1.66 -0.27,0.46 -0.7,0.45 -0.96,-0.01 -0.26,-0.46 -0.26,-1.2 0.02,-1.66z"/>
     </g>
    </g>
    <g>
     <polygon class="fil4" points="47.61,46.91 45.1,39.58 40.66,43.68 44.62,48.29 "/>
    </g>
    <polygon class="fil9" points="31.1,25.92 29.98,22.58 22.85,17.92 22.67,20.54 28.93,25.94 "/>
    <polygon class="fil5" points="33.52,24.84 34.21,22.58 32.85,19.87 "/>
    <polygon class="fil6" points="22.85,17.92 24.25,16.85 24.25,18.83 "/>
    <polygon class="fil5" points="29.94,25.83 28.93,23.15 22.79,18.83 22.85,17.92 29.98,22.58 31.1,25.92 "/>
    <polygon class="fil5" points="12.1,83.18 24.17,85.09 23.55,88.01 11.59,86.19 "/>
    <path class="fil4" d="M22.9 110.26c-0.2,1.01 -3.23,1.21 -3.42,1.21 -0.21,0 -2.83,-0.81 -2.83,-0.81 0,0 -2.82,-7.19 -2.82,-7.39 0,-0.2 0.41,-2.69 0.41,-2.69l-1.39 -14.2 9.44 1.44c-0.6,4.64 -2.81,12.76 -2.81,12.76 0,0 0.65,2.27 1.88,4.1 1.22,1.83 1.75,4.57 1.54,5.58z"/>
    <g>
     <polygon class="fil5" points="28.61,76.67 38.05,76.67 38.05,79.63 28.61,79.17 "/>
     <polygon class="fil4" points="29.79,79.23 29.79,89.66 36.01,89.66 36.89,79.57 "/>
    </g>
    <polygon class="fil4" points="38.61,63.45 39.55,70.3 41.86,65.93 41.41,61.34 "/>
    <polygon class="fil5" points="39.32,62.91 40.23,66.62 41.72,64.49 41.86,65.93 39.55,70.3 38.61,63.45 "/>
    <path class="fil5" d="M22.38 50.45l1.87 0.69c0,0 7.01,1.07 9.3,0.51 3.84,-0.94 6.35,-5.4 6.35,-5.4l0.15 3.22c0,0 -0.35,2.95 -5.81,4.57 -5.46,1.62 -12.95,-1.35 -12.95,-1.35l-0.08 -1.86c-0.03,-0.96 0.24,-1.9 0.8,-2.68l0.37 2.3z"/>
    <g>
     <g>
      <path class="fil9" d="M35.67 49.81c1.07,-0.62 1.94,-0.12 1.94,1.11 0.01,1.22 -0.86,2.72 -1.93,3.34 -1.06,0.61 -1.93,0.12 -1.94,-1.11 0,-1.23 0.86,-2.73 1.93,-3.34z"/>
     </g>
     <g>
      <path class="fil5" d="M35.67 50.56c0.71,-0.41 1.28,-0.08 1.29,0.73 0,0.82 -0.57,1.8 -1.28,2.21 -0.7,0.41 -1.28,0.08 -1.28,-0.73 0,-0.81 0.57,-1.8 1.27,-2.21z"/>
     </g>
    </g>
    <polygon class="fil8" points="22.01,48.15 22.38,48.15 22.38,50.45 "/>
   </g>
   <g>
    <g>
     <g>
      <g>
       <polygon class="fil4" points="22.66,73.65 24.11,72.81 12.74,79.87 11.29,80.71 "/>
      </g>
      <g>
       <polygon class="fil2" points="0.06,39.85 1.5,39.01 12.84,41.78 11.4,42.61 "/>
      </g>
      <g>
       <polygon class="fil8" points="22.72,52.93 24.17,52.09 24.11,72.81 22.66,73.65 "/>
      </g>
      <g>
       <polygon class="fil2" points="11.4,42.61 12.84,41.78 24.17,52.09 22.72,52.93 "/>
      </g>
      <g>
       <polygon class="fil11" points="11.4,42.61 22.72,52.93 22.66,73.65 11.29,80.71 0,60.57 0.06,39.85 "/>
      </g>
     </g>
    </g>
    <g>
     <polygon class="fil12" points="11.4,44.84 21.29,53.86 21.24,71.97 11.3,78.13 1.43,60.53 1.48,42.42 "/>
    </g>
    <g>
     <polygon class="fil13" points="11.39,47.25 19.74,54.86 19.7,70.14 11.31,75.35 2.98,60.49 3.02,45.21 "/>
    </g>
   </g>
   <g>
    <g>
     <g>
      <path class="fil1" d="M46.69 48.81c0.01,0.15 0.1,0.29 0.29,0.39 0.38,0.21 0.98,0.2 1.35,-0.02 0.18,-0.11 0.27,-0.25 0.27,-0.39l-0.38 -24.76c0,0.14 -0.09,0.29 -0.27,0.4 -0.37,0.22 -0.97,0.23 -1.35,0.02 -0.19,-0.11 -0.29,-0.25 -0.29,-0.39l0.38 24.75z"/>
      <g>
       <path class="fil2" d="M46.6 24.45c-0.38,-0.21 -0.39,-0.56 -0.02,-0.78 0.37,-0.22 0.97,-0.23 1.35,-0.02 0.38,0.21 0.38,0.55 0.02,0.78 -0.37,0.22 -0.97,0.23 -1.35,0.02z"/>
      </g>
     </g>
    </g>
    <g>
     <g>
      <g>
       <polygon class="fil13" points="42.67,26.55 41.21,25.75 50.41,20.27 51.87,21.07 "/>
      </g>
      <g>
       <polygon class="fil5" points="42.69,27.93 41.23,27.12 41.21,25.75 42.67,26.55 "/>
      </g>
      <g>
       <polygon class="fil12" points="42.67,26.55 51.87,21.07 51.89,22.45 42.69,27.93 "/>
      </g>
     </g>
     <g>
      <g>
       <polygon class="fil14" points="45.76,23.59 44.3,22.78 47.3,21 48.76,21.8 "/>
      </g>
      <g>
       <polygon class="fil15" points="45.77,24.7 44.31,23.9 44.3,22.78 45.76,23.59 "/>
      </g>
      <g>
       <polygon class="fil16" points="45.76,23.59 48.76,21.8 48.78,22.91 45.77,24.7 "/>
      </g>
     </g>
     <g>
      <g>
       <g>
        <polygon class="fil13" points="45.72,23.65 44.26,22.84 44.24,21.8 45.7,22.61 "/>
       </g>
       <g>
        <polygon class="fil5" points="45.7,22.61 44.24,21.8 43.29,20.43 44.75,21.24 "/>
       </g>
       <g>
        <polygon class="fil5" points="44.75,21.24 43.29,20.43 46.01,4.17 46.32,4.37 "/>
       </g>
       <g>
        <polygon class="fil13" points="44.75,21.24 46.32,4.37 49.65,18.32 48.77,20.78 48.78,21.82 45.72,23.65 45.7,22.61 "/>
       </g>
      </g>
      <polygon class="fil12" points="46.32,4.37 49.65,18.32 48.77,20.78 48.78,21.82 47.34,22.68 "/>
     </g>
    </g>
   </g>
   <path class="fil4" d="M37.16 16.75l-0.84 2.04 0 0 -0.41 0.98 -0.92 -4.38c-0.11,-0.52 -0.08,-1.05 0.09,-1.55l0.28 -0.83c0.38,-1.1 0.57,-2.25 0.57,-3.4 0,-0.21 -0.01,-0.42 -0.02,-0.63l-1.45 1.43c-0.58,0.58 -0.83,1.41 -0.66,2.22l0.36 1.66 -0.4 0.82 -0.14 -0.04 -0.63 -0.17 -0.36 -1.42c-0.28,-1.05 -1.22,-1.79 -2.31,-1.81l-4.25 -0.05c0.38,1.02 1.21,1.8 2.24,2.13l1.89 0.6c1,0.31 1.75,1.13 1.98,2.15l0.92 4.15 -10.25 -2.77c0,0 0.31,-0.29 0.39,-0.82 0.09,-0.55 -0.09,-1.37 -1.15,-2.39 -2.08,-2 -2.73,-4.79 -2.73,-4.79 0,0 -2.6,-8.15 5.34,-9.69 0.9,-0.17 1.69,-0.22 2.41,-0.17l-0.01 -0.02c7,0.23 8.93,7.53 8.93,7.53l0.06 0.45 0 0.01 0.42 3.48 0.65 5.28z"/>
   <path class="fil5" d="M32.18 16.5l0.92 4.15 -10.25 -2.77c0,0 0.31,-0.29 0.39,-0.82l8.51 2.22c-0.39,-2.68 -1.52,-3.96 -3.84,-4.51 -2.31,-0.56 -3.28,-3.81 -3.28,-3.81 0,0 3.07,-0.2 5.86,-0.2 2.8,0 3.18,3.83 3.18,3.83 0,0 0.06,0.31 0.09,0.52l-0.77 -0.21 -0.36 -1.42c-0.28,-1.05 -1.22,-1.79 -2.31,-1.81l-4.25 -0.05c0.38,1.02 1.21,1.8 2.24,2.13l1.89 0.6c1,0.31 1.75,1.13 1.98,2.15z"/>
   <path class="fil5" d="M35.53 14.72c-0.02,1 0.79,4.07 0.79,4.07l0 0 -0.41 0.98 -0.92 -4.38c-0.11,-0.52 -0.08,-1.05 0.09,-1.55l0.28 -0.83c0.38,-1.1 0.57,-2.25 0.57,-3.4 0,-0.21 -0.01,-0.42 -0.02,-0.63l-1.45 1.43c-0.58,0.58 -0.83,1.41 -0.66,2.22l0.36 1.66 -0.4 0.82c0,0 -1.23,-3.65 -0.54,-4.7 0.69,-1.04 2.87,-2.43 2.87,-2.43l0 0.01 0.42 3.48c-0.33,0.82 -0.98,2.51 -0.98,3.25z"/>
  </g>
 </g>
</svg>
