<?xml version="1.0" encoding="UTF-8"?>
<!DOCTYPE svg PUBLIC "-//W3C//DTD SVG 1.1//EN" "http://www.w3.org/Graphics/SVG/1.1/DTD/svg11.dtd">
<!-- Creator: CorelDRAW -->
<svg xmlns="http://www.w3.org/2000/svg" xml:space="preserve" width="531px" height="1273px" version="1.1" style="shape-rendering:geometricPrecision; text-rendering:geometricPrecision; image-rendering:optimizeQuality; fill-rule:evenodd; clip-rule:evenodd"
viewBox="0 0 42.36 101.54"
 xmlns:xlink="http://www.w3.org/1999/xlink"
 xmlns:xodm="http://www.corel.com/coreldraw/odm/2003">
 <defs>
  <style type="text/css">
   <![CDATA[
    .fil3 {fill:#465262;fill-rule:nonzero}
    .fil1 {fill:#757769;fill-rule:nonzero}
    .fil14 {fill:#7C8589;fill-rule:nonzero}
    .fil6 {fill:#979397;fill-rule:nonzero}
    .fil12 {fill:#AFACAF;fill-rule:nonzero}
    .fil8 {fill:#BFBDC1;fill-rule:nonzero}
    .fil16 {fill:#C8C4C8;fill-rule:nonzero}
    .fil11 {fill:#D1D1D3;fill-rule:nonzero}
    .fil9 {fill:#D1D4D4;fill-rule:nonzero}
    .fil13 {fill:#D3D1D3;fill-rule:nonzero}
    .fil15 {fill:#D8D4D8;fill-rule:nonzero}
    .fil4 {fill:#DBDBDB;fill-rule:nonzero}
    .fil2 {fill:#DFDFDF;fill-rule:nonzero}
    .fil7 {fill:#E2E2E2;fill-rule:nonzero}
    .fil10 {fill:#EFCFB3;fill-rule:nonzero}
    .fil5 {fill:#EFEFEF;fill-rule:nonzero}
    .fil0 {fill:black;fill-rule:nonzero;fill-opacity:0.200000}
   ]]>
  </style>
 </defs>
 <g id="Layer_x0020_1">
  <metadata id="CorelCorpID_0Corel-Layer"/>
  <path class="fil0" d="M3.98 88.86c0,6.37 6.82,16 18.93,11.54 4.12,-1.52 2.81,-5.71 5.97,-8.23 4.06,-3.24 9.63,-1.02 11.48,-3.76 3.27,-4.83 -5.08,-11.08 -16.22,-11.08 -11.13,0 -20.16,5.16 -20.16,11.53z"/>
  <polygon class="fil1" points="27.43,7.91 27.66,11.31 28.4,10.01 28.25,7.65 "/>
  <g id="_2357004141280">
   <g>
    <path class="fil1" d="M38.4 86.38c0,0.13 0.09,0.26 0.26,0.35 0.33,0.19 0.87,0.18 1.2,-0.02 0.17,-0.1 0.25,-0.22 0.25,-0.35l-0.65 -40.6c0,0.13 -0.08,0.25 -0.24,0.35 -0.33,0.2 -0.87,0.21 -1.21,0.02 -0.17,-0.09 -0.25,-0.22 -0.26,-0.35l0.65 40.6z"/>
    <g>
     <path class="fil2" d="M38.01 46.13c-0.34,-0.19 -0.34,-0.5 -0.01,-0.7 0.33,-0.2 0.87,-0.2 1.2,-0.02 0.34,0.19 0.35,0.5 0.02,0.7 -0.33,0.2 -0.87,0.21 -1.21,0.02z"/>
    </g>
   </g>
  </g>
  <g id="_2357004148624">
   <path class="fil3" d="M31.57 59.32c-0.44,1.21 -2,4.22 -2.36,5.79 -0.37,1.57 -1.09,15.28 -1.09,15.28l-4.94 0 -0.91 -13.39 0.19 -4.72 -5.43 10.66c0,0 -1.8,2.53 -1.93,2.9 -0.03,0.09 -0.17,1.18 -0.37,2.72 -0.53,4.17 -1.43,11.62 -1.43,11.62l-4.7 0 0.25 -12.51 0.05 -2.81 2.48 -4.14c0,0 2.16,-12.84 2.28,-16.69 0.12,-3.86 2.24,-7.36 2.24,-7.36l15.06 -2.5c0,0 1.04,13.95 0.61,15.15z"/>
   <polygon class="fil4" points="22.89,48.63 21.78,59.1 21.47,62.11 25.72,63.03 29.61,57.52 28.91,47.3 "/>
   <polygon class="fil5" points="22.89,48.63 21.47,62.11 25.72,63.03 29.61,57.52 28.91,47.3 27.82,47.54 28.37,57.52 25.54,61.8 22.55,61.14 23.68,48.65 "/>
   <g>
    <path class="fil4" d="M33.76 54.39c0,0 -0.01,0 -0.01,0.01l-4.14 3.12c0,0 -1.07,-9.86 -0.7,-10.22 0.12,-0.12 0.38,-0.52 0.68,-1.02l0.04 -0.05c0.67,-1.11 1.54,-2.65 1.54,-2.65l2.3 9.57 0.29 1.24z"/>
    <path class="fil5" d="M33.76 54.39c0,0 -0.01,0 -0.01,0.01l-4.14 3.12c0,0 -1.07,-9.86 -0.7,-10.22l0.68 -1.02 0.04 -0.05 0.91 8.69 2.93 -1.77 0.29 1.24z"/>
   </g>
   <g>
    <g>
     <polygon class="fil4" points="12.84,54.9 11.87,61.73 17.64,64.56 20.14,58.33 "/>
     <polygon class="fil5" points="14.3,55.59 13.17,61.11 17.07,62.62 18.75,57.68 20.14,58.33 17.64,64.56 11.87,61.73 12.84,54.9 "/>
    </g>
    <path class="fil4" d="M22.89 48.63l-2.05 8.26 -8.46 -4.1c0,0 1.5,-5.95 3.52,-6.12 2.02,-0.16 6.99,1.96 6.99,1.96z"/>
    <polygon class="fil5" points="12.38,52.79 20.84,56.89 21.73,48.22 22.89,48.63 21.78,59.1 12.23,54.61 "/>
   </g>
   <path class="fil3" d="M28.12 16.18c0,0 2.31,-0.85 3.45,2.11 1.13,2.96 0.89,11.75 0.89,11.75 0,0 4.74,8.84 5.22,9.92 0.48,1.09 -2.33,2.38 -2.33,2.38l-3.78 -4.82 -3.45 -21.34z"/>
   <polygon class="fil4" points="37.6,40.53 38.52,42.05 41.17,43.82 41.51,48.05 40.53,48.68 37.6,48.16 37.2,45.83 35.99,45.51 35.76,42.09 "/>
   <polygon class="fil6" points="8.25,22.84 9.24,25.69 10.34,23.83 "/>
   <polygon class="fil5" points="36.27,35.49 36.99,34.86 35.76,33.46 30.54,38.43 31.67,39.77 "/>
   <path class="fil4" d="M14.13 35.88l1.77 2.36 0 8.43 4.27 1.57c0,0 5.3,1.21 7.95,-0.36 2.65,-1.57 3.41,-5.6 3.41,-5.6 0,0 0.32,-17.68 -1,-23.39 -1.33,-5.71 -13.53,-3.37 -17.61,2.63 -4.08,5.99 1.21,14.36 1.21,14.36z"/>
   <path class="fil4" d="M23.18 80.39l-0.72 3.94 2.1 0.66 0 -0.78 1.99 0.78 0.91 1.57c0,0 3.79,1.06 4.7,1.02 0.91,-0.03 3.03,-1.06 2.89,-2.17 -0.14,-1.11 -5.25,-3.04 -6.29,-3.91 -1.05,-0.88 -0.64,-1.11 -0.64,-1.11l-4.94 0z"/>
   <polygon class="fil7" points="19.94,30.27 26.51,32.94 30.54,26.37 29.87,18.75 26.51,15.1 16.17,18.42 13.17,20.24 "/>
   <path class="fil3" d="M17.58 15.1l0 3.14c0,0 4.21,5.36 6.14,5 1.93,-0.36 2.17,-0.97 2.17,-0.97l-0.6 -4.46 -7.71 -2.71z"/>
   <path class="fil3" d="M12.92 21.52c0,0 -3.46,1.74 -4.08,5.99 -0.62,4.25 -0.48,7.48 -0.84,7.96 -0.37,0.48 -1.93,2.65 -2.17,3.49 -0.24,0.85 0.3,9.82 0.84,16.63l4.1 1.21c0,0 -0.4,-14.6 0,-15.43 0.4,-0.82 3.75,-5.12 4.52,-8.46 0.78,-3.35 1.47,-5.82 -2.37,-11.39z"/>
   <polygon class="fil4" points="11.41,59.98 11.41,62.62 7.31,61.33 7.31,60.73 6.67,60.29 6.67,55.59 10.77,56.8 12.54,59.1 12.13,60.73 "/>
   <path class="fil5" d="M11.7 23.16c0,0 -3.08,2.24 -3.1,5.87 -0.02,3.63 3.96,3.17 5.33,2.63 1.38,-0.53 5.25,-8.06 -2.23,-8.5z"/>
   <path class="fil8" d="M11.86 22.24c0,0 -3.08,2.24 -3.1,5.87 -0.02,3.63 3.95,3.17 5.33,2.64 1.38,-0.54 5.25,-8.07 -2.23,-8.51z"/>
   <path class="fil4" d="M22.68 26.31l-4.58 6.63c0,-2.19 -4.04,-4.95 -4.04,-4.95l-0.2 -2.49 -5.61 -2.66c0,0 0.03,-0.22 0.22,-0.6 0.34,-0.71 1.3,-1.94 3.84,-3.12 4.29,-1.97 8.72,4.49 10,6.57l0.01 0c0.24,0.39 0.36,0.62 0.36,0.62z"/>
   <path class="fil5" d="M22.68 26.31l-4.58 6.63c0,-2.19 -4.04,-4.95 -4.04,-4.95l-0.2 -2.49 -5.61 -2.66c0,0 0.03,-0.22 0.22,-0.6l6.21 2.59 0 2.5c0,0 3.52,2.53 3.67,3.78l3.96 -5.42 0.01 0c0.24,0.39 0.36,0.62 0.36,0.62z"/>
   <g>
    <g>
     <path class="fil5" d="M21.13 25.22c0.37,-0.63 0.96,-0.62 1.32,0.01 0.36,0.64 0.35,1.66 -0.03,2.29 -0.37,0.62 -0.96,0.62 -1.32,-0.01 -0.36,-0.64 -0.34,-1.66 0.03,-2.29z"/>
    </g>
    <g>
     <path class="fil9" d="M21.35 25.62c0.25,-0.41 0.63,-0.4 0.87,0.01 0.23,0.41 0.22,1.08 -0.02,1.49 -0.24,0.4 -0.63,0.4 -0.86,-0.01 -0.24,-0.41 -0.23,-1.08 0.01,-1.49z"/>
    </g>
   </g>
   <polygon class="fil5" points="12.23,49.63 4.94,49.63 4.94,47.73 12.23,47.73 "/>
   <path class="fil4" d="M5.77 49.63l0.9 5.96c0,0 4.11,1.71 4.1,1.21 -0.02,-0.51 0.61,-7.17 0.61,-7.17l-5.61 0z"/>
   <path class="fil9" d="M31.83 19.18l0.8 4.8 -1.27 3.15 -3.24 -3.33 -2.23 -6.77c0,0 -3.05,0.58 0,-2.72 1.8,-1.94 4.53,-1.43 6.02,-0.95 0.65,0.21 1.06,0.42 1.06,0.42l-1.14 5.4z"/>
   <path class="fil10" d="M26.85 4.5c-0.08,-0.26 -2.1,-4.82 -7.89,-4.4 -5.78,0.42 -7.33,8.27 -4.22,11.69 3.12,3.41 2.84,3.31 2.84,3.31l7.71 2.71 2.23 -0.54c0,0 1.46,-6.55 -0.67,-12.77z"/>
   <path class="fil5" d="M31.83 19.18l0.8 4.8 -1.27 3.15 -3.24 -3.33 0.69 -0.35 2.48 2.4 0.62 -2 -0.99 -4.67 0.99 -5.82c0.65,0.21 1.06,0.42 1.06,0.42l-1.14 5.4z"/>
   <g>
    <g>
     <path class="fil5" d="M27.32 21.65c0.37,-0.63 0.96,-0.63 1.32,0.01 0.36,0.63 0.35,1.66 -0.03,2.28 -0.37,0.63 -0.96,0.63 -1.32,-0.01 -0.36,-0.63 -0.34,-1.65 0.03,-2.28z"/>
    </g>
    <g>
     <path class="fil9" d="M27.54 22.05c0.25,-0.41 0.63,-0.41 0.87,0.01 0.23,0.41 0.22,1.07 -0.02,1.48 -0.24,0.41 -0.63,0.41 -0.86,0 -0.24,-0.42 -0.23,-1.08 0.01,-1.49z"/>
    </g>
   </g>
   <g>
    <polygon class="fil4" points="38.52,42.05 36.27,35.49 32.29,39.16 35.84,43.3 "/>
   </g>
   <polygon class="fil9" points="23.72,23.24 22.71,20.24 16.32,16.06 16.17,18.42 21.78,23.25 "/>
   <polygon class="fil5" points="25.89,22.27 26.51,20.24 25.29,17.81 "/>
   <polygon class="fil6" points="16.32,16.06 17.58,15.1 17.58,16.88 "/>
   <polygon class="fil5" points="22.68,23.16 21.78,20.75 16.27,16.88 16.32,16.06 22.71,20.24 23.72,23.24 "/>
   <polygon class="fil5" points="6.69,74.57 17.51,76.28 16.95,78.9 6.23,77.27 "/>
   <path class="fil4" d="M16.37 98.85c-0.18,0.91 -2.89,1.08 -3.07,1.08 -0.18,0 -2.53,-0.72 -2.53,-0.72 0,0 -2.53,-6.45 -2.53,-6.62 0,-0.19 0.36,-2.41 0.36,-2.41l-1.25 -12.74 8.47 1.29c-0.53,4.17 -2.52,11.45 -2.52,11.45 0,0 0.59,2.03 1.69,3.67 1.09,1.64 1.56,4.09 1.38,5z"/>
   <g>
    <polygon class="fil5" points="21.48,68.74 29.95,68.74 29.95,71.39 21.48,70.98 "/>
    <polygon class="fil4" points="22.55,71.03 22.55,80.39 28.12,80.39 28.91,71.34 "/>
   </g>
   <polygon class="fil4" points="30.45,56.89 31.3,63.03 33.36,59.1 32.97,54.99 "/>
   <polygon class="fil5" points="31.09,56.4 31.91,59.73 33.24,57.82 33.36,59.1 31.3,63.03 30.45,56.89 "/>
   <path class="fil5" d="M15.91 45.23l1.67 0.62c0,0 6.28,0.96 8.34,0.45 3.44,-0.84 5.69,-4.84 5.69,-4.84l0.14 2.89c0,0 -0.32,2.64 -5.22,4.1 -4.89,1.45 -11.61,-1.21 -11.61,-1.21l-0.06 -1.67c-0.04,-0.86 0.21,-1.7 0.71,-2.41l0.34 2.07z"/>
   <g>
    <g>
     <path class="fil9" d="M27.82 44.65c0.96,-0.55 1.74,-0.11 1.74,1 0,1.1 -0.77,2.44 -1.73,2.99 -0.96,0.55 -1.74,0.11 -1.74,-0.99 0,-1.1 0.77,-2.45 1.73,-3z"/>
    </g>
    <g>
     <path class="fil5" d="M27.82 45.33c0.63,-0.37 1.15,-0.07 1.15,0.66 0,0.72 -0.51,1.61 -1.14,1.98 -0.63,0.36 -1.15,0.07 -1.15,-0.66 0,-0.73 0.51,-1.62 1.14,-1.98z"/>
    </g>
   </g>
   <polygon class="fil8" points="15.57,43.16 15.9,43.16 15.91,45.23 "/>
  </g>
  <g id="_2319513705168">
   <g>
    <g>
     <g>
      <polygon class="fil4" points="21.73,68.91 23.11,68.1 12.21,74.86 10.83,75.67 "/>
     </g>
     <g>
      <polygon class="fil2" points="0.06,36.5 1.44,35.69 12.31,38.34 10.93,39.15 "/>
     </g>
     <g>
      <polygon class="fil8" points="21.78,49.04 23.17,48.24 23.11,68.1 21.73,68.91 "/>
     </g>
     <g>
      <polygon class="fil2" points="10.93,39.15 12.31,38.34 23.17,48.24 21.78,49.04 "/>
     </g>
     <g>
      <polygon class="fil11" points="10.93,39.15 21.78,49.04 21.73,68.91 10.83,75.67 0,56.36 0.06,36.5 "/>
     </g>
    </g>
   </g>
   <g>
    <polygon class="fil12" points="10.93,41.28 20.41,49.93 20.36,67.29 10.84,73.2 1.37,56.33 1.42,38.96 "/>
   </g>
   <g>
    <polygon class="fil13" points="10.92,43.59 18.93,50.89 18.88,65.54 10.84,70.53 2.86,56.29 2.9,41.63 "/>
   </g>
  </g>
  <g id="_2319513706080">
   <g>
    <g>
     <path class="fil1" d="M37.7 43.76c0,0.13 0.09,0.26 0.26,0.35 0.34,0.19 0.88,0.18 1.21,-0.02 0.16,-0.1 0.24,-0.22 0.24,-0.35l-0.34 -22.19c0,0.12 -0.08,0.25 -0.25,0.35 -0.33,0.2 -0.87,0.21 -1.2,0.02 -0.17,-0.1 -0.26,-0.22 -0.26,-0.35l0.34 22.19z"/>
     <g>
      <path class="fil2" d="M37.62 21.92c-0.34,-0.19 -0.35,-0.5 -0.02,-0.7 0.33,-0.2 0.87,-0.21 1.21,-0.02 0.34,0.19 0.34,0.5 0.01,0.7 -0.33,0.2 -0.87,0.21 -1.2,0.02z"/>
     </g>
    </g>
   </g>
   <g>
    <g>
     <g>
      <polygon class="fil13" points="34.09,23.8 32.78,23.08 41.03,18.17 42.34,18.89 "/>
     </g>
     <g>
      <polygon class="fil5" points="34.11,25.04 32.8,24.32 32.78,23.08 34.09,23.8 "/>
     </g>
     <g>
      <polygon class="fil12" points="34.09,23.8 42.34,18.89 42.36,20.13 34.11,25.04 "/>
     </g>
    </g>
    <g>
     <g>
      <polygon class="fil14" points="36.86,21.15 35.55,20.43 38.24,18.82 39.55,19.55 "/>
     </g>
     <g>
      <polygon class="fil15" points="36.88,22.15 35.57,21.42 35.55,20.43 36.86,21.15 "/>
     </g>
     <g>
      <polygon class="fil16" points="36.86,21.15 39.55,19.55 39.57,20.54 36.88,22.15 "/>
     </g>
    </g>
    <g>
     <g>
      <g>
       <polygon class="fil13" points="36.83,21.2 35.52,20.48 35.5,19.54 36.81,20.27 "/>
      </g>
      <g>
       <polygon class="fil5" points="36.81,20.27 35.5,19.54 34.65,18.32 35.96,19.04 "/>
      </g>
      <g>
       <polygon class="fil5" points="35.96,19.04 34.65,18.32 37.09,3.74 37.36,3.92 "/>
      </g>
      <g>
       <polygon class="fil13" points="35.96,19.04 37.36,3.92 40.35,16.43 39.56,18.63 39.58,19.56 36.83,21.2 36.81,20.27 "/>
      </g>
     </g>
     <polygon class="fil12" points="37.36,3.92 40.35,16.43 39.56,18.63 39.58,19.56 38.28,20.33 "/>
    </g>
   </g>
  </g>
  <path class="fil4" d="M29.15 15.02l-0.75 1.83 0 0 -0.37 0.88 -0.82 -3.93c-0.1,-0.46 -0.07,-0.94 0.08,-1.39l0.25 -0.74c0.34,-0.99 0.51,-2.02 0.51,-3.06 0,-0.19 -0.01,-0.37 -0.02,-0.56l-1.29 1.28c-0.53,0.52 -0.75,1.27 -0.6,1.99l0.32 1.49 -0.35 0.74 -0.13 -0.04 -0.56 -0.15 -0.33 -1.28c-0.25,-0.94 -1.1,-1.6 -2.07,-1.61l-3.81 -0.05c0.34,0.91 1.08,1.61 2.01,1.9l1.69 0.54c0.9,0.29 1.57,1.02 1.78,1.94l0.83 3.72 -9.2 -2.49c0,0 0.29,-0.26 0.35,-0.73 0.08,-0.5 -0.08,-1.23 -1.03,-2.15 -1.86,-1.79 -2.45,-4.29 -2.45,-4.29 0,0 -2.33,-7.31 4.8,-8.69 0.8,-0.15 1.51,-0.19 2.16,-0.15l-0.01 -0.02c6.27,0.21 8,6.75 8,6.75l0.05 0.4 0.01 0.01 0.37 3.12 0.58 4.74z"/>
  <path class="fil5" d="M24.69 14.8l0.83 3.72 -9.2 -2.49c0,0 0.29,-0.26 0.35,-0.73l7.63 1.98c-0.34,-2.4 -1.36,-3.54 -3.44,-4.04 -2.07,-0.5 -2.94,-3.42 -2.94,-3.42 0,0 2.75,-0.17 5.26,-0.17 2.51,0 2.84,3.43 2.84,3.43 0,0 0.06,0.28 0.09,0.47l-0.69 -0.19 -0.33 -1.28c-0.25,-0.94 -1.1,-1.6 -2.07,-1.61l-3.81 -0.05c0.34,0.91 1.08,1.61 2.01,1.9l1.69 0.54c0.9,0.29 1.57,1.02 1.78,1.94z"/>
  <path class="fil5" d="M27.69 13.2c-0.01,0.89 0.71,3.65 0.71,3.65l0 0 -0.37 0.88 -0.82 -3.93c-0.1,-0.46 -0.07,-0.94 0.08,-1.39l0.25 -0.74c0.34,-0.99 0.51,-2.02 0.51,-3.06 0,-0.19 -0.01,-0.37 -0.02,-0.56l-1.29 1.28c-0.53,0.52 -0.75,1.27 -0.6,1.99l0.32 1.49 -0.35 0.74c0,0 -1.1,-3.27 -0.49,-4.22 0.62,-0.93 2.57,-2.18 2.57,-2.18l0.01 0.01 0.37 3.12c-0.29,0.74 -0.88,2.25 -0.88,2.92z"/>
 </g>
</svg>
