<?xml version="1.0" encoding="UTF-8"?>
<!DOCTYPE svg PUBLIC "-//W3C//DTD SVG 1.1//EN" "http://www.w3.org/Graphics/SVG/1.1/DTD/svg11.dtd">
<!-- Creator: CorelDRAW -->
<svg xmlns="http://www.w3.org/2000/svg" xml:space="preserve" width="552px" height="552px" version="1.1" style="shape-rendering:geometricPrecision; text-rendering:geometricPrecision; image-rendering:optimizeQuality; fill-rule:evenodd; clip-rule:evenodd"
viewBox="0 0 1022.67 1022.66"
 xmlns:xlink="http://www.w3.org/1999/xlink"
 xmlns:xodm="http://www.corel.com/coreldraw/odm/2003">
 <defs>
  <style type="text/css">
   <![CDATA[
    .fil0 {fill:#472F2B;fill-rule:nonzero}
    .fil3 {fill:#A36841;fill-rule:nonzero}
    .fil2 {fill:black;fill-opacity:0.501961}
    .fil1 {fill:url(#id0)}
   ]]>
  </style>
  <radialGradient id="id0" gradientUnits="userSpaceOnUse" gradientTransform="matrix(6.09504E-17 0.995395 0.995395 -6.09504E-17 2 2)" cx="511.33" cy="511.33" r="1868.42" fx="511.33" fy="511.33">
   <stop offset="0" style="stop-opacity:1; stop-color:#A36841"/>
   <stop offset="1" style="stop-opacity:1; stop-color:#63433B"/>
  </radialGradient>
 </defs>
 <g id="Layer_x0020_1">
  <metadata id="CorelCorpID_0Corel-Layer"/>
  <g id="_2136331549232">
   <path class="fil0" d="M86.41 427.7l341.28 -341.28c46.19,-46.2 121.09,-46.2 167.28,0l341.28 341.28c46.2,46.18 46.2,121.08 0,167.28l-341.28 341.28c-46.19,46.18 -121.09,46.18 -167.28,0l-341.28 -341.28c-46.19,-46.2 -46.19,-121.1 0,-167.28z"/>
   <path class="fil1" d="M598.38 953.59l102.87 -102.88 0 -70 65.16 -54.04 30.19 -50.85 79.54 0 77.44 -77.43c48.08,-48.08 48.08,-126.02 0,-174.1l-172.33 -172.33 -67.29 7.47 13.96 -60.8 -53.61 -53.62 -62.06 0 19.7 -42.35 -33.57 -33.57c-48.08,-48.08 -126.02,-48.08 -174.1,0l-148.71 148.71 23.6 67.08 -103.43 12.76 -126.66 126.65c-48.07,48.08 -48.07,126.02 0,174.1l42.52 42.5 15.93 -15.92 66.75 42.91 55.62 14.29 -13.51 83.52 97.52 97.51 81.27 -37.99 9.54 54.05 30.2 0 -31.62 73.34 0.98 0.99c48.08,48.06 126.02,48.06 174.1,0z"/>
   <polygon class="fil2" points="278.39,633.9 329.83,633.9 325.38,562.16 377.45,574.53 431.77,546.8 431.77,472.64 379.04,447.86 333.32,443.09 293.31,394.51 265.15,377.08 265.15,643.95 "/>
   <polygon class="fil2" points="513.69,714.55 472.8,644.07 497.08,594.84 436.45,559.84 381.42,588.34 338.4,577.4 343.32,645.98 284.11,646.6 271.12,656.79 501.11,789.58 "/>
   <polygon class="fil2" points="301.89,382.6 339.03,427.85 381.42,434.05 439.43,460.81 497.09,427.53 470.48,373.56 476.19,314.5 546.68,288.79 500.95,232.9 273.83,364.01 "/>
   <polygon class="fil2" points="576.2,295.47 494.29,324.98 488.57,372.61 511.68,419.47 581.11,459.55 640.49,419.28 647.64,396.43 680.02,370.23 749.47,364.34 526.8,235.79 "/>
   <polygon class="fil2" points="688.59,384.03 660.97,403.57 654.3,426.91 590.96,471.21 590.96,543.9 650.97,582.63 684.79,572.15 702.88,633.59 757.59,643.29 757.59,378.79 "/>
   <polygon class="fil2" points="750.75,657.29 689.54,646.45 676.93,590.25 647.16,599.53 586.38,559.8 514.97,601.02 492.8,644.07 533.76,705.02 517.88,791.75 "/>
   <path class="fil3" d="M511.33 0c-41.7,0 -80.91,16.24 -110.4,45.74l-148.72 148.71c-7.86,7.86 -11.17,19.07 -9.04,29.78l-39.1 39.09 -12.38 1.53c-7.31,0.91 -14.1,4.22 -19.31,9.43l-126.65 126.66c-29.49,29.47 -45.73,68.68 -45.73,110.39 0,41.71 16.24,80.92 45.73,110.41l42.51 42.5c6.2,6.2 14.59,9.69 23.36,9.69 2.17,0 4.32,-0.22 6.42,-0.64l85.95 85.95 -0.18 1.18c-1.7,10.48 1.74,21.13 9.25,28.62l97.51 97.51c6.34,6.36 14.79,9.69 23.37,9.69 2.14,0 4.29,-0.22 6.42,-0.62l50.56 50.56c-2.12,10.66 1.14,21.87 9.04,29.77l0.99 0.99c29.49,29.49 68.7,45.72 110.4,45.72 41.7,0 80.92,-16.23 110.4,-45.72l102.87 -102.87c6.2,-6.2 9.68,-14.58 9.68,-23.36l0 -7.05 134.81 -134.8 7.05 0c8.76,0 17.16,-3.49 23.36,-9.69l77.43 -77.43c29.49,-29.49 45.74,-68.7 45.74,-110.41 0,-41.71 -16.25,-80.92 -45.74,-110.39l-172.32 -172.34c-6.23,-6.23 -14.64,-9.68 -23.35,-9.68 -1.22,0 -2.43,0.08 -3.65,0.22l-2.89 0.31 -14.41 -14.41c2.15,-10.79 -1.23,-21.96 -9.04,-29.78l-53.61 -53.6c-6.2,-6.2 -14.6,-9.68 -23.35,-9.68l-7.06 0 -2.9 -2.91c2.11,-10.63 -1.13,-21.86 -9.05,-29.78l-33.57 -33.55c-29.48,-29.5 -68.7,-45.74 -110.4,-45.74l0 0zm0 33.03c31.51,0 63.01,12.01 87.05,36.06l33.57 33.57 -6.58 14.14 28.2 28.21 20.74 0 53.61 53.62 -3.87 16.86 38.54 38.54 18.66 -2.07 172.33 172.33c48.08,48.06 48.08,126.02 0,174.1l-77.44 77.43 -20.74 0 -154.15 154.15 0 20.74 -102.87 102.88c-24.04,24.03 -55.54,36.06 -87.05,36.06 -31.5,0 -63.01,-12.03 -87.05,-36.06l-0.99 -0.99 6.31 -14.62c-0.63,-0.6 -1.3,-1.12 -1.91,-1.72l-79.65 -79.66 -14.13 6.6 -97.52 -97.51 2.89 -17.86 -117.32 -117.3 -10.36 10.36 -42.52 -42.5c-48.07,-48.08 -48.07,-126.04 0,-174.1l126.66 -126.65 23.65 -2.93 61.58 -61.57 -5.4 -15.34 148.71 -148.71c24.04,-24.05 55.55,-36.06 87.05,-36.06z"/>
  </g>
 </g>
</svg>
