<?xml version="1.0" encoding="UTF-8"?>
<!DOCTYPE svg PUBLIC "-//W3C//DTD SVG 1.1//EN" "http://www.w3.org/Graphics/SVG/1.1/DTD/svg11.dtd">
<!-- Creator: CorelDRAW -->
<svg xmlns="http://www.w3.org/2000/svg" xml:space="preserve" width="552px" height="552px" version="1.1" style="shape-rendering:geometricPrecision; text-rendering:geometricPrecision; image-rendering:optimizeQuality; fill-rule:evenodd; clip-rule:evenodd"
viewBox="0 0 799.46 799.52"
 xmlns:xlink="http://www.w3.org/1999/xlink"
 xmlns:xodm="http://www.corel.com/coreldraw/odm/2003">
 <defs>
  <style type="text/css">
   <![CDATA[
    .fil0 {fill:#892433;fill-rule:nonzero}
    .fil3 {fill:#CE4343;fill-rule:nonzero}
    .fil2 {fill:black;fill-opacity:0.501961}
    .fil1 {fill:url(#id0)}
   ]]>
  </style>
  <radialGradient id="id0" gradientUnits="userSpaceOnUse" gradientTransform="matrix(0.99539 -0 -0 -0.995393 2 798)" cx="399.7" cy="399.76" r="1460.72" fx="399.7" fy="399.76">
   <stop offset="0" style="stop-opacity:1; stop-color:#CE4343"/>
   <stop offset="0.490196" style="stop-opacity:1; stop-color:#BD383F"/>
   <stop offset="1" style="stop-opacity:1; stop-color:#AD2E3C"/>
  </radialGradient>
 </defs>
 <g id="Layer_x0020_1">
  <metadata id="CorelCorpID_0Corel-Layer"/>
  <g id="_2136693516512">
   <path class="fil0" d="M334.31 731.97l-266.81 -266.83c-36.11,-36.1 -36.11,-94.65 0,-130.77l266.81 -266.81c36.11,-36.11 94.66,-36.11 130.78,0l266.81 266.81c36.12,36.12 36.12,94.67 0,130.77l-266.81 266.83c-36.12,36.11 -94.67,36.11 -130.78,0z"/>
   <path class="fil1" d="M745.45 331.7l-80.42 -80.42 -54.73 0 -42.25 -50.94 -39.75 -23.6 0 -62.19 -60.55 -60.54c-37.58,-37.58 -98.52,-37.58 -136.1,0l-134.73 134.73 5.85 52.6 -47.54 -10.91 -41.92 41.92 0 48.51 -33.11 -15.4 -26.25 26.24c-37.58,37.59 -37.58,98.53 0,136.12l116.27 116.26 52.43 -18.45 9.98 80.87 99.02 99c37.58,37.59 98.52,37.59 136.1,0l33.24 -33.23 -12.45 -12.45 33.55 -52.19 11.18 -43.49 65.28 10.57 76.24 -76.24 -29.7 -63.53 42.24 -7.47 0 -23.6 57.35 24.71 0.77 -0.76c37.59,-37.59 37.59,-98.53 0,-136.12z"/>
   <path class="fil2" d="M399.73 489.53c-8.91,0 -17.21,-2.59 -24.25,-6.99 -6.63,-0.64 -15.54,-2.47 -25.27,-6.86 -10.24,-4.6 -19.38,-12.58 -23.31,-23.1 -4.14,-11.11 -2,-23.83 3.28,-34.46 5.28,-10.64 13.42,-19.54 21.71,-28.04 10.11,-10.38 13.16,-12.7 17.13,-19.87 5.19,-9.37 6.45,-18.62 6.72,-24.86 -0.16,-7.64 0.69,15.31 0.16,22.94 -0.73,10.51 -2.86,18.44 -3.81,21.71 -2.69,9.19 -4.35,9.75 -6.85,17.15 -1.08,3.19 -1.77,6.31 -2.32,9.35 8.35,-11.27 21.7,-18.62 36.81,-18.62 15.11,0 28.46,7.35 36.81,18.62 -0.55,-3.04 -1.25,-6.16 -2.32,-9.35 -2.5,-7.4 -4.16,-7.96 -6.84,-17.15 -0.96,-3.27 -3.09,-11.2 -3.82,-21.71 -0.53,-7.63 0.32,-30.58 0.15,-22.94 0.28,6.24 1.54,15.49 6.73,24.86 3.98,7.17 7.02,9.49 17.13,19.87 8.28,8.5 16.43,17.4 21.71,28.04 5.28,10.63 7.42,23.35 3.28,34.46 -3.93,10.52 -13.07,18.5 -23.31,23.1 -9.73,4.39 -18.64,6.22 -25.28,6.86 -7.03,4.4 -15.32,6.99 -24.24,6.99zm127.75 -61.43c13.88,-26.9 16.02,-58.77 10.62,-88.56 -5.39,-29.79 -17.87,-57.84 -32.02,-84.61 1.86,21.41 3.56,43.3 1.12,64.49 -1.13,-5.08 -2.7,-10.07 -4.79,-14.86 -6.46,-14.84 -17.29,-27.25 -27.79,-39.57 -15.35,-18.01 -30.47,-36.57 -40.74,-57.88 -10.27,-21.32 -15.39,-45.91 -9.79,-68.9 -10.19,18.75 -19.09,38.77 -24.8,59.37 -5.72,-20.6 -14.61,-40.62 -24.8,-59.37 5.6,22.99 0.47,47.58 -9.8,68.9 -10.26,21.31 -25.38,39.87 -40.73,57.88 -10.5,12.32 -21.33,24.73 -27.8,39.57 -1.75,4.02 -3.09,8.2 -4.16,12.45 -2.05,-20.44 -0.41,-41.49 1.38,-62.08 -14.15,26.77 -26.63,54.82 -32.02,84.61 -5.4,29.79 -3.26,61.66 10.62,88.56 -25.26,-28.39 -63.2,-45.06 -101.21,-44.46 25.72,16.71 47.32,39.69 62.41,66.39 10.62,18.79 18.21,39.58 32.32,55.9 7.87,9.08 17.55,16.37 27.92,22.55 0.04,2.8 0.45,5.62 1.34,8.31 3.5,10.64 13.01,18.2 22.9,23.47 9.89,5.26 20.66,8.94 29.9,15.27 13.04,8.93 22.38,23.1 25.45,38.6 -0.79,-13.17 6.15,-25.4 9.74,-38.08 1.97,-7 2.85,-14.26 2.75,-21.53 4.76,-0.03 9.51,-0.23 14.23,-0.73 4.72,0.5 9.47,0.7 14.23,0.73 -0.1,7.27 0.78,14.53 2.76,21.53 3.58,12.68 10.52,24.91 9.72,38.08 3.08,-15.5 12.42,-29.67 25.46,-38.6 9.24,-6.33 20.01,-10.01 29.9,-15.27 9.89,-5.27 19.4,-12.83 22.9,-23.47 0.89,-2.69 1.3,-5.51 1.34,-8.31 10.37,-6.18 20.04,-13.47 27.92,-22.55 14.11,-16.32 21.71,-37.11 32.32,-55.9 15.09,-26.7 36.69,-49.68 62.41,-66.39 -38,-0.6 -75.95,16.07 -101.21,44.46z"/>
   <path class="fil3" d="M399.7 0c-32.61,0 -63.26,12.7 -86.31,35.75l-134.73 134.73c-5.54,5.54 -8.27,13.31 -7.4,21.11l0.25 2.25 -11.26 11.26c-1.67,-0.33 -3.36,-0.49 -5.02,-0.49 -6.78,0 -13.37,2.67 -18.26,7.56l-41.92 41.92c-4.84,4.84 -7.56,11.41 -7.56,18.26l0 5.51 -2.27 2.27c-1.66,-0.33 -3.34,-0.49 -5.01,-0.49 -6.72,0 -13.32,2.61 -18.27,7.56l-26.25 26.25c-47.59,47.59 -47.59,125.03 0,172.63l116.27 116.26c4.92,4.92 11.53,7.55 18.26,7.55 1.67,0 3.35,-0.15 5.02,-0.48l30.57 30.56 1.19 9.69c0.71,5.71 3.3,11.02 7.37,15.1l99.02 99c23.05,23.06 53.7,35.76 86.31,35.76 32.61,0 63.26,-12.7 86.31,-35.76l33.24 -33.23c6.33,-6.32 8.68,-15.12 7.07,-23.28l67.2 -67.2 0.91 0.15c1.38,0.23 2.76,0.33 4.13,0.33 6.79,0 13.37,-2.67 18.25,-7.56l76.24 -76.24c6.19,-6.19 8.73,-14.96 7.07,-23.29l39.54 -39.52c1.66,0.32 3.34,0.49 5.01,0.49 6.72,0 13.33,-2.63 18.28,-7.57l0.77 -0.78c23.04,-23.04 35.74,-53.69 35.74,-86.3 0,-32.61 -12.7,-63.26 -35.75,-86.31l-80.42 -80.42c-4.85,-4.85 -11.41,-7.57 -18.26,-7.57l-5.52 0 -105.39 -105.39 0 -5.52c0,-6.85 -2.72,-13.41 -7.57,-18.25l-60.54 -60.55c-23.05,-23.05 -53.7,-35.75 -86.31,-35.75l0 0zm0 25.82c24.63,0 49.26,9.4 68.05,28.19l60.55 60.54 0 16.22 120.52 120.51 16.21 0 80.42 80.42c37.59,37.59 37.59,98.53 0,136.11l-0.77 0.77 -11.43 -4.92c-0.47,0.48 -0.87,1.01 -1.35,1.48l-62.27 62.28 5.16 11.05 -76.24 76.24 -13.95 -2.26 -91.71 91.71 8.1 8.11 -33.24 33.23c-18.79,18.81 -43.42,28.19 -68.05,28.19 -24.63,0 -49.26,-9.38 -68.05,-28.19l-99.02 -99 -2.28 -18.5 -48.14 -48.14 -11.99 4.22 -116.27 -116.27c-37.58,-37.58 -37.58,-98.52 0,-136.11l26.25 -26.24 11.06 5.15 22.05 -22.05 0 -16.21 41.92 -41.92 13.18 3.03 30.14 -30.14 -1.63 -14.58 134.73 -134.73c18.79,-18.79 43.42,-28.19 68.05,-28.19z"/>
  </g>
 </g>
</svg>
