<?xml version="1.0" encoding="UTF-8"?>
<!DOCTYPE svg PUBLIC "-//W3C//DTD SVG 1.1//EN" "http://www.w3.org/Graphics/SVG/1.1/DTD/svg11.dtd">
<!-- Creator: CorelDRAW -->
<svg xmlns="http://www.w3.org/2000/svg" xml:space="preserve" width="552px" height="552px" version="1.1" style="shape-rendering:geometricPrecision; text-rendering:geometricPrecision; image-rendering:optimizeQuality; fill-rule:evenodd; clip-rule:evenodd"
viewBox="0 0 174.37 174.37"
 xmlns:xlink="http://www.w3.org/1999/xlink"
 xmlns:xodm="http://www.corel.com/coreldraw/odm/2003">
 <defs>
  <style type="text/css">
   <![CDATA[
    .fil0 {fill:#70A3B2;fill-rule:nonzero}
    .fil3 {fill:#B7E2F8;fill-rule:nonzero}
    .fil2 {fill:black;fill-opacity:0.501961}
    .fil1 {fill:url(#id0)}
   ]]>
  </style>
  <radialGradient id="id0" gradientUnits="userSpaceOnUse" gradientTransform="matrix(6.09505E-17 0.995397 0.995395 -6.09504E-17 0 0)" cx="87.18" cy="87.18" r="318.57" fx="87.18" fy="87.18">
   <stop offset="0" style="stop-opacity:1; stop-color:#B7E2F8"/>
   <stop offset="0.509804" style="stop-opacity:1; stop-color:#9ED2E9"/>
   <stop offset="1" style="stop-opacity:1; stop-color:#86C3DB"/>
  </radialGradient>
 </defs>
 <g id="Layer_x0020_1">
  <metadata id="CorelCorpID_0Corel-Layer"/>
  <g id="_2136334884000">
   <path class="fil0" d="M14.73 72.92l58.19 -58.19c7.88,-7.87 20.65,-7.87 28.52,0l58.2 58.19c7.87,7.88 7.87,20.65 0,28.52l-58.2 58.2c-7.87,7.87 -20.64,7.87 -28.52,0l-58.19 -58.2c-7.87,-7.87 -7.87,-20.64 0,-28.52z"/>
   <path class="fil1" d="M102.03 162.59l17.54 -17.54 0 -11.93 11.11 -9.22 5.15 -8.67 13.56 0 13.2 -13.2c8.2,-8.2 8.2,-21.49 0,-29.69l-29.38 -29.38 -11.47 1.28 2.37 -10.37 -9.14 -9.14 -10.58 0 3.36 -7.23 -5.72 -5.72c-8.2,-8.2 -21.49,-8.2 -29.69,0l-25.35 25.36 4.02 11.43 -17.64 2.18 -21.59 21.59c-8.2,8.2 -8.2,21.49 0,29.69l7.25 7.25 2.71 -2.72 11.39 7.31 9.48 2.44 -2.3 14.24 16.62 16.63 13.86 -6.48 1.63 9.21 5.14 0 -5.39 12.51 0.17 0.17c8.2,8.2 21.49,8.2 29.69,0z"/>
   <polygon class="fil2" points="87.18,33.23 75.2,45.22 87.18,80.24 99.17,45.22 "/>
   <polygon class="fil2" points="87.18,141.14 99.17,129.15 87.18,94.13 75.2,129.15 "/>
   <polygon class="fil2" points="141.14,87.18 129.15,75.2 94.13,87.18 129.15,99.17 "/>
   <polygon class="fil2" points="33.23,87.18 45.22,99.17 80.24,87.18 45.22,75.2 "/>
   <polygon class="fil2" points="111.53,62.83 100.71,62.83 90.32,84.05 111.53,73.65 "/>
   <polygon class="fil2" points="62.83,111.53 73.65,111.53 84.05,90.32 62.83,100.71 "/>
   <polygon class="fil2" points="111.53,111.53 111.53,100.71 90.32,90.32 100.71,111.53 "/>
   <polygon class="fil2" points="62.83,62.83 62.83,73.65 84.05,84.05 73.65,62.83 "/>
   <path class="fil3" d="M87.18 0c-7.11,0 -13.79,2.77 -18.82,7.8l-25.36 25.35c-1.34,1.34 -1.9,3.25 -1.54,5.08l-6.67 6.67 -2.11 0.26c-1.24,0.15 -2.4,0.72 -3.29,1.61l-21.59 21.59c-5.03,5.03 -7.8,11.71 -7.8,18.82 0,7.12 2.77,13.8 7.8,18.83l7.25 7.25c1.05,1.05 2.48,1.65 3.98,1.65 0.37,0 0.74,-0.04 1.09,-0.11l14.66 14.65 -0.03 0.2c-0.29,1.79 0.29,3.6 1.57,4.88l16.63 16.63c1.08,1.08 2.52,1.65 3.98,1.65 0.37,0 0.74,-0.03 1.1,-0.11l8.62 8.63c-0.36,1.81 0.19,3.72 1.54,5.07l0.17 0.17c5.03,5.03 11.71,7.8 18.82,7.8 7.12,0 13.8,-2.77 18.83,-7.8l17.54 -17.54c1.05,-1.05 1.65,-2.49 1.65,-3.98l0 -1.2 22.98 -22.99 1.21 0c1.49,0 2.92,-0.59 3.98,-1.65l13.2 -13.2c5.03,-5.03 7.8,-11.71 7.8,-18.83 0,-7.11 -2.77,-13.79 -7.8,-18.82l-29.38 -29.38c-1.06,-1.06 -2.5,-1.65 -3.98,-1.65 -0.21,0 -0.41,0.01 -0.62,0.03l-0.49 0.06 -2.46 -2.46c0.36,-1.84 -0.21,-3.74 -1.55,-5.08l-9.13 -9.14c-1.06,-1.05 -2.49,-1.65 -3.99,-1.65l-1.2 0 -0.5 -0.49c0.36,-1.82 -0.19,-3.73 -1.54,-5.08l-5.72 -5.72c-5.03,-5.03 -11.71,-7.8 -18.83,-7.8l0 0zm0 5.63c5.38,0 10.75,2.05 14.85,6.15l5.72 5.72 -1.12 2.42 4.81 4.81 3.53 0 9.14 9.14 -0.66 2.87 6.58 6.57 3.18 -0.35 29.38 29.38c8.2,8.2 8.2,21.49 0,29.69l-13.2 13.2 -3.54 0 -26.28 26.28 0 3.54 -17.54 17.54c-4.1,4.1 -9.47,6.15 -14.85,6.15 -5.37,0 -10.74,-2.05 -14.84,-6.15l-0.17 -0.17 1.08 -2.49c-0.11,-0.1 -0.22,-0.19 -0.33,-0.29l-13.58 -13.59 -2.41 1.13 -16.62 -16.63 0.49 -3.04 -20 -20 -1.77 1.77 -7.25 -7.25c-8.2,-8.2 -8.2,-21.49 0,-29.69l21.59 -21.59 4.04 -0.5 10.5 -10.5 -0.92 -2.61 25.35 -25.36c4.1,-4.1 9.47,-6.15 14.84,-6.15z"/>
  </g>
 </g>
</svg>
