<?xml version="1.0" encoding="UTF-8"?>
<!DOCTYPE svg PUBLIC "-//W3C//DTD SVG 1.1//EN" "http://www.w3.org/Graphics/SVG/1.1/DTD/svg11.dtd">
<!-- Creator: CorelDRAW -->
<svg xmlns="http://www.w3.org/2000/svg" xml:space="preserve" width="552px" height="552px" version="1.1" style="shape-rendering:geometricPrecision; text-rendering:geometricPrecision; image-rendering:optimizeQuality; fill-rule:evenodd; clip-rule:evenodd"
viewBox="0 0 799.46 799.52"
 xmlns:xlink="http://www.w3.org/1999/xlink"
 xmlns:xodm="http://www.corel.com/coreldraw/odm/2003">
 <defs>
  <style type="text/css">
   <![CDATA[
    .fil1 {fill:#9900CC}
    .fil0 {fill:#1A0022;fill-rule:nonzero}
    .fil2 {fill:#310040;fill-rule:nonzero}
    .fil3 {fill:black;fill-opacity:0.501961}
   ]]>
  </style>
 </defs>
 <g id="Layer_x0020_1">
  <metadata id="CorelCorpID_0Corel-Layer"/>
  <path class="fil0" d="M334.31 731.97l-266.81 -266.83c-36.11,-36.1 -36.11,-94.65 0,-130.77l266.81 -266.81c36.11,-36.11 94.66,-36.11 130.78,0l266.81 266.81c36.12,36.12 36.12,94.67 0,130.77l-266.81 266.83c-36.12,36.11 -94.67,36.11 -130.78,0z"/>
  <path class="fil1" d="M745.45 331.7l-80.42 -80.42 -54.73 0 -42.25 -50.94 -39.75 -23.6 0 -62.19 -60.55 -60.54c-37.58,-37.58 -98.52,-37.58 -136.1,0l-134.73 134.73 5.85 52.6 -47.54 -10.91 -41.92 41.92 0 48.51 -33.11 -15.4 -26.25 26.24c-37.58,37.59 -37.58,98.53 0,136.12l116.27 116.26 52.43 -18.45 9.98 80.87 99.02 99c37.58,37.59 98.52,37.59 136.1,0l33.24 -33.23 -12.45 -12.45 33.55 -52.19 11.18 -43.49 65.28 10.57 76.24 -76.24 -29.7 -63.53 42.24 -7.47 0 -23.6 57.35 24.71 0.77 -0.76c37.59,-37.59 37.59,-98.53 0,-136.12z"/>
  <path class="fil2" d="M399.7 0c-32.61,0 -63.26,12.7 -86.31,35.75l-134.73 134.73c-5.54,5.54 -8.27,13.31 -7.4,21.11l0.25 2.25 -11.26 11.26c-1.67,-0.33 -3.36,-0.49 -5.02,-0.49 -6.78,0 -13.37,2.67 -18.26,7.56l-41.92 41.92c-4.84,4.84 -7.56,11.41 -7.56,18.26l0 5.51 -2.27 2.27c-1.66,-0.33 -3.34,-0.49 -5.01,-0.49 -6.72,0 -13.32,2.61 -18.27,7.56l-26.25 26.25c-47.59,47.59 -47.59,125.03 0,172.63l116.27 116.26c4.92,4.92 11.53,7.55 18.26,7.55 1.67,0 3.35,-0.15 5.02,-0.48l30.57 30.56 1.19 9.69c0.71,5.71 3.3,11.02 7.37,15.1l99.02 99c23.05,23.06 53.7,35.76 86.31,35.76 32.61,0 63.26,-12.7 86.31,-35.76l33.24 -33.23c6.33,-6.32 8.68,-15.12 7.07,-23.28l67.2 -67.2 0.91 0.15c1.38,0.23 2.76,0.33 4.13,0.33 6.79,0 13.37,-2.67 18.25,-7.56l76.24 -76.24c6.19,-6.19 8.73,-14.96 7.07,-23.29l39.54 -39.52c1.66,0.32 3.34,0.49 5.01,0.49 6.72,0 13.33,-2.63 18.28,-7.57l0.77 -0.78c23.04,-23.04 35.74,-53.69 35.74,-86.3 0,-32.61 -12.7,-63.26 -35.75,-86.31l-80.42 -80.42c-4.85,-4.85 -11.41,-7.57 -18.26,-7.57l-5.52 0 -105.39 -105.39 0 -5.52c0,-6.85 -2.72,-13.41 -7.57,-18.25l-60.54 -60.55c-23.05,-23.05 -53.7,-35.75 -86.31,-35.75l0 0zm0 25.82c24.63,0 49.26,9.4 68.05,28.19l60.55 60.54 0 16.22 120.52 120.51 16.21 0 80.42 80.42c37.59,37.59 37.59,98.53 0,136.11l-0.77 0.77 -11.43 -4.92c-0.47,0.48 -0.87,1.01 -1.35,1.48l-62.27 62.28 5.16 11.05 -76.24 76.24 -13.95 -2.26 -91.71 91.71 8.1 8.11 -33.24 33.23c-18.79,18.81 -43.42,28.19 -68.05,28.19 -24.63,0 -49.26,-9.38 -68.05,-28.19l-99.02 -99 -2.28 -18.5 -48.14 -48.14 -11.99 4.22 -116.27 -116.27c-37.58,-37.58 -37.58,-98.52 0,-136.11l26.25 -26.24 11.06 5.15 22.05 -22.05 0 -16.21 41.92 -41.92 13.18 3.03 30.14 -30.14 -1.63 -14.58 134.73 -134.73c18.79,-18.79 43.42,-28.19 68.05,-28.19z"/>
  <g id="_2100280863248">
   <path class="fil3" d="M324.7 398.45c-34.74,-26.12 -50.78,-36.55 -57.31,-83.95 -20.64,-149.88 212.41,-240.12 239.41,-86.38 16.32,92.88 -100.08,185.54 -128.06,260.93 -9.63,25.96 -13.59,47.17 -14.44,74.32l-0.42 -0.57c0.28,1.83 0.29,0.8 -0.34,3.07 -1.78,0.49 -2.49,1.1 -3.49,-0.24 -64.62,-86.66 89.42,-249.04 84.62,-312.74 -4.97,-65.76 -68.39,-48.73 -104.93,-16.23 -58.45,51.97 -38.53,100.6 -15.04,161.79z"/>
   <path class="fil3" d="M366.73 593.5c14.19,-0.59 26.43,16.81 27.35,38.87 0.92,22.06 -9.83,40.43 -24.01,41.02 -14.18,0.59 -26.43,-16.81 -27.35,-38.87 -0.92,-22.06 9.83,-40.43 24.01,-41.02z"/>
  </g>
 </g>
</svg>
