<?xml version="1.0" encoding="UTF-8"?>
<!DOCTYPE svg PUBLIC "-//W3C//DTD SVG 1.1//EN" "http://www.w3.org/Graphics/SVG/1.1/DTD/svg11.dtd">
<!-- Creator: CorelDRAW -->
<svg xmlns="http://www.w3.org/2000/svg" xml:space="preserve" width="552px" height="552px" version="1.1" style="shape-rendering:geometricPrecision; text-rendering:geometricPrecision; image-rendering:optimizeQuality; fill-rule:evenodd; clip-rule:evenodd"
viewBox="0 0 173.89 173.9"
 xmlns:xlink="http://www.w3.org/1999/xlink"
 xmlns:xodm="http://www.corel.com/coreldraw/odm/2003">
 <defs>
  <style type="text/css">
   <![CDATA[
    .fil0 {fill:#137F6A;fill-rule:nonzero}
    .fil3 {fill:#1ABC9C;fill-rule:nonzero}
    .fil2 {fill:black;fill-opacity:0.501961}
    .fil1 {fill:url(#id0)}
   ]]>
  </style>
  <radialGradient id="id0" gradientUnits="userSpaceOnUse" gradientTransform="matrix(0.995391 -0 -0 -0.995394 0 173)" cx="86.94" cy="86.95" r="317.71" fx="86.94" fy="86.95">
   <stop offset="0" style="stop-opacity:1; stop-color:#1ABC9C"/>
   <stop offset="0.509804" style="stop-opacity:1; stop-color:#18AE90"/>
   <stop offset="1" style="stop-opacity:1; stop-color:#16A085"/>
  </radialGradient>
 </defs>
 <g id="Layer_x0020_1">
  <metadata id="CorelCorpID_0Corel-Layer"/>
  <g id="_2136691411264">
   <path class="fil0" d="M72.71 159.2l-58.03 -58.03c-7.85,-7.85 -7.85,-20.59 0,-28.45l58.03 -58.03c7.86,-7.85 20.59,-7.85 28.45,0l58.03 58.03c7.86,7.86 7.86,20.6 0,28.45l-58.03 58.03c-7.86,7.86 -20.59,7.86 -28.45,0z"/>
   <path class="fil1" d="M162.14 72.15l-29.06 -29.07 -20.2 2.93 1.52 -21.6 -12.66 -12.66c-8.18,-8.18 -21.43,-8.18 -29.61,0l-2.62 2.62 0 9.34 -17.84 16.21 -7.71 0 -32.22 32.23c-8.18,8.17 -8.18,21.43 0,29.6l5.87 5.87 10.55 0 4.05 4.32 11.08 0 -7.31 14.05 22.8 22.8 5.86 -5.5 0.97 12.33 6.52 6.53c8.18,8.17 21.43,8.17 29.61,0l0.12 -0.12 -1.75 -14.48 12.97 -5.67 4.33 -7.57 11.89 0 0.13 0.15 32.71 -32.71c8.17,-8.17 8.17,-21.43 0,-29.6z"/>
   <path class="fil1" d="M162.14 72.15l-29.06 -29.07 -20.2 2.93 1.52 -21.6 -12.66 -12.66c-8.18,-8.18 -21.43,-8.18 -29.61,0l-2.62 2.62 0 9.34 -17.84 16.21 -7.71 0 -32.22 32.23c-8.18,8.17 -8.18,21.43 0,29.6l5.87 5.87 10.55 0 4.05 4.32 11.08 0 -7.31 14.05 22.8 22.8 5.86 -5.5 0.97 12.33 6.52 6.53c8.18,8.17 21.43,8.17 29.61,0l0.12 -0.12 -1.75 -14.48 12.97 -5.67 4.33 -7.57 11.89 0 0.13 0.15 32.71 -32.71c8.17,-8.17 8.17,-21.43 0,-29.6z"/>
   <path class="fil2" d="M78.73 94.79c-4.85,0 -8.78,-3.93 -8.78,-8.78 0,-4.85 3.93,-8.78 8.78,-8.78 4.84,0 8.77,3.93 8.77,8.78 0,4.85 -3.93,8.78 -8.77,8.78zm40.16 -18.86c-6.58,5.05 -13.95,9.06 -21.73,11.93 0.04,-0.4 0.04,-0.82 0.06,-1.23 4.39,-1.89 8.31,-4.8 11.14,-8.64 5.37,-7.3 6.26,-17.91 1.34,-25.51 -4.3,8.1 -9.99,15.46 -16.7,21.72 -0.29,-0.34 -0.59,-0.67 -0.9,-0.99 4.11,-3.96 7.1,-9.05 8.13,-14.65 1.65,-8.9 -2.19,-18.84 -9.94,-23.53 -0.41,11.33 -3.21,22.56 -8.08,32.79 -1.13,-0.21 -2.29,-0.34 -3.48,-0.34 -10.23,0 -18.53,8.3 -18.53,18.53 0,2.97 0.72,5.77 1.96,8.26 -2.16,0.38 -4.17,1.17 -5.62,2.78 -2.45,2.72 -2.33,7.36 0.26,9.94 1.63,1.61 3.93,2.36 6.19,2.74 2.76,0.46 5.59,0.45 8.39,0.44 6.49,-0.03 12.98,-0.07 19.47,-0.1 2.46,-0.01 5.03,0 7.23,1.12 2.2,1.11 3.87,3.7 3.09,6.04 -0.77,2.29 -3.38,3.35 -5.74,3.87 -10.42,2.3 -19.78,1.28 -22.6,4.55 -1.04,1.2 -1.37,2.61 -1.37,2.61 0,0 -0.41,1.77 0.25,3.51 0.99,2.58 3.95,3.63 6.14,4.37 6.68,2.26 13.05,0.66 13.05,0.18 -0.01,-0.31 -2.47,0.09 -5.1,-1.59 -0.81,-0.52 -2.84,-1.81 -3.14,-4.09 -0.23,-1.84 0.79,-3.29 0.97,-3.53 1.37,-1.86 3.62,-2.21 6.92,-2.73 6.61,-1.02 9.92,-1.54 10.67,-1.73 4.05,-1.05 7.57,-2.02 9.64,-5.18 1.38,-2.11 1.78,-4.83 1.06,-7.25 -0.99,-3.35 -3.95,-5.83 -7.19,-7.14 -2.15,-0.86 -4.44,-1.28 -6.75,-1.55 3.18,-0.43 6.26,-1.4 9.08,-2.96 7.92,-4.4 13.15,-13.68 11.83,-22.64z"/>
   <path class="fil3" d="M86.94 0c-7.1,0 -13.76,2.76 -18.78,7.77l-2.63 2.64c-1.05,1.05 -1.64,2.47 -1.64,3.96l0 1.21 -18.74 18.73 -1.19 0c-1.49,0 -2.92,0.59 -3.98,1.65l-32.22 32.21c-10.35,10.35 -10.35,27.2 0,37.55l5.87 5.87c1.06,1.05 2.49,1.65 3.98,1.65l1.2 0 11.66 11.66c-0.36,1.8 0.19,3.72 1.54,5.06l22.79 22.8c1.1,1.1 2.54,1.65 3.98,1.65 0.36,0 0.73,-0.04 1.09,-0.11l0 0 0.14 1.76c0.1,1.33 0.68,2.59 1.63,3.53l6.52 6.53c5.02,5.01 11.68,7.78 18.78,7.78 7.09,0 13.76,-2.77 18.77,-7.78l0.11 -0.12c1.23,-1.21 1.82,-2.93 1.61,-4.65l-0.05 -0.43 20.96 -20.95c0.29,0.06 0.6,0.09 0.91,0.1 0.06,0 0.12,0.01 0.18,0.01 1.49,0 2.92,-0.6 3.97,-1.65l32.71 -32.71c5.01,-5.01 7.77,-11.68 7.77,-18.77 0,-7.09 -2.76,-13.76 -7.77,-18.78l-29.06 -29.06c-1.06,-1.06 -2.49,-1.64 -3.97,-1.64 -0.27,0 -0.54,0.02 -0.81,0.06l-0.29 0.04 -12.03 -12.03 0.05 -0.74c0.12,-1.62 -0.48,-3.21 -1.63,-4.36l-12.66 -12.67c-5.01,-5.01 -11.68,-7.77 -18.77,-7.77l0 0zm0 5.62c5.35,0 10.71,2.04 14.8,6.13l12.66 12.66 -0.23 3.29 15.83 15.83 3.08 -0.45 29.06 29.07c8.17,8.17 8.17,21.43 0,29.6l-32.71 32.71 -0.13 -0.15 -3.25 0 -24.57 24.57 0.38 3.15 -0.12 0.12c-4.09,4.09 -9.45,6.13 -14.8,6.13 -5.36,0 -10.72,-2.04 -14.81,-6.13l-6.52 -6.53 -0.3 -3.82 -4.71 -4.72 -1.82 1.71 -22.8 -22.8 1.21 -2.32 -16.06 -16.05 -3.52 0 -5.87 -5.87c-8.18,-8.17 -8.18,-21.43 0,-29.6l32.22 -32.23 3.52 0 22.03 -22.02 0 -3.53 2.62 -2.62c4.09,-4.09 9.45,-6.13 14.81,-6.13z"/>
  </g>
 </g>
</svg>
