<?xml version="1.0" encoding="UTF-8"?>
<!DOCTYPE svg PUBLIC "-//W3C//DTD SVG 1.1//EN" "http://www.w3.org/Graphics/SVG/1.1/DTD/svg11.dtd">
<!-- Creator: CorelDRAW -->
<svg xmlns="http://www.w3.org/2000/svg" xml:space="preserve" width="552px" height="552px" version="1.1" style="shape-rendering:geometricPrecision; text-rendering:geometricPrecision; image-rendering:optimizeQuality; fill-rule:evenodd; clip-rule:evenodd"
viewBox="0 0 424.4 424.4"
 xmlns:xlink="http://www.w3.org/1999/xlink"
 xmlns:xodm="http://www.corel.com/coreldraw/odm/2003">
 <defs>
  <style type="text/css">
   <![CDATA[
    .fil0 {fill:#C17911;fill-rule:nonzero}
    .fil3 {fill:#F1C40F;fill-rule:nonzero}
    .fil2 {fill:black;fill-opacity:0.501961}
    .fil1 {fill:url(#id0)}
   ]]>
  </style>
  <radialGradient id="id0" gradientUnits="userSpaceOnUse" gradientTransform="matrix(6.09507E-17 -0.9954 -0.995398 -6.09506E-17 423 423)" cx="212.2" cy="212.2" r="775.38" fx="212.2" fy="212.2">
   <stop offset="0" style="stop-opacity:1; stop-color:#F1C40F"/>
   <stop offset="0.6" style="stop-opacity:1; stop-color:#F2B011"/>
   <stop offset="1" style="stop-opacity:1; stop-color:#F39C12"/>
  </radialGradient>
 </defs>
 <g id="Layer_x0020_1">
  <metadata id="CorelCorpID_0Corel-Layer"/>
  <g id="_2136698813024">
   <path class="fil0" d="M388.54 246.91l-141.63 141.63c-19.17,19.17 -50.25,19.17 -69.42,0l-141.63 -141.63c-19.17,-19.17 -19.17,-50.25 0,-69.42l141.63 -141.63c19.17,-19.17 50.25,-19.17 69.42,0l141.63 141.63c19.17,19.17 19.17,50.25 0,69.42z"/>
   <path class="fil1" d="M176.08 28.67l-42.69 42.69 0 29.05 -27.04 22.42 -12.53 21.11 -33.01 0 -32.14 32.14c-19.95,19.95 -19.95,52.3 0,72.25l71.52 71.51 27.92 -3.1 -5.79 25.24 22.25 22.25 25.75 0 -8.17 17.57 13.93 13.94c19.95,19.94 52.3,19.94 72.25,0l61.71 -61.73 -9.79 -27.82 42.93 -5.3 52.55 -52.56c19.95,-19.95 19.95,-52.3 0,-72.25l-17.64 -17.65 -6.61 6.62 -27.7 -17.81 -23.09 -5.94 5.61 -34.66 -40.47 -40.47 -33.72 15.77 -3.96 -22.42 -12.53 0 13.11 -30.44 -0.4 -0.41c-19.95,-19.95 -52.3,-19.95 -72.25,0z"/>
   <path class="fil2" d="M212.2 229.6c-9.6,0 -17.39,-7.79 -17.39,-17.4 0,-9.6 7.79,-17.39 17.39,-17.39 9.6,0 17.39,7.79 17.39,17.39 0,9.61 -7.79,17.4 -17.39,17.4zm88.23 -12.1l-38.64 -45.82 -18.29 16.62 -29.42 -24.66 35.23 -39.67 -63.27 -47.88 31.47 47.88 -45.83 38.64 16.62 18.29 -24.66 29.42 -39.67 -35.23 -47.88 63.27 47.88 -31.46 38.64 45.82 18.29 -16.62 29.42 24.66 -35.23 39.67 63.27 47.88 -31.46 -47.88 45.82 -38.64 -16.62 -18.29 24.66 -29.42 39.67 35.23 47.88 -63.27 -47.88 31.46z"/>
   <path class="fil3" d="M212.2 0c-17.31,0 -33.58,6.74 -45.82,18.98l-42.68 42.69c-2.57,2.57 -4.02,6.06 -4.02,9.69l0 2.93 -55.95 55.95 -2.92 0c-3.64,0 -7.12,1.43 -9.69,4.01l-32.14 32.14c-12.24,12.23 -18.98,28.5 -18.98,45.81 0,17.31 6.74,33.58 18.98,45.82l71.51 71.51c2.59,2.59 6.08,4.02 9.69,4.02 0.51,0 1.01,-0.03 1.52,-0.08l1.2 -0.14 5.97 5.98c-0.88,4.47 0.52,9.12 3.76,12.36l22.25 22.25c2.57,2.57 6.05,4.01 9.69,4.01l2.93 0 1.2 1.2c-0.88,4.42 0.47,9.08 3.75,12.36l13.93 13.94c12.24,12.24 28.51,18.97 45.82,18.97 17.31,0 33.58,-6.73 45.82,-18.97l61.72 -61.72c3.26,-3.27 4.63,-7.91 3.75,-12.36l16.22 -16.23 5.15 -0.63c3.03,-0.37 5.85,-1.75 8.01,-3.91l52.56 -52.56c12.23,-12.24 18.97,-28.51 18.97,-45.82 0,-17.31 -6.74,-33.58 -18.98,-45.81l-17.64 -17.65c-2.67,-2.67 -6.18,-4.02 -9.69,-4.02 -0.89,0 -1.79,0.09 -2.67,0.27l-35.67 -35.67 0.08 -0.48c0.7,-4.35 -0.72,-8.77 -3.84,-11.89l-40.47 -40.47c-2.62,-2.62 -6.13,-4.01 -9.69,-4.01 -0.89,0 -1.78,0.08 -2.67,0.26l-20.98 -20.98c0.88,-4.43 -0.47,-9.09 -3.75,-12.36l-0.41 -0.41c-12.24,-12.24 -28.51,-18.98 -45.82,-18.98l0 0zm0 13.71c13.08,0 26.15,4.98 36.13,14.96l0.4 0.41 -2.61 6.07c0.26,0.24 0.54,0.46 0.79,0.71l33.06 33.05 5.86 -2.74 40.47 40.47 -1.2 7.41 48.68 48.69 4.31 -4.31 17.64 17.65c19.95,19.94 19.95,52.3 0,72.25l-52.55 52.56 -9.82 1.21 -25.56 25.55 2.24 6.36 -61.71 61.73c-9.98,9.97 -23.05,14.96 -36.13,14.96 -13.07,0 -26.15,-4.99 -36.12,-14.96l-13.93 -13.94 2.73 -5.87 -11.71 -11.71 -8.6 0 -22.25 -22.24 1.61 -7 -16 -16 -7.75 0.86 -71.51 -71.51c-19.95,-19.95 -19.95,-52.31 0,-72.25l32.14 -32.14 8.6 0 63.98 -63.98 0 -8.6 42.69 -42.69c9.97,-9.98 23.05,-14.96 36.12,-14.96z"/>
  </g>
 </g>
</svg>
